<mxfile host="app.diagrams.net" agent="Mozilla/5.0 (Windows NT 10.0; Win64; x64) AppleWebKit/537.36 (KHTML, like Gecko) Chrome/131.0.0.0 Safari/537.36" version="24.9.1">
  <diagram name="Page-1" id="YPKPpMM0ROmh5dz6Bpro">
    <mxGraphModel dx="2081" dy="1777" grid="1" gridSize="10" guides="1" tooltips="1" connect="1" arrows="1" fold="1" page="1" pageScale="1" pageWidth="827" pageHeight="1169" math="0" shadow="0">
      <root>
        <mxCell id="0" />
        <mxCell id="1" parent="0" />
        <mxCell id="i0-r0BhkWRjA8PmNq9u2-18" value="Environnements SAP" style="rounded=1;whiteSpace=wrap;html=1;strokeColor=#07838f;fillColor=#dafdf5;arcSize=24;absoluteArcSize=1;imageWidth=64;imageHeight=64;strokeWidth=1.5;verticalAlign=top;fontSize=15;fontStyle=1" parent="1" vertex="1">
          <mxGeometry x="363" y="24" width="340" height="650" as="geometry" />
        </mxCell>
        <mxCell id="wNo7IlQ1gwdrVZ6y7zte-13" value="" style="rounded=1;whiteSpace=wrap;html=1;strokeColor=#07838f;fillColor=#FFFFFF;arcSize=24;absoluteArcSize=1;imageWidth=64;imageHeight=64;strokeWidth=1.5;" parent="1" vertex="1">
          <mxGeometry x="377.5" y="80" width="311" height="560" as="geometry" />
        </mxCell>
        <mxCell id="i0-r0BhkWRjA8PmNq9u2-22" value="" style="shape=image;verticalLabelPosition=bottom;verticalAlign=top;imageAspect=0;aspect=fixed;image=data:image/svg+xml,PHN2ZyB4bWxucz0iaHR0cDovL3d3dy53My5vcmcvMjAwMC9zdmciIGZpbGw9Im5vbmUiIHZpZXdCb3g9IjAgMCAyOCAyOCIgaGVpZ2h0PSIyOCIgd2lkdGg9IjI4Ij4mI3hhOzxnIGNsaXAtcGF0aD0idXJsKCNjbGlwMF84NzBfMjE4KSI+JiN4YTs8cGF0aCBmaWxsPSJ1cmwoI3BhaW50MF9saW5lYXJfODcwXzIxOCkiIGQ9Ik0yMy43ODkyIDEuNzIzM0MyNC45OTE0IDEuNzIzMyAyNS45OTQxIDIuMTI1NzkgMjYuNzk3MyAyLjkyNzI2QzI3LjU5ODggMy43Mjg3MyAyNy45OTk1IDQuNzI5NyAyNy45OTk1IDUuOTMzNjVWMjIuMDY2M0MyOC4wMDggMjIuNjIyNSAyNy45MDYgMjMuMTc0OCAyNy42OTkzIDIzLjY5MTJDMjcuNDkyNiAyNC4yMDc2IDI3LjE4NTQgMjQuNjc3OCAyNi43OTU2IDI1LjA3NDVDMjUuOTk0MSAyNS44NzU5IDI0Ljk5MzEgMjYuMjc2NyAyMy43ODkyIDI2LjI3NjdINC4yMTA4N0MzLjAwODY2IDI2LjI3NjcgMi4wMDU5NSAyNS44NzU5IDEuMjAyNzMgMjUuMDc0NUMwLjgxMzE2NCAyNC42Nzc2IDAuNTA2MjkyIDI0LjIwNzQgMC4yOTk5MTggMjMuNjkxQzAuMDkzNTQzNCAyMy4xNzQ2IC0wLjAwODIyNDU4IDIyLjYyMjQgMC4wMDA1MTkyMzEgMjIuMDY2M1Y1LjkzMzY1QzAuMDAwNTE5MjMxIDQuNzMxNDUgMC40MDMwMDUgMy43Mjg3MyAxLjIwNDQ4IDIuOTI1NTFDMi4wMDQyIDIuMTI1NzkgMy4wMDY5MSAxLjcyMzMgNC4yMDkxMiAxLjcyMzNIMjMuNzg5MlpNMi43ODk5MiA3LjMwMjFIMjUuMjEwMVY1LjkzMzY1QzI1LjIxMDEgNC45ODY5NCAyNC43Mzc2IDQuNTEyNyAyMy43ODkyIDQuNTEyN0g0LjIxMDg3QzMuODI4NiA0LjUwNTcyIDMuNDU3NjUgNC42NDI0OSAzLjE3MTQgNC44OTU5NEMyLjkxNzY2IDUuMTQ5NjggMi43ODk5MiA1LjQ5NjE3IDIuNzg5OTIgNS45MzM2NVY3LjMwMDM1VjcuMzAyMVpNMjUuMjEwMSAxMC4xNDU4SDIuNzg5OTJWMjIuMDY2M0MyLjc4OTkyIDIyLjQ2ODggMi45MTc2NiAyMi43OTYgMy4xNzE0IDIzLjA1MTVDMy40NTc5MSAyMy4zMDQ0IDMuODI4ODQgMjMuNDQwNSA0LjIxMDg3IDIzLjQzM0gyMy43ODkyQzI0LjczNTkgMjMuNDMzIDI1LjIxMDEgMjIuOTc4IDI1LjIxMDEgMjIuMDY2M1YxMC4xNDRWMTAuMTQ1OFoiLz4mI3hhOzwvZz4mI3hhOzxkZWZzPiYjeGE7PGxpbmVhckdyYWRpZW50IGdyYWRpZW50VW5pdHM9InVzZXJTcGFjZU9uVXNlIiB5Mj0iMTkuMzgyNiIgeDI9IjI2LjU3ODMiIHkxPSI0LjAzMjk5IiB4MT0iMy42MTg3NCIgaWQ9InBhaW50MF9saW5lYXJfODcwXzIxOCI+JiN4YTs8c3RvcCBzdG9wLWNvbG9yPSIjMjM5NUZGIi8+JiN4YTs8c3RvcCBzdG9wLWNvbG9yPSIjMDA1N0QyIiBvZmZzZXQ9IjEiLz4mI3hhOzwvbGluZWFyR3JhZGllbnQ+JiN4YTs8Y2xpcFBhdGggaWQ9ImNsaXAwXzg3MF8yMTgiPiYjeGE7PHJlY3QgZmlsbD0id2hpdGUiIGhlaWdodD0iMjgiIHdpZHRoPSIyOCIvPiYjeGE7PC9jbGlwUGF0aD4mI3hhOzwvZGVmcz4mI3hhOzwvc3ZnPg==" parent="1" vertex="1">
          <mxGeometry x="546.5" y="186" width="100" height="100" as="geometry" />
        </mxCell>
        <mxCell id="i0-r0BhkWRjA8PmNq9u2-30" value="" style="shape=image;verticalLabelPosition=bottom;verticalAlign=top;imageAspect=0;aspect=fixed;image=data:image/svg+xml,PHN2ZyB4bWxucz0iaHR0cDovL3d3dy53My5vcmcvMjAwMC9zdmciIGZpbGw9Im5vbmUiIHZpZXdCb3g9IjAgMCAyOCAyOCIgaGVpZ2h0PSIyOCIgd2lkdGg9IjI4Ij4mI3hhOzxnIGNsaXAtcGF0aD0idXJsKCNjbGlwMF84NzBfMjE4KSI+JiN4YTs8cGF0aCBmaWxsPSJ1cmwoI3BhaW50MF9saW5lYXJfODcwXzIxOCkiIGQ9Ik0yMy43ODkyIDEuNzIzM0MyNC45OTE0IDEuNzIzMyAyNS45OTQxIDIuMTI1NzkgMjYuNzk3MyAyLjkyNzI2QzI3LjU5ODggMy43Mjg3MyAyNy45OTk1IDQuNzI5NyAyNy45OTk1IDUuOTMzNjVWMjIuMDY2M0MyOC4wMDggMjIuNjIyNSAyNy45MDYgMjMuMTc0OCAyNy42OTkzIDIzLjY5MTJDMjcuNDkyNiAyNC4yMDc2IDI3LjE4NTQgMjQuNjc3OCAyNi43OTU2IDI1LjA3NDVDMjUuOTk0MSAyNS44NzU5IDI0Ljk5MzEgMjYuMjc2NyAyMy43ODkyIDI2LjI3NjdINC4yMTA4N0MzLjAwODY2IDI2LjI3NjcgMi4wMDU5NSAyNS44NzU5IDEuMjAyNzMgMjUuMDc0NUMwLjgxMzE2NCAyNC42Nzc2IDAuNTA2MjkyIDI0LjIwNzQgMC4yOTk5MTggMjMuNjkxQzAuMDkzNTQzNCAyMy4xNzQ2IC0wLjAwODIyNDU4IDIyLjYyMjQgMC4wMDA1MTkyMzEgMjIuMDY2M1Y1LjkzMzY1QzAuMDAwNTE5MjMxIDQuNzMxNDUgMC40MDMwMDUgMy43Mjg3MyAxLjIwNDQ4IDIuOTI1NTFDMi4wMDQyIDIuMTI1NzkgMy4wMDY5MSAxLjcyMzMgNC4yMDkxMiAxLjcyMzNIMjMuNzg5MlpNMi43ODk5MiA3LjMwMjFIMjUuMjEwMVY1LjkzMzY1QzI1LjIxMDEgNC45ODY5NCAyNC43Mzc2IDQuNTEyNyAyMy43ODkyIDQuNTEyN0g0LjIxMDg3QzMuODI4NiA0LjUwNTcyIDMuNDU3NjUgNC42NDI0OSAzLjE3MTQgNC44OTU5NEMyLjkxNzY2IDUuMTQ5NjggMi43ODk5MiA1LjQ5NjE3IDIuNzg5OTIgNS45MzM2NVY3LjMwMDM1VjcuMzAyMVpNMjUuMjEwMSAxMC4xNDU4SDIuNzg5OTJWMjIuMDY2M0MyLjc4OTkyIDIyLjQ2ODggMi45MTc2NiAyMi43OTYgMy4xNzE0IDIzLjA1MTVDMy40NTc5MSAyMy4zMDQ0IDMuODI4ODQgMjMuNDQwNSA0LjIxMDg3IDIzLjQzM0gyMy43ODkyQzI0LjczNTkgMjMuNDMzIDI1LjIxMDEgMjIuOTc4IDI1LjIxMDEgMjIuMDY2M1YxMC4xNDRWMTAuMTQ1OFoiLz4mI3hhOzwvZz4mI3hhOzxkZWZzPiYjeGE7PGxpbmVhckdyYWRpZW50IGdyYWRpZW50VW5pdHM9InVzZXJTcGFjZU9uVXNlIiB5Mj0iMTkuMzgyNiIgeDI9IjI2LjU3ODMiIHkxPSI0LjAzMjk5IiB4MT0iMy42MTg3NCIgaWQ9InBhaW50MF9saW5lYXJfODcwXzIxOCI+JiN4YTs8c3RvcCBzdG9wLWNvbG9yPSIjMjM5NUZGIi8+JiN4YTs8c3RvcCBzdG9wLWNvbG9yPSIjMDA1N0QyIiBvZmZzZXQ9IjEiLz4mI3hhOzwvbGluZWFyR3JhZGllbnQ+JiN4YTs8Y2xpcFBhdGggaWQ9ImNsaXAwXzg3MF8yMTgiPiYjeGE7PHJlY3QgZmlsbD0id2hpdGUiIGhlaWdodD0iMjgiIHdpZHRoPSIyOCIvPiYjeGE7PC9jbGlwUGF0aD4mI3hhOzwvZGVmcz4mI3hhOzwvc3ZnPg==" parent="1" vertex="1">
          <mxGeometry x="546.5" y="324" width="100" height="100" as="geometry" />
        </mxCell>
        <mxCell id="i0-r0BhkWRjA8PmNq9u2-32" value="QAL" style="rounded=1;whiteSpace=wrap;html=1;fillColor=#fff2cc;strokeColor=#d6b656;" parent="1" vertex="1">
          <mxGeometry x="561" y="373" width="73" height="20" as="geometry" />
        </mxCell>
        <mxCell id="i0-r0BhkWRjA8PmNq9u2-2" value="" style="group;arcSize=24;movable=1;resizable=1;rotatable=1;deletable=1;editable=1;locked=0;connectable=1;" parent="1" vertex="1" connectable="0">
          <mxGeometry x="-87" y="24" width="543" height="640" as="geometry" />
        </mxCell>
        <mxCell id="i0-r0BhkWRjA8PmNq9u2-3" value="&lt;p style=&quot;line-height: 100%; font-size: 15px;&quot;&gt;&lt;/p&gt;&lt;h1 style=&quot;font-size: 15px;&quot;&gt;&lt;b style=&quot;font-size: 15px;&quot;&gt;GLOBAL ACCOUNT&lt;/b&gt;&lt;/h1&gt;&lt;p style=&quot;font-size: 15px;&quot;&gt;&lt;/p&gt;" style="rounded=1;whiteSpace=wrap;html=1;strokeColor=#0070F2;fillColor=#EBF8FF;arcSize=24;absoluteArcSize=1;imageWidth=64;imageHeight=64;strokeWidth=1.5;verticalAlign=top;fontSize=15;align=left;spacing=2;" parent="i0-r0BhkWRjA8PmNq9u2-2" vertex="1">
          <mxGeometry x="-240" width="580" height="640" as="geometry" />
        </mxCell>
        <mxCell id="i0-r0BhkWRjA8PmNq9u2-4" value="" style="shape=image;verticalLabelPosition=bottom;labelBackgroundColor=default;verticalAlign=top;aspect=fixed;imageAspect=0;image=data:image/svg+xml,PHN2ZyB4bWxuczp4bGluaz0iaHR0cDovL3d3dy53My5vcmcvMTk5OS94bGluayIgeG1sbnM9Imh0dHA6Ly93d3cudzMub3JnLzIwMDAvc3ZnIiB2aWV3Qm94PSIwIDAgMTQ0Ljc0NyAzOS44MzIiIGlkPSJhIj48ZGVmcz48bGluZWFyR3JhZGllbnQgZ3JhZGllbnRVbml0cz0idXNlclNwYWNlT25Vc2UiIHkyPSIzOS44MzIiIHgyPSI0MC4yNTgiIHkxPSIwIiB4MT0iNDAuMjU4IiBpZD0iYiI+PHN0b3Agc3RvcC1jb2xvcj0iIzAwYjhmMSIgb2Zmc2V0PSIwIi8+PHN0b3Agc3RvcC1jb2xvcj0iIzAwYjVlZiIgb2Zmc2V0PSIuMDE2Ii8+PHN0b3Agc3RvcC1jb2xvcj0iIzBkOTBkOCIgb2Zmc2V0PSIuMzA4Ii8+PHN0b3Agc3RvcC1jb2xvcj0iIzE2NzVjOCIgb2Zmc2V0PSIuNTc4Ii8+PHN0b3Agc3RvcC1jb2xvcj0iIzFjNjRiZSIgb2Zmc2V0PSIuODE3Ii8+PHN0b3Agc3RvcC1jb2xvcj0iIzFlNWZiYiIgb2Zmc2V0PSIxIi8+PC9saW5lYXJHcmFkaWVudD48L2RlZnM+PHBvbHlsaW5lIGZpbGwtcnVsZT0iZXZlbm9kZCIgZmlsbD0idXJsKCNiKSIgcG9pbnRzPSIwIDM5LjgzMiA0MC42OTIgMzkuODMyIDgwLjUxNyAwIDAgMCAwIDM5LjgzMiIvPjxwYXRoIGZpbGwtcnVsZT0iZXZlbm9kZCIgZmlsbD0iI2ZmZiIgZD0ibTQ3Ljc4Miw3LjQ4OWwtNy45MjUtLjAwNXYxOC44NDVsLTYuOTI0LTE4Ljg0NWgtNi44NjVsLTUuOTEyLDE1Ljc1OWMtLjYzLTMuOTczLTQuNzQtNS4zNDUtNy45NzQtNi4zNzQtMi4xMzUtLjY4Ni00LjQwMS0xLjY5NC00LjM4LTIuODA5LjAxNy0uOTE1LDEuMjE1LTEuNzY1LDMuNTg5LTEuNjM3LDEuNTk1LjA4NCwzLjAwMS4yMTMsNS44LDEuNTYzbDIuNzUzLTQuNzk1Yy0yLjU1NS0xLjMtNi4wODYtMi4xMjEtOC45NzgtMi4xMjRoLS4wMTdjLTMuMzc0LDAtNi4xODUsMS4wOTMtNy45MjgsMi44OTQtMS4yMTQsMS4yNTgtMS44NjksMi44NTYtMS44OTYsNC42MjMtLjA0NCwyLjQzMi44NDgsNC4xNTcsMi43MjEsNS41MzMsMS41ODMsMS4xNiwzLjYwNiwxLjkxMiw1LjM5LDIuNDY1LDIuMjAxLjY4MSwzLjk5NiwxLjI3NCwzLjk3NSwyLjUzOS0uMDE2LjQ1OS0uMTkxLjg4OC0uNTIxLDEuMjM2LS41NDguNTY2LTEuMzkxLjc3OS0yLjU1NS43OTktMi4yNDQuMDQ4LTMuOTEtLjMwMy02LjU2Mi0xLjg3bC0yLjQ0OCw0Ljg2MWMyLjY0NCwxLjUwNiw1Ljc3NiwyLjM4OCw4Ljk3MiwyLjM4OGwuNDExLS4wMDZjMi43ODItLjA1LDUuMDI2LS44NDIsNi44Mi0yLjI4Ni4xMDMtLjA4MS4xOTYtLjE2Ni4yOTEtLjI1bC0uNzk1LDIuMTIzaDcuMmwxLjIwOC0zLjY3NGMxLjI2NS40MzMsMi43MDQuNjcxLDQuMjMyLjY3MSwxLjQ4NywwLDIuODg5LS4yMjksNC4xMzEtLjYzNWwxLjE2NCwzLjYzN2gxMS43NDJ2LTcuNjA3aDIuNTYxYzYuMTg4LDAsOS44NTEtMy4xNTQsOS44NTEtOC40MzYsMC01Ljg4NS0zLjU1Ny04LjU4NS0xMS4xMzItOC41ODVabS0xOC4zMTcsMTYuMTI0Yy0uOTI1LDAtMS43OTItLjE2LTIuNTM5LS40NDNsMi41MTItNy45MjZoLjA0OGwyLjQ2OCw3Ljk0OGMtLjc0Mi4yNjMtMS41ODkuNDIxLTIuNDg4LjQyMVptMTguNzgzLTQuNTUzaC0xLjc0NnYtNi4zODZoMS43NDZjMi4zMjgsMCw0LjE4NS43NzMsNC4xODUsMy4xNTEsMCwyLjQ2MS0xLjg1NywzLjIzNi00LjE4NSwzLjIzNiIvPjxwYXRoIGZpbGw9IiMwMDJhODYiIGQ9Im04MC4yMTcsNy40MDFoMTAuMDYzYzUuNTk1LDAsOC42NzQsMS45MTcsOC42NzQsNi4xNTgsMCwyLjkwMy0xLjUxMyw1LjAxNC00LjMxMSw1LjcsMy4yOS40NTgsNS4yNzgsMi41ODYsNS4yNzgsNS44OTQsMCw1LjAxNC00LjA2NCw3LjAzNy05LjE4NCw3LjAzN2gtMTAuNTIxVjcuNDAxWm0xMy45NjksNi44MjZjMC0yLjE2NC0xLjQ5Ni0yLjk3My00LjI0LTIuOTczaC01LjA0OXY2LjI5OGg0Ljg5MWMzLjIwMiwwLDQuMzk4LTEuMTYxLDQuMzk4LTMuMzI1Wm0xLjAyMSwxMC41MjFjMC0yLjM1Ny0xLjc3Ny0zLjQ2Ni00LjgzOS0zLjQ2NmgtNS40NzF2Ny4wNTVoNS41MDZjMi44MTUsMCw0LjgwNC0uNzc0LDQuODA0LTMuNTg5WiIvPjxwYXRoIGZpbGw9IiMwMDJhODYiIGQ9Im0xMDkuMDUxLDExLjVoLTcuNTgzdi00LjA5OWgxOS44NDZ2NC4wOTloLTcuNTY1djIwLjY5aC00LjY5N1YxMS41WiIvPjxwYXRoIGZpbGw9IiMwMDJhODYiIGQ9Im0xMjUuMTQ4LDcuNDAxaDEwLjUwNGM2LjE5MiwwLDkuMDk2LDMuMTg1LDkuMDk2LDcuODk5LDAsNC4zOTgtMi44MzMsOC4xNDYtOC44NSw4LjE0NmgtNi4wN3Y4Ljc0NGgtNC42OFY3LjQwMVptMTQuOTAyLDcuOTUyYzAtMi41NTEtMS42ODktMy45MjMtNC45NDQtMy45MjNoLTUuMjc4djguMDRoNS40MTljMy4yNzIsMCw0LjgwNC0xLjU4Myw0LjgwNC00LjExN1oiLz48L3N2Zz4=;strokeWidth=1.5;" parent="i0-r0BhkWRjA8PmNq9u2-2" vertex="1">
          <mxGeometry x="253.5475043327556" y="19.823529411764707" width="70.89897033336732" height="19.555265572433477" as="geometry" />
        </mxCell>
        <mxCell id="i0-r0BhkWRjA8PmNq9u2-13" value="&lt;font style=&quot;font-size: 16px;&quot;&gt;&lt;b&gt;SubAccount QAL&lt;/b&gt;&lt;/font&gt;" style="rounded=1;whiteSpace=wrap;html=1;strokeColor=#0070F2;strokeWidth=1.5;arcSize=24;fillColor=#FFFFFF;perimeterSpacing=0;absoluteArcSize=1;align=left;verticalAlign=top;fontSize=15;" parent="i0-r0BhkWRjA8PmNq9u2-2" vertex="1">
          <mxGeometry x="-210" y="305.71" width="360" height="141.29" as="geometry" />
        </mxCell>
        <mxCell id="i0-r0BhkWRjA8PmNq9u2-34" value="&lt;font style=&quot;font-size: 16px;&quot;&gt;&lt;b&gt;&lt;font face=&quot;arial&quot; style=&quot;color: rgb(29, 45, 62); text-wrap-mode: nowrap;&quot;&gt;SubAccount&amp;nbsp;&lt;/font&gt;&lt;span style=&quot;font-family: arial; color: rgb(29, 45, 62); text-wrap-mode: nowrap; background-color: initial;&quot;&gt;DEV&lt;/span&gt;&lt;/b&gt;&lt;/font&gt;" style="rounded=1;whiteSpace=wrap;html=1;strokeColor=#0070F2;strokeWidth=1.5;arcSize=24;fillColor=#FFFFFF;perimeterSpacing=0;absoluteArcSize=1;verticalAlign=top;align=left;" parent="i0-r0BhkWRjA8PmNq9u2-2" vertex="1">
          <mxGeometry x="-210" y="40" width="357" height="250" as="geometry" />
        </mxCell>
        <mxCell id="i0-r0BhkWRjA8PmNq9u2-51" value="SAP Connectivity&#xa;Service" style="shape=image;verticalLabelPosition=bottom;verticalAlign=top;imageAspect=0;aspect=fixed;image=data:image/svg+xml,PHN2ZyB4bWxucz0iaHR0cDovL3d3dy53My5vcmcvMjAwMC9zdmciIGZpbGw9Im5vbmUiIHZpZXdCb3g9IjAgMCAxNiAxNiIgaGVpZ2h0PSIxNiIgd2lkdGg9IjE2Ij4mI3hhOzxjaXJjbGUgc3Ryb2tlLXdpZHRoPSIwLjI4NTcwOCIgc3Ryb2tlPSIjRDVEQUREIiBmaWxsPSJ1cmwoI3BhaW50MF9saW5lYXJfMzUxNF80MDIwMikiIHI9IjcuODU2OTYiIGN5PSI3Ljk5OTA4IiBjeD0iNy45OTkzMyIvPiYjeGE7PGcgY2xpcC1wYXRoPSJ1cmwoI2NsaXAwXzM1MTRfNDAyMDIpIj4mI3hhOzxwYXRoIGZpbGw9InVybCgjcGFpbnQxX2xpbmVhcl8zNTE0XzQwMjAyKSIgZD0iTTguNTgyOTIgNC4xMTQ3NEM4LjU4MjkyIDMuODM4NiA4LjgwNjc4IDMuNjE0NzUgOS4wODI5MiAzLjYxNDc1SDEwLjYyNjRDMTEuNTkyOSAzLjYxNDc1IDEyLjM3NjQgNC4zOTgyNSAxMi4zNzY0IDUuMzY0NzRWNi42OTM5NUMxMi4zNzY0IDYuOTcwMSAxMi4xNTI1IDcuMTkzOTUgMTEuODc2NCA3LjE5Mzk1QzExLjYwMDIgNy4xOTM5NSAxMS4zNzY0IDYuOTcwMSAxMS4zNzY0IDYuNjkzOTVWNS4zNjQ3NEMxMS4zNzY0IDQuOTUwNTMgMTEuMDQwNiA0LjYxNDc0IDEwLjYyNjQgNC42MTQ3NEg5LjA4MjkyQzguODA2NzggNC42MTQ3NCA4LjU4MjkyIDQuMzkwODkgOC41ODI5MiA0LjExNDc0Wk00LjEyMTU4IDguNTMzMjRDNC4zOTc3MiA4LjUzMzI0IDQuNjIxNTggOC43NTcxIDQuNjIxNTggOS4wMzMyNFYxMC42MjgxQzQuNjIxNTggMTEuMDQyMyA0Ljk1NzM2IDExLjM3ODEgNS4zNzE1OCAxMS4zNzgxSDcuMDY5MjVDNy4zNDUzOSAxMS4zNzgxIDcuNTY5MjUgMTEuNjAxOSA3LjU2OTI1IDExLjg3ODFDNy41NjkyNSAxMi4xNTQyIDcuMzQ1MzkgMTIuMzc4MSA3LjA2OTI1IDEyLjM3ODFINS4zNzE1OEM0LjQwNTA4IDEyLjM3ODEgMy42MjE1OCAxMS41OTQ2IDMuNjIxNTggMTAuNjI4MVY5LjAzMzI0QzMuNjIxNTggOC43NTcxIDMuODQ1NDQgOC41MzMyNCA0LjEyMTU4IDguNTMzMjRaIiBjbGlwLXJ1bGU9ImV2ZW5vZGQiIGZpbGwtcnVsZT0iZXZlbm9kZCIvPiYjeGE7PHBhdGggZmlsbD0idXJsKCNwYWludDJfbGluZWFyXzM1MTRfNDAyMDIpIiBkPSJNMTIuODQzMiAxMS45MzI4QzEyLjk0NzQgMTIuMDM3IDEyLjk5OTUgMTIuMTQ3NyAxMi45OTk1IDEyLjI2NDlDMTIuOTk5NSAxMi4zOTUxIDEyLjk0NzQgMTIuNTEyMyAxMi44NDMyIDEyLjYxNjRDMTIuNzM5MSAxMi43MjA2IDEyLjYyMTkgMTIuNzcyNyAxMi40OTE3IDEyLjc3MjdDMTIuMzc0NSAxMi43NzI3IDEyLjI2MzggMTIuNzIwNiAxMi4xNTk2IDEyLjYxNjRMMTAuNzcyOSAxMS4yMjk3QzEwLjM2OTMgMTEuNTgxMyA5LjkxMzU2IDExLjc1MDYgOS40MDU3NSAxMS43Mzc1QzguODk3OTQgMTEuNzExNSA4LjQ1NTI0IDExLjUwOTcgOC4wNzc2MyAxMS4xMzIxTDcuNjI4NDIgMTAuNjgyOEM3LjUyNDI1IDEwLjU3ODcgNy40NzIxNyAxMC40NjggNy40NzIxNyAxMC4zNTA4QzcuNDcyMTcgMTAuMjIwNiA3LjUyNDI1IDEwLjEwMzQgNy42Mjg0MiA5Ljk5OTI2TDEwLjE2NzUgNy40NjAyQzEwLjI3MTYgNy4zNTYwNCAxMC4zODg4IDcuMzAzOTYgMTAuNTE5IDcuMzAzOTZDMTAuNjQ5MiA3LjMwMzk2IDEwLjc2NjQgNy4zNTYwNCAxMC44NzA2IDcuNDYwMkwxMS4zMTk4IDcuOTA5NDJDMTEuNjk3NCA4LjI4NzAyIDExLjg5MjcgOC43MjMyMiAxMS45MDU3IDkuMjE4MDFDMTEuOTMxOCA5LjY5OTc4IDExLjc4MiAxMC4xMzYgMTEuNDU2NSAxMC41MjY2TDEyLjg0MzIgMTEuOTMyOFoiIGNsaXAtcnVsZT0iZXZlbm9kZCIgZmlsbC1ydWxlPSJldmVub2RkIi8+JiN4YTs8cGF0aCBmaWxsPSJ1cmwoI3BhaW50M19saW5lYXJfMzUxNF80MDIwMikiIGQ9Ik03LjcxNTE4IDguNzA0MDZDNy42MTEwMSA4LjgwODIzIDcuNDkzODIgOC44NjAzMSA3LjM2MzYxIDguODYwMzFDNy4yNDY0MiA4Ljg2MDMxIDcuMTM1NzUgOC44MDgyMyA3LjAzMTU4IDguNzA0MDZMNi4xMzMxNCA3LjgwNTYzTDUuNzQyNTIgOC4xOTYyNUM1LjYzODM1IDguMzAwNDIgNS41MjExNiA4LjM1MjUgNS4zOTA5NSA4LjM1MjVDNS4yNDc3MyA4LjM1MjUgNS4xMzA1NCA4LjMwMDQyIDUuMDM5MzkgOC4xOTYyNUw0LjU5MDE3IDcuNzY2NTdDNC4yMTI1NyA3LjM4ODk2IDQuMDEwNzUgNi45NTkyOCAzLjk4NDcgNi40Nzc1MUMzLjk1ODY2IDUuOTgyNzIgNC4wOTUzOCA1LjUzMzUgNC4zOTQ4NiA1LjEyOTg2TDMuMTU1NzYgMy44NTgzOUMzLjA1MTYgMy43NTQyMyAyLjk5OTUxIDMuNjM3MDQgMi45OTk1MSAzLjUwNjgzQzIuOTk5NTEgMy4zNzY2MyAzLjA1MTYgMy4yNTk0NCAzLjE1NTc2IDMuMTU1MjdDMy4yNTk5MyAzLjA1MTExIDMuMzcwNjEgMi45OTkwMiAzLjQ4Nzc5IDIuOTk5MDJDMy42MTggMi45OTkwMiAzLjczNTE5IDMuMDUxMTEgMy44MzkzNiAzLjE1NTI3TDUuMDc4NDUgNC40MjY3NEM1LjQ4MjEgNC4xMDEyMiA1LjkzNzgzIDMuOTUxNDggNi40NDU2NCAzLjk3NzUyQzYuOTUzNDYgNC4wMDM1NiA3LjM5NjE2IDQuMjA1MzggNy43NzM3NyA0LjU4Mjk5TDguMjIyOTkgNS4wMzIyQzguMzE0MTMgNS4xMjMzNSA4LjM1OTcxIDUuMjQwNTMgOC4zNTk3MSA1LjM4Mzc2QzguMzU5NzEgNS41MTM5NyA4LjMxNDEzIDUuNjI0NjUgOC4yMjI5OSA1LjcxNTc5TDcuODEyODMgNi4xMjU5NUw4LjcxMTI3IDcuMDA0ODVDOC44MTU0NCA3LjEwOTAyIDguODY3NTIgNy4yMjYyIDguODY3NTIgNy4zNTY0MUM4Ljg2NzUyIDcuNDg2NjIgOC44MTU0NCA3LjYwMzgxIDguNzExMjcgNy43MDc5N0M4LjYwNzEgNy44MTIxNCA4LjQ4OTkyIDcuODY0MjIgOC4zNTk3MSA3Ljg2NDIyQzguMjI5NSA3Ljg2NDIyIDguMTEyMzEgNy44MTIxNCA4LjAwODE0IDcuNzA3OTdMNy4xMjkyNCA2LjgwOTU0TDYuODE2NzQgNy4xMjIwNEw3LjI2NTk2IDcuNTYxNDlMNy43MTUxOCA4LjAwMDk0QzcuODE5MzQgOC4xMDUxMSA3Ljg3MTQzIDguMjIyMjkgNy44NzE0MyA4LjM1MjVDNy44NzE0MyA4LjQ4MjcxIDcuODE5MzQgOC41OTk5IDcuNzE1MTggOC43MDQwNloiLz4mI3hhOzwvZz4mI3hhOzxkZWZzPiYjeGE7PGxpbmVhckdyYWRpZW50IGdyYWRpZW50VW5pdHM9InVzZXJTcGFjZU9uVXNlIiB5Mj0iMTQuNzQ3IiB4Mj0iMTMuNjg3NCIgeTE9IjIuMjcwMTYiIHgxPSIxLjQ1MDQzIiBpZD0icGFpbnQwX2xpbmVhcl8zNTE0XzQwMjAyIj4mI3hhOzxzdG9wIHN0b3AtY29sb3I9IndoaXRlIi8+JiN4YTs8c3RvcCBzdG9wLWNvbG9yPSIjRUFFQ0VFIiBvZmZzZXQ9IjEiLz4mI3hhOzwvbGluZWFyR3JhZGllbnQ+JiN4YTs8bGluZWFyR3JhZGllbnQgZ3JhZGllbnRVbml0cz0idXNlclNwYWNlT25Vc2UiIHkyPSIxMS4wNTc0IiB4Mj0iMTEuMDciIHkxPSI0LjkyNTI1IiB4MT0iNC45MzM5NiIgaWQ9InBhaW50MV9saW5lYXJfMzUxNF80MDIwMiI+JiN4YTs8c3RvcCBzdG9wLWNvbG9yPSIjMDE5NUZGIi8+JiN4YTs8c3RvcCBzdG9wLWNvbG9yPSIjMTE0N0U5IiBvZmZzZXQ9IjAuOTkxMDI4Ii8+JiN4YTs8L2xpbmVhckdyYWRpZW50PiYjeGE7PGxpbmVhckdyYWRpZW50IGdyYWRpZW50VW5pdHM9InVzZXJTcGFjZU9uVXNlIiB5Mj0iMTEuOTkxOCIgeDI9IjEyLjEyODQiIHkxPSI4LjEyNDQ0IiB4MT0iOC4yOTkzOCIgaWQ9InBhaW50Ml9saW5lYXJfMzUxNF80MDIwMiI+JiN4YTs8c3RvcCBzdG9wLWNvbG9yPSIjMDBCQkZGIi8+JiN4YTs8c3RvcCBzdG9wLWNvbG9yPSIjMDA4QkZGIiBvZmZzZXQ9IjEiLz4mI3hhOzwvbGluZWFyR3JhZGllbnQ+JiN4YTs8bGluZWFyR3JhZGllbnQgZ3JhZGllbnRVbml0cz0idXNlclNwYWNlT25Vc2UiIHkyPSI3Ljk4NTcxIiB4Mj0iNy45NjkwMiIgeTE9IjMuODYxMzQiIHgxPSIzLjg2NzA2IiBpZD0icGFpbnQzX2xpbmVhcl8zNTE0XzQwMjAyIj4mI3hhOzxzdG9wIHN0b3AtY29sb3I9IiMxMzQ4RkYiLz4mI3hhOzxzdG9wIHN0b3AtY29sb3I9IiMwNjIzOEQiIG9mZnNldD0iMSIvPiYjeGE7PC9saW5lYXJHcmFkaWVudD4mI3hhOzxjbGlwUGF0aCBpZD0iY2xpcDBfMzUxNF80MDIwMiI+JiN4YTs8cmVjdCB0cmFuc2Zvcm09InRyYW5zbGF0ZSgyLjk5OTI3IDIuOTk5MDIpIiBmaWxsPSJ3aGl0ZSIgaGVpZ2h0PSI5Ljk5OTk2IiB3aWR0aD0iOS45OTk5NiIvPiYjeGE7PC9jbGlwUGF0aD4mI3hhOzwvZGVmcz4mI3hhOzwvc3ZnPg==;points=[[0,0,0,0,0],[0,0.25,0,0,0],[0,0.5,0,0,0],[0,0.75,0,0,0],[0.25,0,0,0,0],[0.5,0,0,0,0],[0.75,0,0,0,0],[1,0,0,0,0],[1,0.25,0,0,0],[1,0.5,0,0,0],[1,0.75,0,0,0]];fontStyle=0;fontSize=12;fontColor=#1D2D3E;container=0;" parent="i0-r0BhkWRjA8PmNq9u2-2" vertex="1">
          <mxGeometry x="261" y="322" width="56" height="56" as="geometry" />
        </mxCell>
        <mxCell id="i0-r0BhkWRjA8PmNq9u2-52" value="" style="edgeStyle=none;orthogonalLoop=1;jettySize=auto;html=1;rounded=0;endArrow=none;endFill=0;strokeWidth=2;" parent="i0-r0BhkWRjA8PmNq9u2-2" edge="1">
          <mxGeometry width="80" relative="1" as="geometry">
            <mxPoint x="391" as="sourcePoint" />
            <mxPoint x="391" y="640" as="targetPoint" />
            <Array as="points" />
          </mxGeometry>
        </mxCell>
        <mxCell id="i0-r0BhkWRjA8PmNq9u2-55" value="&lt;p style=&quot;line-height: 114%;&quot;&gt;&lt;font color=&quot;#475f75&quot; size=&quot;1&quot;&gt;&lt;b style=&quot;&quot;&gt;TRUST&lt;/b&gt;&lt;/font&gt;&lt;/p&gt;" style="rounded=1;whiteSpace=wrap;html=1;arcSize=50;strokeColor=#475f75;fillColor=#f5f6f7;fontColor=#266f3a;strokeWidth=1.5;" parent="i0-r0BhkWRjA8PmNq9u2-2" vertex="1">
          <mxGeometry x="374.14" y="342" width="41.99" height="16" as="geometry" />
        </mxCell>
        <mxCell id="i0-r0BhkWRjA8PmNq9u2-56" value="" style="endArrow=none;html=1;rounded=0;entryX=0;entryY=0.5;entryDx=0;entryDy=0;strokeColor=#475f75;strokeWidth=1.5;exitX=1;exitY=0.5;exitDx=0;exitDy=0;exitPerimeter=0;" parent="i0-r0BhkWRjA8PmNq9u2-2" source="i0-r0BhkWRjA8PmNq9u2-51" target="i0-r0BhkWRjA8PmNq9u2-55" edge="1">
          <mxGeometry width="50" height="50" relative="1" as="geometry">
            <mxPoint x="270.14" y="329.99999999999955" as="sourcePoint" />
            <mxPoint x="394.14" y="340" as="targetPoint" />
          </mxGeometry>
        </mxCell>
        <mxCell id="i0-r0BhkWRjA8PmNq9u2-59" style="edgeStyle=orthogonalEdgeStyle;rounded=0;orthogonalLoop=1;jettySize=auto;html=1;entryX=0;entryY=0.5;entryDx=0;entryDy=0;entryPerimeter=0;strokeColor=#A3A3A3;strokeWidth=2;endArrow=none;endFill=0;exitX=1;exitY=0.5;exitDx=0;exitDy=0;exitPerimeter=0;" parent="i0-r0BhkWRjA8PmNq9u2-2" source="wNo7IlQ1gwdrVZ6y7zte-6" target="i0-r0BhkWRjA8PmNq9u2-51" edge="1">
          <mxGeometry relative="1" as="geometry">
            <Array as="points">
              <mxPoint x="237" y="173" />
              <mxPoint x="237" y="350" />
            </Array>
            <mxPoint x="146.59058823529404" y="231.5894117647058" as="sourcePoint" />
          </mxGeometry>
        </mxCell>
        <mxCell id="i0-r0BhkWRjA8PmNq9u2-60" style="edgeStyle=orthogonalEdgeStyle;rounded=0;orthogonalLoop=1;jettySize=auto;html=1;exitX=1;exitY=0.5;exitDx=0;exitDy=0;exitPerimeter=0;entryX=0;entryY=0.5;entryDx=0;entryDy=0;entryPerimeter=0;strokeColor=#A3A3A3;strokeWidth=2;endArrow=none;endFill=0;" parent="i0-r0BhkWRjA8PmNq9u2-2" target="i0-r0BhkWRjA8PmNq9u2-51" edge="1" source="wNo7IlQ1gwdrVZ6y7zte-14">
          <mxGeometry relative="1" as="geometry">
            <mxPoint x="135.71058823529393" y="474.29176470588254" as="sourcePoint" />
            <mxPoint x="271" y="360" as="targetPoint" />
            <Array as="points">
              <mxPoint x="237" y="374" />
              <mxPoint x="237" y="350" />
            </Array>
          </mxGeometry>
        </mxCell>
        <mxCell id="wNo7IlQ1gwdrVZ6y7zte-5" value="Business Application &#xa;Studio" style="shape=image;verticalLabelPosition=bottom;verticalAlign=top;imageAspect=0;aspect=fixed;image=data:image/svg+xml,PHN2ZyB4bWxucz0iaHR0cDovL3d3dy53My5vcmcvMjAwMC9zdmciIGZpbGw9Im5vbmUiIHZpZXdCb3g9IjAgMCA0OSA0OSIgaGVpZ2h0PSI0OSIgd2lkdGg9IjQ5Ij4mI3hhOzxjaXJjbGUgc3Ryb2tlLXdpZHRoPSIwLjg1NzE0MyIgc3Ryb2tlPSIjRDVEQUREIiBmaWxsPSJ1cmwoI3BhaW50MF9saW5lYXJfMjYyMl8zMDQwKSIgcj0iMjMuNTcxNCIgY3k9IjI0LjAzNDkiIGN4PSIyNC41Ii8+JiN4YTs8ZyBjbGlwLXBhdGg9InVybCgjY2xpcDBfMjYyMl8zMDQwKSI+JiN4YTs8cGF0aCBmaWxsPSJ1cmwoI3BhaW50MV9yYWRpYWxfMjYyMl8zMDQwKSIgZD0iTTEyLjMzODQgMjMuOTI0MUgxMi4zMzYxTDEyLjU3NzIgMjEuMjY4NUwxMi42MDggMjAuOTEzNkwxMi45MzM2IDIwLjc0OTlMMjAuMjcyMSAxNy4wNzY4TDIwLjYxMzQgMTYuOTA0NkwyMC45MzYgMTcuMTAyNkwyMy4xMzc0IDE4LjQ0NTNMMTIuMzM4NCAyMy45MjQxWk0yNi44NDI0IDIwLjcyNEwxMy4wNzU2IDI3LjYxNDZMMTIgMjguMTU0NkwxMi4yMjAxIDI1LjY1NjZMMTIuMjUxNiAyNS4zMDU2TDEyLjU3NDggMjUuMTM5NkwyNC4yNzgyIDE5LjE1NTJMMjQuNjA1NSAxOS4zNTMyTDI2Ljg0MjQgMjAuNzI0Wk0yNC4yMjIzIDI3LjgxMTVMMjUuMjc0MSAyOC4zOTM3TDI2LjQ3MjYgMjkuMDYwOEwyNi43ODg5IDI5LjIzNTJMMzguNTMwMSAyMy4zNjQ0TDM4Ljg3MzEgMjMuMTkyMkwzOC44OTEyIDIyLjgxOTlMMzguOTUxMiAyMS4zODQ5TDM5LjAwMDEgMjAuMjYzOUwyNC4yMjIzIDI3LjgxMTVaTTI4LjAwNzggMjkuOTUzNUwzNy43OTUyIDI1LjAyMzdMMzguODIxOSAyNC41MDUxTDM4Ljc3MDYgMjUuNjIzOUwzOC43MDgzIDI3LjAxNjFMMzguNjkyNiAyNy4zODYyTDM4LjM1NDIgMjcuNTU4NEwzMC43MjM0IDMxLjQ1NTlMMzAuNDA0OCAzMS4yNzkzTDI5LjA2ODMgMzAuNTQxM0wyOC4wMDc4IDI5Ljk1MzVaIiBjbGlwLXJ1bGU9ImV2ZW5vZGQiIGZpbGwtcnVsZT0iZXZlbm9kZCIvPiYjeGE7PHBhdGggZmlsbD0idXJsKCNwYWludDJfcmFkaWFsXzI2MjJfMzA0MCkiIGQ9Ik0yNC42Mzg3IDEwLjU0MzNMMjQuNjIzNSAxMC41MzQ5VjExLjcwNzdMMjQuNjEwMSAxMy4wNDQyVjEzLjM5NDdMMzUuNjU2IDIwLjQxMjRMMzUuOTgxNiAyMC42MjczTDM2LjMyNjkgMjAuNDU3NEwzOC42ODYxIDE5LjI5OThMMjQuNjM4NyAxMC41NDMzWiIvPiYjeGE7PHBhdGggZmlsbD0idXJsKCNwYWludDNfcmFkaWFsXzI2MjJfMzA0MCkiIGQ9Ik0xOS4xNjczIDI2LjIwMjhMMTguODQ4OCAyNi4wMjQ1TDE4LjUyMzIgMjYuMTg4MkwxNi4wNzI2IDI3LjQxNjdMMTcuMTMwOCAyOC4wMDYyTDI2LjY0MjEgMzMuMjg3VjMwLjQwMzZMMjYuMzEwMiAzMC4yMTYzTDE5LjE2NzMgMjYuMjAyOFoiLz4mI3hhOzxwYXRoIGZpbGw9InVybCgjcGFpbnQ0X3JhZGlhbF8yNjIyXzMwNDApIiBkPSJNMjQuNTU5IDE0Ljc4NTFIMjQuNTQ3OVYxNS45NjY0TDI0LjUzNDUgMTcuNDUzVjE3LjgwODVMMjQuODQzOCAxNy45OTk4TDMxLjc4NjIgMjIuMzM2MUwzMi4xMDcxIDIyLjUzNThMMzIuNDUwMSAyMi4zNjgyTDMzLjczNzggMjEuNzMzN0wzNC43NzE1IDIxLjIyNzRMMjQuNTU5IDE0Ljc4NTFaIi8+JiN4YTs8cGF0aCBmaWxsPSJ1cmwoI3BhaW50NV9yYWRpYWxfMjYyMl8zMDQwKSIgZD0iTTE1LjEzNjYgMjguMjYyMUwxNC44MjA0IDI4LjA4ODNMMTQuNDk3MiAyOC4yNDkyTDEyLjE5MzkgMjkuNDA5MUwxMi4xOTE2IDI5LjQxMzZMMjUuNjM2OCAzNi45NzEzTDI2LjY0MiAzNy41MzQ5VjM0LjYwMzhMMjYuMzA1NCAzNC40MTkzTDE1LjEzNjYgMjguMjYyMVoiLz4mI3hhOzwvZz4mI3hhOzxkZWZzPiYjeGE7PGxpbmVhckdyYWRpZW50IGdyYWRpZW50VW5pdHM9InVzZXJTcGFjZU9uVXNlIiB5Mj0iNDQuMjc5MiIgeDI9IjQxLjU2NDUiIHkxPSI2Ljg0Nzc1IiB4MT0iNC44NTI4NyIgaWQ9InBhaW50MF9saW5lYXJfMjYyMl8zMDQwIj4mI3hhOzxzdG9wIHN0b3AtY29sb3I9IndoaXRlIi8+JiN4YTs8c3RvcCBzdG9wLWNvbG9yPSIjRUFFQ0VFIiBvZmZzZXQ9IjEiLz4mI3hhOzwvbGluZWFyR3JhZGllbnQ+JiN4YTs8cmFkaWFsR3JhZGllbnQgZ3JhZGllbnRUcmFuc2Zvcm09InRyYW5zbGF0ZSgxNi4xODA5IDE0LjU5NjYpIHJvdGF0ZSg0NSkgc2NhbGUoMjYuNTk3OSAyNC4yMzc2KSIgZ3JhZGllbnRVbml0cz0idXNlclNwYWNlT25Vc2UiIHI9IjEiIGN5PSIwIiBjeD0iMCIgaWQ9InBhaW50MV9yYWRpYWxfMjYyMl8zMDQwIj4mI3hhOzxzdG9wIHN0b3AtY29sb3I9IiMxMzQ4RkYiLz4mI3hhOzxzdG9wIHN0b3AtY29sb3I9IiMwNjIzOEQiIG9mZnNldD0iMSIvPiYjeGE7PC9yYWRpYWxHcmFkaWVudD4mI3hhOzxyYWRpYWxHcmFkaWVudCBncmFkaWVudFRyYW5zZm9ybT0idHJhbnNsYXRlKDE2LjE4NyAxNC40OTkzKSByb3RhdGUoNDUuMzE4KSBzY2FsZSgyNi41ODQ0IDUwLjIyOTIpIiBncmFkaWVudFVuaXRzPSJ1c2VyU3BhY2VPblVzZSIgcj0iMSIgY3k9IjAiIGN4PSIwIiBpZD0icGFpbnQyX3JhZGlhbF8yNjIyXzMwNDAiPiYjeGE7PHN0b3Agc3RvcC1jb2xvcj0iIzAxOTVGRiIvPiYjeGE7PHN0b3Agc3RvcC1jb2xvcj0iIzExNDdFOSIgb2Zmc2V0PSIxIi8+JiN4YTs8L3JhZGlhbEdyYWRpZW50PiYjeGE7PHJhZGlhbEdyYWRpZW50IGdyYWRpZW50VHJhbnNmb3JtPSJ0cmFuc2xhdGUoMTYuMTg3IDE0LjQ5OTMpIHJvdGF0ZSg0NS4zMTgpIHNjYWxlKDI2LjU4NDQgNTAuMjI5MikiIGdyYWRpZW50VW5pdHM9InVzZXJTcGFjZU9uVXNlIiByPSIxIiBjeT0iMCIgY3g9IjAiIGlkPSJwYWludDNfcmFkaWFsXzI2MjJfMzA0MCI+JiN4YTs8c3RvcCBzdG9wLWNvbG9yPSIjMDE5NUZGIi8+JiN4YTs8c3RvcCBzdG9wLWNvbG9yPSIjMTE0N0U5IiBvZmZzZXQ9IjEiLz4mI3hhOzwvcmFkaWFsR3JhZGllbnQ+JiN4YTs8cmFkaWFsR3JhZGllbnQgZ3JhZGllbnRUcmFuc2Zvcm09InRyYW5zbGF0ZSgxNi4xODcgMTQuNDk5Mykgcm90YXRlKDQ1LjMxOCkgc2NhbGUoMjYuNTg0NCA1MC4yMjkyKSIgZ3JhZGllbnRVbml0cz0idXNlclNwYWNlT25Vc2UiIHI9IjEiIGN5PSIwIiBjeD0iMCIgaWQ9InBhaW50NF9yYWRpYWxfMjYyMl8zMDQwIj4mI3hhOzxzdG9wIHN0b3AtY29sb3I9IiMwMTk1RkYiLz4mI3hhOzxzdG9wIHN0b3AtY29sb3I9IiMxMTQ3RTkiIG9mZnNldD0iMSIvPiYjeGE7PC9yYWRpYWxHcmFkaWVudD4mI3hhOzxyYWRpYWxHcmFkaWVudCBncmFkaWVudFRyYW5zZm9ybT0idHJhbnNsYXRlKDE2LjE4NyAxNC40OTkzKSByb3RhdGUoNDUuMzE4KSBzY2FsZSgyNi41ODQ0IDUwLjIyOTIpIiBncmFkaWVudFVuaXRzPSJ1c2VyU3BhY2VPblVzZSIgcj0iMSIgY3k9IjAiIGN4PSIwIiBpZD0icGFpbnQ1X3JhZGlhbF8yNjIyXzMwNDAiPiYjeGE7PHN0b3Agc3RvcC1jb2xvcj0iIzAxOTVGRiIvPiYjeGE7PHN0b3Agc3RvcC1jb2xvcj0iIzExNDdFOSIgb2Zmc2V0PSIxIi8+JiN4YTs8L3JhZGlhbEdyYWRpZW50PiYjeGE7PGNsaXBQYXRoIGlkPSJjbGlwMF8yNjIyXzMwNDAiPiYjeGE7PHJlY3QgdHJhbnNmb3JtPSJ0cmFuc2xhdGUoMTIgMTAuNTM0OSkiIGZpbGw9IndoaXRlIiBoZWlnaHQ9IjI3IiB3aWR0aD0iMjciLz4mI3hhOzwvY2xpcFBhdGg+JiN4YTs8L2RlZnM+JiN4YTs8L3N2Zz4=;points=[[0,0,0,0,0],[0,0.25,0,0,0],[0,0.5,0,0,0],[0,0.75,0,0,0],[0.25,0,0,0,0],[0.5,0,0,0,0],[0.75,0,0,0,0],[1,0,0,0,0],[1,0.25,0,0,0],[1,0.5,0,0,0],[1,0.75,0,0,0]];fontStyle=0;fontSize=12;fontColor=#1D2D3E;" parent="i0-r0BhkWRjA8PmNq9u2-2" vertex="1">
          <mxGeometry x="38.5" y="47" width="53" height="53" as="geometry" />
        </mxCell>
        <mxCell id="wNo7IlQ1gwdrVZ6y7zte-6" value="SAP Build Work Zone -&#xa;Standard Edition" style="shape=image;verticalLabelPosition=bottom;verticalAlign=top;aspect=fixed;imageAspect=0;image=data:image/svg+xml,PHN2ZyB4bWxucz0iaHR0cDovL3d3dy53My5vcmcvMjAwMC9zdmciIGZpbGw9Im5vbmUiIHZpZXdCb3g9IjAgMCAxNiAxNiIgaGVpZ2h0PSIxNiIgd2lkdGg9IjE2Ij4mI3hhOzxnIGNsaXAtcGF0aD0idXJsKCNjbGlwMF8zMTA2XzI3MTAxKSI+JiN4YTs8Y2lyY2xlIHN0cm9rZS13aWR0aD0iMC4yNzM4MDkiIHN0cm9rZT0iI0Q1REFERCIgZmlsbD0idXJsKCNwYWludDBfbGluZWFyXzMxMDZfMjcxMDEpIiByPSI3LjUyOTc0IiBjeT0iNy45OTk4OSIgY3g9IjcuOTk4OTIiLz4mI3hhOzxnIGNsaXAtcGF0aD0idXJsKCNjbGlwMV8zMTA2XzI3MTAxKSI+JiN4YTs8bWFzayBoZWlnaHQ9IjEzIiB3aWR0aD0iMTIiIHk9IjIiIHg9IjIiIG1hc2tVbml0cz0idXNlclNwYWNlT25Vc2UiIHN0eWxlPSJtYXNrLXR5cGU6YWxwaGEiIGlkPSJtYXNrMF8zMTA2XzI3MTAxIj4mI3hhOzxwYXRoIGZpbGw9ImJsYWNrIiBkPSJNOC40MjExOCAxMC43MzMzQzguNjQxMDYgMTEuMzUyNCA5LjI4Njc1IDExLjcwNDcgMTAuMDEwNSAxMS43MDQ3QzEwLjczNDIgMTEuNzA0NyAxMS4zNDY4IDExLjE3OTEgMTEuNTE5NyAxMC43MDdMMTIuODg3NyA2LjkzODQ5QzEzLjE2MDEgNi4xODgwNCAxMi43NzQyIDUuMzU4MjQgMTIuMDI1OCA1LjA4NTFDMTEuMzM3NCA0LjgzMzg5IDEwLjU4MjIgNS4xNDEgMTAuMjUzNCA1Ljc3NTcyQzEwLjIwMTEgNS44OTQwOSAxMC4xNDc1IDYuMDcyMTYgMTAuMjExNiA2LjI2MTc3TDEwLjg5OTYgOC4xNjUzMUMxMC45MzQxIDguMjYwNzUgMTAuODg5NSA4LjM2NjczIDEwLjc5NzIgOC40MDg0NUMxMC42ODMzIDguNDU5OTMgMTAuNTQ2OCA4LjM5MjYzIDEwLjUxNjggOC4yNzEwNkMxMC4yOTc0IDcuMzgyODcgOS41NjI3OCA2LjgxNjE3IDguNjU0NiA3LjE1MDYzQzcuNzQ2NDIgNy40ODUxIDcuNTU1MjEgOC4zNDc3MiA3LjgyNzYzIDkuMDk4MThMOC40MjExOCAxMC43MzMzWiIvPiYjeGE7PHBhdGggZmlsbD0iYmxhY2siIGQ9Ik0zLjQ3MjEzIDYuOTMyNDVDMy4xOTk3MiA2LjE4MTk5IDMuNTg1NjIgNS4zNTIyIDQuMzM0MDYgNS4wNzkwNkM1LjA4MjUxIDQuODA1OTEgNS45MTAwOCA1LjE5Mjg1IDYuMTgyNSA1Ljk0MzMxTDcuNTQ5NzQgOS43MDk4MkM3LjgyMjE1IDEwLjQ2MDMgNy40MzYyNiAxMS4yOTAxIDYuNjg3ODEgMTEuNTYzMkM1LjkzOTM2IDExLjgzNjQgNS4xMTE3OSAxMS40NDk0IDQuODM5MzcgMTAuNjk5TDMuNDcyMTMgNi45MzI0NVoiLz4mI3hhOzwvbWFzaz4mI3hhOzxnIG1hc2s9InVybCgjbWFzazBfMzEwNl8yNzEwMSkiPiYjeGE7PGcgZmlsdGVyPSJ1cmwoI2ZpbHRlcjBfZF8zMTA2XzI3MTAxKSI+JiN4YTs8cGF0aCBmaWxsPSJ1cmwoI3BhaW50MV9yYWRpYWxfMzEwNl8yNzEwMSkiIGQ9Ik02LjYzNDM0IDAuODcxOTU0QzguNjcyNDkgMC4yOTI4MzUgMTEuMDgyMyAxLjI5MTgzIDEyLjU1MTQgMy45Mzg4NEMxNi4zMzM1IDkuMDE5NDkgMTkuNzUzNyAxNC45MTk2IDExLjk2MDkgMTcuNjc2OEM0LjE2ODEzIDIwLjQzNCA0LjM1MDY3IDE0Ljc3ODIgMS43NTIyNSAxMC4wOTY0Qy0wLjg0NjE2NyA1LjQxNDU1IDQuNTk2MTkgMS40NTEwNyA2LjYzNDM0IDAuODcxOTU0WiIvPiYjeGE7PC9nPiYjeGE7PGcgZmlsdGVyPSJ1cmwoI2ZpbHRlcjFfZF8zMTA2XzI3MTAxKSI+JiN4YTs8cGF0aCBmaWxsPSJ1cmwoI3BhaW50Ml9yYWRpYWxfMzEwNl8yNzEwMSkiIGQ9Ik0xMi42NTQyIDEwLjI3OThDMTEuODQ2MiAxMi4wMTA3IDkuNTMyOTggMTQuMDk2MSA3Ljk2MzgxIDE0LjIzNTdDNC43NDYwMyAxNC45MzE0IC0wLjI2MjI1NSAxMS43NDczIDAuMTY2MTEgOS41ODQ4MUMwLjU5NDQ3NSA3LjQyMjM3IDQuNjY1NjUgNi4zNjU5OSA3LjQ1MjY5IDYuMzg5OTNDMTAuMjM5NyA2LjQxMzg4IDEzLjQ2MjEgOC41NDg5NSAxMi42NTQyIDEwLjI3OThaIi8+JiN4YTs8L2c+JiN4YTs8ZyBmaWx0ZXI9InVybCgjZmlsdGVyMl9kXzMxMDZfMjcxMDEpIj4mI3hhOzxwYXRoIGZpbGw9InVybCgjcGFpbnQzX3JhZGlhbF8zMTA2XzI3MTAxKSIgZD0iTTMuMzUzNjEgOC4zOTkzNkM2Ljk2MjAxIDcuNDQ1NTcgMTAuMTEwOSA3LjMwNjg2IDEwLjQ4NjcgMTAuNjg5NkMxMC43OTE3IDEzLjQzNDkgNi45NTY4IDE1LjY1NzggNC4yMTE0NyAxNS45NjI4QzEuNDY2MTQgMTYuMjY3OCAtMC4xMDIyOTYgOS4zMTI4NCAzLjM1MzYxIDguMzk5MzZaIi8+JiN4YTs8L2c+JiN4YTs8L2c+JiN4YTs8L2c+JiN4YTs8L2c+JiN4YTs8ZGVmcz4mI3hhOzxmaWx0ZXIgY29sb3ItaW50ZXJwb2xhdGlvbi1maWx0ZXJzPSJzUkdCIiBmaWx0ZXJVbml0cz0idXNlclNwYWNlT25Vc2UiIGhlaWdodD0iMTkuMDM1MiIgd2lkdGg9IjE2Ljk0MTQiIHk9IjAuMDg1MTI1NCIgeD0iMC42MTQ4MjkiIGlkPSJmaWx0ZXIwX2RfMzEwNl8yNzEwMSI+JiN4YTs8ZmVGbG9vZCByZXN1bHQ9IkJhY2tncm91bmRJbWFnZUZpeCIgZmxvb2Qtb3BhY2l0eT0iMCIvPiYjeGE7PGZlQ29sb3JNYXRyaXggcmVzdWx0PSJoYXJkQWxwaGEiIHZhbHVlcz0iMCAwIDAgMCAwIDAgMCAwIDAgMCAwIDAgMCAwIDAgMCAwIDAgMTI3IDAiIHR5cGU9Im1hdHJpeCIgaW49IlNvdXJjZUFscGhhIi8+JiN4YTs8ZmVPZmZzZXQgZHk9IjAuMDQ0ODQwNCIgZHg9IjAuMjI0MjAyIi8+JiN4YTs8ZmVHYXVzc2lhbkJsdXIgc3RkRGV2aWF0aW9uPSIwLjMzNjMwMyIvPiYjeGE7PGZlQ29tcG9zaXRlIG9wZXJhdG9yPSJvdXQiIGluMj0iaGFyZEFscGhhIi8+JiN4YTs8ZmVDb2xvck1hdHJpeCB2YWx1ZXM9IjAgMCAwIDAgMCAwIDAgMCAwIDAgMCAwIDAgMCAwIDAgMCAwIDAuNCAwIiB0eXBlPSJtYXRyaXgiLz4mI3hhOzxmZUJsZW5kIHJlc3VsdD0iZWZmZWN0MV9kcm9wU2hhZG93XzMxMDZfMjcxMDEiIGluMj0iQmFja2dyb3VuZEltYWdlRml4IiBtb2RlPSJub3JtYWwiLz4mI3hhOzxmZUJsZW5kIHJlc3VsdD0ic2hhcGUiIGluMj0iZWZmZWN0MV9kcm9wU2hhZG93XzMxMDZfMjcxMDEiIGluPSJTb3VyY2VHcmFwaGljIiBtb2RlPSJub3JtYWwiLz4mI3hhOzwvZmlsdGVyPiYjeGE7PGZpbHRlciBjb2xvci1pbnRlcnBvbGF0aW9uLWZpbHRlcnM9InNSR0IiIGZpbHRlclVuaXRzPSJ1c2VyU3BhY2VPblVzZSIgaGVpZ2h0PSI5LjI4ODU3IiB3aWR0aD0iMTMuOTg1MyIgeT0iNS43NjE4OCIgeD0iLTAuMzA4MDIzIiBpZD0iZmlsdGVyMV9kXzMxMDZfMjcxMDEiPiYjeGE7PGZlRmxvb2QgcmVzdWx0PSJCYWNrZ3JvdW5kSW1hZ2VGaXgiIGZsb29kLW9wYWNpdHk9IjAiLz4mI3hhOzxmZUNvbG9yTWF0cml4IHJlc3VsdD0iaGFyZEFscGhhIiB2YWx1ZXM9IjAgMCAwIDAgMCAwIDAgMCAwIDAgMCAwIDAgMCAwIDAgMCAwIDEyNyAwIiB0eXBlPSJtYXRyaXgiIGluPSJTb3VyY2VBbHBoYSIvPiYjeGE7PGZlT2Zmc2V0IGR5PSIwLjA0NDg0MDQiIGR4PSIwLjIyNDIwMiIvPiYjeGE7PGZlR2F1c3NpYW5CbHVyIHN0ZERldmlhdGlvbj0iMC4zMzYzMDMiLz4mI3hhOzxmZUNvbXBvc2l0ZSBvcGVyYXRvcj0ib3V0IiBpbjI9ImhhcmRBbHBoYSIvPiYjeGE7PGZlQ29sb3JNYXRyaXggdmFsdWVzPSIwIDAgMCAwIDAgMCAwIDAgMCAwIDAgMCAwIDAgMCAwIDAgMCAwLjQgMCIgdHlwZT0ibWF0cml4Ii8+JiN4YTs8ZmVCbGVuZCByZXN1bHQ9ImVmZmVjdDFfZHJvcFNoYWRvd18zMTA2XzI3MTAxIiBpbjI9IkJhY2tncm91bmRJbWFnZUZpeCIgbW9kZT0ibm9ybWFsIi8+JiN4YTs8ZmVCbGVuZCByZXN1bHQ9InNoYXBlIiBpbjI9ImVmZmVjdDFfZHJvcFNoYWRvd18zMTA2XzI3MTAxIiBpbj0iU291cmNlR3JhcGhpYyIgbW9kZT0ibm9ybWFsIi8+JiN4YTs8L2ZpbHRlcj4mI3hhOzxmaWx0ZXIgY29sb3ItaW50ZXJwb2xhdGlvbi1maWx0ZXJzPSJzUkdCIiBmaWx0ZXJVbml0cz0idXNlclNwYWNlT25Vc2UiIGhlaWdodD0iOS41MDUzNyIgd2lkdGg9IjEwLjQ3NzgiIHk9IjcuMTg0NDkiIHg9IjAuOTIyOTM0IiBpZD0iZmlsdGVyMl9kXzMxMDZfMjcxMDEiPiYjeGE7PGZlRmxvb2QgcmVzdWx0PSJCYWNrZ3JvdW5kSW1hZ2VGaXgiIGZsb29kLW9wYWNpdHk9IjAiLz4mI3hhOzxmZUNvbG9yTWF0cml4IHJlc3VsdD0iaGFyZEFscGhhIiB2YWx1ZXM9IjAgMCAwIDAgMCAwIDAgMCAwIDAgMCAwIDAgMCAwIDAgMCAwIDEyNyAwIiB0eXBlPSJtYXRyaXgiIGluPSJTb3VyY2VBbHBoYSIvPiYjeGE7PGZlT2Zmc2V0IGR5PSIwLjA0NDg0MDQiIGR4PSIwLjIyNDIwMiIvPiYjeGE7PGZlR2F1c3NpYW5CbHVyIHN0ZERldmlhdGlvbj0iMC4zMzYzMDMiLz4mI3hhOzxmZUNvbXBvc2l0ZSBvcGVyYXRvcj0ib3V0IiBpbjI9ImhhcmRBbHBoYSIvPiYjeGE7PGZlQ29sb3JNYXRyaXggdmFsdWVzPSIwIDAgMCAwIDAgMCAwIDAgMCAwIDAgMCAwIDAgMCAwIDAgMCAwLjQgMCIgdHlwZT0ibWF0cml4Ii8+JiN4YTs8ZmVCbGVuZCByZXN1bHQ9ImVmZmVjdDFfZHJvcFNoYWRvd18zMTA2XzI3MTAxIiBpbjI9IkJhY2tncm91bmRJbWFnZUZpeCIgbW9kZT0ibm9ybWFsIi8+JiN4YTs8ZmVCbGVuZCByZXN1bHQ9InNoYXBlIiBpbjI9ImVmZmVjdDFfZHJvcFNoYWRvd18zMTA2XzI3MTAxIiBpbj0iU291cmNlR3JhcGhpYyIgbW9kZT0ibm9ybWFsIi8+JiN4YTs8L2ZpbHRlcj4mI3hhOzxsaW5lYXJHcmFkaWVudCBncmFkaWVudFVuaXRzPSJ1c2VyU3BhY2VPblVzZSIgeTI9IjE0LjQ2NjgiIHgyPSIxMy40NTAxIiB5MT0iMi41MDk1NyIgeDE9IjEuNzIyNzciIGlkPSJwYWludDBfbGluZWFyXzMxMDZfMjcxMDEiPiYjeGE7PHN0b3Agc3RvcC1jb2xvcj0id2hpdGUiLz4mI3hhOzxzdG9wIHN0b3AtY29sb3I9IiNFQUVDRUUiIG9mZnNldD0iMSIvPiYjeGE7PC9saW5lYXJHcmFkaWVudD4mI3hhOzxyYWRpYWxHcmFkaWVudCBncmFkaWVudFRyYW5zZm9ybT0idHJhbnNsYXRlKDcuMTQyMiAxMC41MTEzKSByb3RhdGUoLTc1LjY1MTMpIHNjYWxlKDE1Ljk3MDUgMTUuNzQ5OCkiIGdyYWRpZW50VW5pdHM9InVzZXJTcGFjZU9uVXNlIiByPSIxIiBjeT0iMCIgY3g9IjAiIGlkPSJwYWludDFfcmFkaWFsXzMxMDZfMjcxMDEiPiYjeGE7PHN0b3Agc3RvcC1jb2xvcj0iIzEzNDhGRiIvPiYjeGE7PHN0b3Agc3RvcC1jb2xvcj0iIzA2MjM4RCIgb2Zmc2V0PSIxIi8+JiN4YTs8L3JhZGlhbEdyYWRpZW50PiYjeGE7PHJhZGlhbEdyYWRpZW50IGdyYWRpZW50VHJhbnNmb3JtPSJ0cmFuc2xhdGUoMy4xOTI5OSA3LjMwMjE1KSByb3RhdGUoMzEuOTgpIHNjYWxlKDE1LjI2ODUgMjcuNTc2KSIgZ3JhZGllbnRVbml0cz0idXNlclNwYWNlT25Vc2UiIHI9IjEiIGN5PSIwIiBjeD0iMCIgaWQ9InBhaW50Ml9yYWRpYWxfMzEwNl8yNzEwMSI+JiN4YTs8c3RvcCBzdG9wLWNvbG9yPSIjMDE5NUZGIi8+JiN4YTs8c3RvcCBzdG9wLWNvbG9yPSIjMTE0N0U5IiBvZmZzZXQ9IjEiLz4mI3hhOzwvcmFkaWFsR3JhZGllbnQ+JiN4YTs8cmFkaWFsR3JhZGllbnQgZ3JhZGllbnRUcmFuc2Zvcm09InRyYW5zbGF0ZSgzLjg2NDM3IDE1LjI1NDIpIHJvdGF0ZSgtNDYuOTU3OSkgc2NhbGUoMTEuNzY0NCAxNi4xODIpIiBncmFkaWVudFVuaXRzPSJ1c2VyU3BhY2VPblVzZSIgcj0iMSIgY3k9IjAiIGN4PSIwIiBpZD0icGFpbnQzX3JhZGlhbF8zMTA2XzI3MTAxIj4mI3hhOzxzdG9wIHN0b3AtY29sb3I9IiMwMEJCRkYiLz4mI3hhOzxzdG9wIHN0b3AtY29sb3I9IiMwMDhCRkYiIG9mZnNldD0iMSIvPiYjeGE7PC9yYWRpYWxHcmFkaWVudD4mI3hhOzxjbGlwUGF0aCBpZD0iY2xpcDBfMzEwNl8yNzEwMSI+JiN4YTs8cmVjdCB0cmFuc2Zvcm09InRyYW5zbGF0ZSgtMC4wMDA5NzY1NjIpIiBmaWxsPSJ3aGl0ZSIgaGVpZ2h0PSIxNS45OTk5IiB3aWR0aD0iMTUuOTk5OSIvPiYjeGE7PC9jbGlwUGF0aD4mI3hhOzxjbGlwUGF0aCBpZD0iY2xpcDFfMzEwNl8yNzEwMSI+JiN4YTs8cmVjdCB0cmFuc2Zvcm09InRyYW5zbGF0ZSgzLjMzMjI4IDMuNSkiIGZpbGw9IndoaXRlIiBoZWlnaHQ9IjkuNjY2NjQiIHdpZHRoPSI5LjY2NjY0Ii8+JiN4YTs8L2NsaXBQYXRoPiYjeGE7PC9kZWZzPiYjeGE7PC9zdmc+;points=[[0,0,0,0,0],[0,0.25,0,0,0],[0,0.5,0,0,0],[0,0.75,0,0,0],[0.25,0,0,0,0],[0.5,0,0,0,0],[0.75,0,0,0,0],[1,0,0,0,0],[1,0.25,0,0,0],[1,0.5,0,0,0],[1,0.75,0,0,0]];container=0;fontStyle=0;fontSize=12;fontColor=#1D2D3E;" parent="i0-r0BhkWRjA8PmNq9u2-2" vertex="1">
          <mxGeometry x="42" y="148" width="50" height="50" as="geometry" />
        </mxCell>
        <mxCell id="wNo7IlQ1gwdrVZ6y7zte-14" value="SAP Build Work Zone -&#xa;Standard Edition" style="shape=image;verticalLabelPosition=bottom;verticalAlign=top;aspect=fixed;imageAspect=0;image=data:image/svg+xml,PHN2ZyB4bWxucz0iaHR0cDovL3d3dy53My5vcmcvMjAwMC9zdmciIGZpbGw9Im5vbmUiIHZpZXdCb3g9IjAgMCAxNiAxNiIgaGVpZ2h0PSIxNiIgd2lkdGg9IjE2Ij4mI3hhOzxnIGNsaXAtcGF0aD0idXJsKCNjbGlwMF8zMTA2XzI3MTAxKSI+JiN4YTs8Y2lyY2xlIHN0cm9rZS13aWR0aD0iMC4yNzM4MDkiIHN0cm9rZT0iI0Q1REFERCIgZmlsbD0idXJsKCNwYWludDBfbGluZWFyXzMxMDZfMjcxMDEpIiByPSI3LjUyOTc0IiBjeT0iNy45OTk4OSIgY3g9IjcuOTk4OTIiLz4mI3hhOzxnIGNsaXAtcGF0aD0idXJsKCNjbGlwMV8zMTA2XzI3MTAxKSI+JiN4YTs8bWFzayBoZWlnaHQ9IjEzIiB3aWR0aD0iMTIiIHk9IjIiIHg9IjIiIG1hc2tVbml0cz0idXNlclNwYWNlT25Vc2UiIHN0eWxlPSJtYXNrLXR5cGU6YWxwaGEiIGlkPSJtYXNrMF8zMTA2XzI3MTAxIj4mI3hhOzxwYXRoIGZpbGw9ImJsYWNrIiBkPSJNOC40MjExOCAxMC43MzMzQzguNjQxMDYgMTEuMzUyNCA5LjI4Njc1IDExLjcwNDcgMTAuMDEwNSAxMS43MDQ3QzEwLjczNDIgMTEuNzA0NyAxMS4zNDY4IDExLjE3OTEgMTEuNTE5NyAxMC43MDdMMTIuODg3NyA2LjkzODQ5QzEzLjE2MDEgNi4xODgwNCAxMi43NzQyIDUuMzU4MjQgMTIuMDI1OCA1LjA4NTFDMTEuMzM3NCA0LjgzMzg5IDEwLjU4MjIgNS4xNDEgMTAuMjUzNCA1Ljc3NTcyQzEwLjIwMTEgNS44OTQwOSAxMC4xNDc1IDYuMDcyMTYgMTAuMjExNiA2LjI2MTc3TDEwLjg5OTYgOC4xNjUzMUMxMC45MzQxIDguMjYwNzUgMTAuODg5NSA4LjM2NjczIDEwLjc5NzIgOC40MDg0NUMxMC42ODMzIDguNDU5OTMgMTAuNTQ2OCA4LjM5MjYzIDEwLjUxNjggOC4yNzEwNkMxMC4yOTc0IDcuMzgyODcgOS41NjI3OCA2LjgxNjE3IDguNjU0NiA3LjE1MDYzQzcuNzQ2NDIgNy40ODUxIDcuNTU1MjEgOC4zNDc3MiA3LjgyNzYzIDkuMDk4MThMOC40MjExOCAxMC43MzMzWiIvPiYjeGE7PHBhdGggZmlsbD0iYmxhY2siIGQ9Ik0zLjQ3MjEzIDYuOTMyNDVDMy4xOTk3MiA2LjE4MTk5IDMuNTg1NjIgNS4zNTIyIDQuMzM0MDYgNS4wNzkwNkM1LjA4MjUxIDQuODA1OTEgNS45MTAwOCA1LjE5Mjg1IDYuMTgyNSA1Ljk0MzMxTDcuNTQ5NzQgOS43MDk4MkM3LjgyMjE1IDEwLjQ2MDMgNy40MzYyNiAxMS4yOTAxIDYuNjg3ODEgMTEuNTYzMkM1LjkzOTM2IDExLjgzNjQgNS4xMTE3OSAxMS40NDk0IDQuODM5MzcgMTAuNjk5TDMuNDcyMTMgNi45MzI0NVoiLz4mI3hhOzwvbWFzaz4mI3hhOzxnIG1hc2s9InVybCgjbWFzazBfMzEwNl8yNzEwMSkiPiYjeGE7PGcgZmlsdGVyPSJ1cmwoI2ZpbHRlcjBfZF8zMTA2XzI3MTAxKSI+JiN4YTs8cGF0aCBmaWxsPSJ1cmwoI3BhaW50MV9yYWRpYWxfMzEwNl8yNzEwMSkiIGQ9Ik02LjYzNDM0IDAuODcxOTU0QzguNjcyNDkgMC4yOTI4MzUgMTEuMDgyMyAxLjI5MTgzIDEyLjU1MTQgMy45Mzg4NEMxNi4zMzM1IDkuMDE5NDkgMTkuNzUzNyAxNC45MTk2IDExLjk2MDkgMTcuNjc2OEM0LjE2ODEzIDIwLjQzNCA0LjM1MDY3IDE0Ljc3ODIgMS43NTIyNSAxMC4wOTY0Qy0wLjg0NjE2NyA1LjQxNDU1IDQuNTk2MTkgMS40NTEwNyA2LjYzNDM0IDAuODcxOTU0WiIvPiYjeGE7PC9nPiYjeGE7PGcgZmlsdGVyPSJ1cmwoI2ZpbHRlcjFfZF8zMTA2XzI3MTAxKSI+JiN4YTs8cGF0aCBmaWxsPSJ1cmwoI3BhaW50Ml9yYWRpYWxfMzEwNl8yNzEwMSkiIGQ9Ik0xMi42NTQyIDEwLjI3OThDMTEuODQ2MiAxMi4wMTA3IDkuNTMyOTggMTQuMDk2MSA3Ljk2MzgxIDE0LjIzNTdDNC43NDYwMyAxNC45MzE0IC0wLjI2MjI1NSAxMS43NDczIDAuMTY2MTEgOS41ODQ4MUMwLjU5NDQ3NSA3LjQyMjM3IDQuNjY1NjUgNi4zNjU5OSA3LjQ1MjY5IDYuMzg5OTNDMTAuMjM5NyA2LjQxMzg4IDEzLjQ2MjEgOC41NDg5NSAxMi42NTQyIDEwLjI3OThaIi8+JiN4YTs8L2c+JiN4YTs8ZyBmaWx0ZXI9InVybCgjZmlsdGVyMl9kXzMxMDZfMjcxMDEpIj4mI3hhOzxwYXRoIGZpbGw9InVybCgjcGFpbnQzX3JhZGlhbF8zMTA2XzI3MTAxKSIgZD0iTTMuMzUzNjEgOC4zOTkzNkM2Ljk2MjAxIDcuNDQ1NTcgMTAuMTEwOSA3LjMwNjg2IDEwLjQ4NjcgMTAuNjg5NkMxMC43OTE3IDEzLjQzNDkgNi45NTY4IDE1LjY1NzggNC4yMTE0NyAxNS45NjI4QzEuNDY2MTQgMTYuMjY3OCAtMC4xMDIyOTYgOS4zMTI4NCAzLjM1MzYxIDguMzk5MzZaIi8+JiN4YTs8L2c+JiN4YTs8L2c+JiN4YTs8L2c+JiN4YTs8L2c+JiN4YTs8ZGVmcz4mI3hhOzxmaWx0ZXIgY29sb3ItaW50ZXJwb2xhdGlvbi1maWx0ZXJzPSJzUkdCIiBmaWx0ZXJVbml0cz0idXNlclNwYWNlT25Vc2UiIGhlaWdodD0iMTkuMDM1MiIgd2lkdGg9IjE2Ljk0MTQiIHk9IjAuMDg1MTI1NCIgeD0iMC42MTQ4MjkiIGlkPSJmaWx0ZXIwX2RfMzEwNl8yNzEwMSI+JiN4YTs8ZmVGbG9vZCByZXN1bHQ9IkJhY2tncm91bmRJbWFnZUZpeCIgZmxvb2Qtb3BhY2l0eT0iMCIvPiYjeGE7PGZlQ29sb3JNYXRyaXggcmVzdWx0PSJoYXJkQWxwaGEiIHZhbHVlcz0iMCAwIDAgMCAwIDAgMCAwIDAgMCAwIDAgMCAwIDAgMCAwIDAgMTI3IDAiIHR5cGU9Im1hdHJpeCIgaW49IlNvdXJjZUFscGhhIi8+JiN4YTs8ZmVPZmZzZXQgZHk9IjAuMDQ0ODQwNCIgZHg9IjAuMjI0MjAyIi8+JiN4YTs8ZmVHYXVzc2lhbkJsdXIgc3RkRGV2aWF0aW9uPSIwLjMzNjMwMyIvPiYjeGE7PGZlQ29tcG9zaXRlIG9wZXJhdG9yPSJvdXQiIGluMj0iaGFyZEFscGhhIi8+JiN4YTs8ZmVDb2xvck1hdHJpeCB2YWx1ZXM9IjAgMCAwIDAgMCAwIDAgMCAwIDAgMCAwIDAgMCAwIDAgMCAwIDAuNCAwIiB0eXBlPSJtYXRyaXgiLz4mI3hhOzxmZUJsZW5kIHJlc3VsdD0iZWZmZWN0MV9kcm9wU2hhZG93XzMxMDZfMjcxMDEiIGluMj0iQmFja2dyb3VuZEltYWdlRml4IiBtb2RlPSJub3JtYWwiLz4mI3hhOzxmZUJsZW5kIHJlc3VsdD0ic2hhcGUiIGluMj0iZWZmZWN0MV9kcm9wU2hhZG93XzMxMDZfMjcxMDEiIGluPSJTb3VyY2VHcmFwaGljIiBtb2RlPSJub3JtYWwiLz4mI3hhOzwvZmlsdGVyPiYjeGE7PGZpbHRlciBjb2xvci1pbnRlcnBvbGF0aW9uLWZpbHRlcnM9InNSR0IiIGZpbHRlclVuaXRzPSJ1c2VyU3BhY2VPblVzZSIgaGVpZ2h0PSI5LjI4ODU3IiB3aWR0aD0iMTMuOTg1MyIgeT0iNS43NjE4OCIgeD0iLTAuMzA4MDIzIiBpZD0iZmlsdGVyMV9kXzMxMDZfMjcxMDEiPiYjeGE7PGZlRmxvb2QgcmVzdWx0PSJCYWNrZ3JvdW5kSW1hZ2VGaXgiIGZsb29kLW9wYWNpdHk9IjAiLz4mI3hhOzxmZUNvbG9yTWF0cml4IHJlc3VsdD0iaGFyZEFscGhhIiB2YWx1ZXM9IjAgMCAwIDAgMCAwIDAgMCAwIDAgMCAwIDAgMCAwIDAgMCAwIDEyNyAwIiB0eXBlPSJtYXRyaXgiIGluPSJTb3VyY2VBbHBoYSIvPiYjeGE7PGZlT2Zmc2V0IGR5PSIwLjA0NDg0MDQiIGR4PSIwLjIyNDIwMiIvPiYjeGE7PGZlR2F1c3NpYW5CbHVyIHN0ZERldmlhdGlvbj0iMC4zMzYzMDMiLz4mI3hhOzxmZUNvbXBvc2l0ZSBvcGVyYXRvcj0ib3V0IiBpbjI9ImhhcmRBbHBoYSIvPiYjeGE7PGZlQ29sb3JNYXRyaXggdmFsdWVzPSIwIDAgMCAwIDAgMCAwIDAgMCAwIDAgMCAwIDAgMCAwIDAgMCAwLjQgMCIgdHlwZT0ibWF0cml4Ii8+JiN4YTs8ZmVCbGVuZCByZXN1bHQ9ImVmZmVjdDFfZHJvcFNoYWRvd18zMTA2XzI3MTAxIiBpbjI9IkJhY2tncm91bmRJbWFnZUZpeCIgbW9kZT0ibm9ybWFsIi8+JiN4YTs8ZmVCbGVuZCByZXN1bHQ9InNoYXBlIiBpbjI9ImVmZmVjdDFfZHJvcFNoYWRvd18zMTA2XzI3MTAxIiBpbj0iU291cmNlR3JhcGhpYyIgbW9kZT0ibm9ybWFsIi8+JiN4YTs8L2ZpbHRlcj4mI3hhOzxmaWx0ZXIgY29sb3ItaW50ZXJwb2xhdGlvbi1maWx0ZXJzPSJzUkdCIiBmaWx0ZXJVbml0cz0idXNlclNwYWNlT25Vc2UiIGhlaWdodD0iOS41MDUzNyIgd2lkdGg9IjEwLjQ3NzgiIHk9IjcuMTg0NDkiIHg9IjAuOTIyOTM0IiBpZD0iZmlsdGVyMl9kXzMxMDZfMjcxMDEiPiYjeGE7PGZlRmxvb2QgcmVzdWx0PSJCYWNrZ3JvdW5kSW1hZ2VGaXgiIGZsb29kLW9wYWNpdHk9IjAiLz4mI3hhOzxmZUNvbG9yTWF0cml4IHJlc3VsdD0iaGFyZEFscGhhIiB2YWx1ZXM9IjAgMCAwIDAgMCAwIDAgMCAwIDAgMCAwIDAgMCAwIDAgMCAwIDEyNyAwIiB0eXBlPSJtYXRyaXgiIGluPSJTb3VyY2VBbHBoYSIvPiYjeGE7PGZlT2Zmc2V0IGR5PSIwLjA0NDg0MDQiIGR4PSIwLjIyNDIwMiIvPiYjeGE7PGZlR2F1c3NpYW5CbHVyIHN0ZERldmlhdGlvbj0iMC4zMzYzMDMiLz4mI3hhOzxmZUNvbXBvc2l0ZSBvcGVyYXRvcj0ib3V0IiBpbjI9ImhhcmRBbHBoYSIvPiYjeGE7PGZlQ29sb3JNYXRyaXggdmFsdWVzPSIwIDAgMCAwIDAgMCAwIDAgMCAwIDAgMCAwIDAgMCAwIDAgMCAwLjQgMCIgdHlwZT0ibWF0cml4Ii8+JiN4YTs8ZmVCbGVuZCByZXN1bHQ9ImVmZmVjdDFfZHJvcFNoYWRvd18zMTA2XzI3MTAxIiBpbjI9IkJhY2tncm91bmRJbWFnZUZpeCIgbW9kZT0ibm9ybWFsIi8+JiN4YTs8ZmVCbGVuZCByZXN1bHQ9InNoYXBlIiBpbjI9ImVmZmVjdDFfZHJvcFNoYWRvd18zMTA2XzI3MTAxIiBpbj0iU291cmNlR3JhcGhpYyIgbW9kZT0ibm9ybWFsIi8+JiN4YTs8L2ZpbHRlcj4mI3hhOzxsaW5lYXJHcmFkaWVudCBncmFkaWVudFVuaXRzPSJ1c2VyU3BhY2VPblVzZSIgeTI9IjE0LjQ2NjgiIHgyPSIxMy40NTAxIiB5MT0iMi41MDk1NyIgeDE9IjEuNzIyNzciIGlkPSJwYWludDBfbGluZWFyXzMxMDZfMjcxMDEiPiYjeGE7PHN0b3Agc3RvcC1jb2xvcj0id2hpdGUiLz4mI3hhOzxzdG9wIHN0b3AtY29sb3I9IiNFQUVDRUUiIG9mZnNldD0iMSIvPiYjeGE7PC9saW5lYXJHcmFkaWVudD4mI3hhOzxyYWRpYWxHcmFkaWVudCBncmFkaWVudFRyYW5zZm9ybT0idHJhbnNsYXRlKDcuMTQyMiAxMC41MTEzKSByb3RhdGUoLTc1LjY1MTMpIHNjYWxlKDE1Ljk3MDUgMTUuNzQ5OCkiIGdyYWRpZW50VW5pdHM9InVzZXJTcGFjZU9uVXNlIiByPSIxIiBjeT0iMCIgY3g9IjAiIGlkPSJwYWludDFfcmFkaWFsXzMxMDZfMjcxMDEiPiYjeGE7PHN0b3Agc3RvcC1jb2xvcj0iIzEzNDhGRiIvPiYjeGE7PHN0b3Agc3RvcC1jb2xvcj0iIzA2MjM4RCIgb2Zmc2V0PSIxIi8+JiN4YTs8L3JhZGlhbEdyYWRpZW50PiYjeGE7PHJhZGlhbEdyYWRpZW50IGdyYWRpZW50VHJhbnNmb3JtPSJ0cmFuc2xhdGUoMy4xOTI5OSA3LjMwMjE1KSByb3RhdGUoMzEuOTgpIHNjYWxlKDE1LjI2ODUgMjcuNTc2KSIgZ3JhZGllbnRVbml0cz0idXNlclNwYWNlT25Vc2UiIHI9IjEiIGN5PSIwIiBjeD0iMCIgaWQ9InBhaW50Ml9yYWRpYWxfMzEwNl8yNzEwMSI+JiN4YTs8c3RvcCBzdG9wLWNvbG9yPSIjMDE5NUZGIi8+JiN4YTs8c3RvcCBzdG9wLWNvbG9yPSIjMTE0N0U5IiBvZmZzZXQ9IjEiLz4mI3hhOzwvcmFkaWFsR3JhZGllbnQ+JiN4YTs8cmFkaWFsR3JhZGllbnQgZ3JhZGllbnRUcmFuc2Zvcm09InRyYW5zbGF0ZSgzLjg2NDM3IDE1LjI1NDIpIHJvdGF0ZSgtNDYuOTU3OSkgc2NhbGUoMTEuNzY0NCAxNi4xODIpIiBncmFkaWVudFVuaXRzPSJ1c2VyU3BhY2VPblVzZSIgcj0iMSIgY3k9IjAiIGN4PSIwIiBpZD0icGFpbnQzX3JhZGlhbF8zMTA2XzI3MTAxIj4mI3hhOzxzdG9wIHN0b3AtY29sb3I9IiMwMEJCRkYiLz4mI3hhOzxzdG9wIHN0b3AtY29sb3I9IiMwMDhCRkYiIG9mZnNldD0iMSIvPiYjeGE7PC9yYWRpYWxHcmFkaWVudD4mI3hhOzxjbGlwUGF0aCBpZD0iY2xpcDBfMzEwNl8yNzEwMSI+JiN4YTs8cmVjdCB0cmFuc2Zvcm09InRyYW5zbGF0ZSgtMC4wMDA5NzY1NjIpIiBmaWxsPSJ3aGl0ZSIgaGVpZ2h0PSIxNS45OTk5IiB3aWR0aD0iMTUuOTk5OSIvPiYjeGE7PC9jbGlwUGF0aD4mI3hhOzxjbGlwUGF0aCBpZD0iY2xpcDFfMzEwNl8yNzEwMSI+JiN4YTs8cmVjdCB0cmFuc2Zvcm09InRyYW5zbGF0ZSgzLjMzMjI4IDMuNSkiIGZpbGw9IndoaXRlIiBoZWlnaHQ9IjkuNjY2NjQiIHdpZHRoPSI5LjY2NjY0Ii8+JiN4YTs8L2NsaXBQYXRoPiYjeGE7PC9kZWZzPiYjeGE7PC9zdmc+;points=[[0,0,0,0,0],[0,0.25,0,0,0],[0,0.5,0,0,0],[0,0.75,0,0,0],[0.25,0,0,0,0],[0.5,0,0,0,0],[0.75,0,0,0,0],[1,0,0,0,0],[1,0.25,0,0,0],[1,0.5,0,0,0],[1,0.75,0,0,0]];container=0;fontStyle=0;fontSize=12;fontColor=#1D2D3E;" parent="i0-r0BhkWRjA8PmNq9u2-2" vertex="1">
          <mxGeometry x="39.5" y="349.3" width="50" height="50" as="geometry" />
        </mxCell>
        <mxCell id="lm74C0_KvX_3WtNFRdFN-1" style="edgeStyle=orthogonalEdgeStyle;rounded=0;orthogonalLoop=1;jettySize=auto;html=1;entryX=0;entryY=0.5;entryDx=0;entryDy=0;entryPerimeter=0;strokeColor=#A3A3A3;strokeWidth=2;endArrow=none;endFill=0;exitX=1;exitY=0.5;exitDx=0;exitDy=0;exitPerimeter=0;" edge="1" parent="i0-r0BhkWRjA8PmNq9u2-2" source="wNo7IlQ1gwdrVZ6y7zte-5" target="i0-r0BhkWRjA8PmNq9u2-51">
          <mxGeometry relative="1" as="geometry">
            <Array as="points">
              <mxPoint x="237" y="73" />
              <mxPoint x="237" y="350" />
            </Array>
            <mxPoint x="87" y="216" as="sourcePoint" />
            <mxPoint x="271" y="360" as="targetPoint" />
          </mxGeometry>
        </mxCell>
        <mxCell id="lm74C0_KvX_3WtNFRdFN-6" value="HTML5 App &#xa;Repository" style="shape=image;verticalLabelPosition=bottom;verticalAlign=top;imageAspect=0;aspect=fixed;image=data:image/svg+xml,PHN2ZyB4bWxucz0iaHR0cDovL3d3dy53My5vcmcvMjAwMC9zdmciIGZpbGw9Im5vbmUiIHZpZXdCb3g9IjAgMCA0OSA0OSIgaGVpZ2h0PSI0OSIgd2lkdGg9IjQ5Ij4mI3hhOzxnIGNsaXAtcGF0aD0idXJsKCNjbGlwMF8yNjIyXzM2NTQpIj4mI3hhOzxjaXJjbGUgc3Ryb2tlLXdpZHRoPSIwLjg1NzE0MyIgc3Ryb2tlPSIjRDVEQUREIiBmaWxsPSJ1cmwoI3BhaW50MF9saW5lYXJfMjYyMl8zNjU0KSIgcj0iMjMuNTcxNCIgY3k9IjI0LjAzNDkiIGN4PSIyNC41Ii8+JiN4YTs8ZyBjbGlwLXBhdGg9InVybCgjY2xpcDFfMjYyMl8zNjU0KSI+JiN4YTs8cGF0aCBmaWxsPSJ1cmwoI3BhaW50MV9yYWRpYWxfMjYyMl8zNjU0KSIgZD0iTTIzLjU5OTUgMTMuOTg0OUMyMC41MTU1IDEzLjk4NDkgMTguMjA3MSAxNi45NzU4IDE4LjQyMDQgMTkuODA4OUMxOC40NTE2IDIwLjIyNCAxOC4yODk2IDIwLjYzMDMgMTcuOTgxMyAyMC45MUMxNy42NzMgMjEuMTg5NyAxNy4yNTMgMjEuMzExNiAxNi44NDI4IDIxLjI0MDJDMTUuNTU2NyAyMS4wMTY2IDE0LjYyMjQgMjEuMzYxMyAxNC4wMDU2IDIxLjkyOUMxMy4zNjc3IDIyLjUxNjEgMTIuOTUgMjMuNDU0MSAxMi45NSAyNC42MDQ0QzEyLjk1IDI1Ljc0MDUgMTMuMjg4MSAyNi41NzY3IDEzLjgyMDYgMjcuMTIzMUMxNC4zNDU4IDI3LjY2MjEgMTUuMjA3NCAyOC4wNzA0IDE2LjU2MDQgMjguMDcwNEgxOS43NTg0QzIwLjUwNCAyOC4wNzA0IDIxLjEwODQgMjguNjc0OCAyMS4xMDg0IDI5LjQyMDRDMjEuMTA4NCAzMC4xNjYgMjAuNTA0IDMwLjc3MDQgMTkuNzU4NCAzMC43NzA0SDE2LjU2MDRDMTQuNjQyOSAzMC43NzA0IDEzLjAyNDIgMzAuMTc0NSAxMS44ODY5IDI5LjAwNzRDMTAuNzU2OCAyNy44NDc4IDEwLjI1IDI2LjI3NiAxMC4yNSAyNC42MDQ0QzEwLjI1IDIyLjgwODIgMTAuOTA4MyAyMS4xMTAyIDEyLjE3NyAxOS45NDI0QzEzLjEzMTkgMTkuMDYzNiAxNC4zNjc5IDE4LjU0NTMgMTUuNzcxNSAxOC40NzkxQzE2LjI0NDIgMTQuODE1MiAxOS4yOTc4IDExLjI4NDkgMjMuNTk5NSAxMS4yODQ5QzI2Ljk4OSAxMS4yODQ5IDI5LjUzMSAxMy4xNzg2IDMwLjkwODIgMTYuMDA3OEMzMy40MTY0IDE2LjAyODMgMzUuNzU0OSAxNy40OTUgMzYuNTQ2NCAyMC4zMzE0QzM2Ljc0NjggMjEuMDQ5NiAzNi4zMjcxIDIxLjc5NDIgMzUuNjA5IDIxLjk5NDZDMzQuODkwOSAyMi4xOTUxIDM0LjE0NjIgMjEuNzc1NCAzMy45NDU4IDIxLjA1NzJDMzMuNDU1OSAxOS4zMDE3IDMxLjk2MTcgMTguNDkxIDMwLjI1MDggMTguNzU0M0MyOS42MTc5IDE4Ljg1MTcgMjkuMDAzNyAxOC40OTEgMjguNzgwMyAxNy44OTA5QzI3Ljg1OCAxNS40MTM0IDI2LjAzMjYgMTMuOTg0OSAyMy41OTk1IDEzLjk4NDlaIiBjbGlwLXJ1bGU9ImV2ZW5vZGQiIGZpbGwtcnVsZT0iZXZlbm9kZCIvPiYjeGE7PHBhdGggZmlsbD0idXJsKCNwYWludDJfcmFkaWFsXzI2MjJfMzY1NCkiIGQ9Ik0yNS40OTk1IDI0LjA3MjdIMjYuMTUwMlYyNC43ODQ5SDI2Ljg2MDlWMjIuNjU4MkgyNi4xNTAyVjIzLjM2MDVIMjUuNDk5NVYyMi42NTgySDI0Ljc4ODlWMjQuNzg0OUgyNS40OTk1VjI0LjA3MjdaTTI3Ljc5NiAyNC43ODQ5SDI4LjUwNzJWMjMuMzYzNkgyOS4xMzMyVjIyLjY1ODJIMjcuMTdWMjMuMzYzNkgyNy43OTZWMjQuNzg0OVpNMzAuNjI5NiAyNC40ODY5TDMwLjE0MDIgMjMuNzMwNVYyNC43ODQ5SDI5LjQ0NDhWMjIuNjU4MkgzMC4xODZMMzAuNjQyMiAyMy40MDUxTDMxLjA5NzQgMjIuNjU4MkgzMS44MzkxVjI0Ljc4NDlIMzEuMTMxMVYyMy43MzA1TDMwLjY0MjIgMjQuNDg2OUgzMC42Mjk2Wk0zMy44NTg5IDI0LjA4MTZIMzIuODU5MVYyMi42NTgySDMyLjE0NzlWMjQuNzg0OUgzMy44NTg5VjI0LjA4MTZaTTI0Ljc2NTcgMzcuMDE4MUwyMy43NDkxIDI1LjYxNzJIMzQuOTI0TDMzLjkwNTkgMzcuMDE2NkwyOS4zMjk4IDM4LjI4NDlMMjQuNzY1NyAzNy4wMTgxWk0yNi42MDI2IDI5LjAxNjNMMjYuODczMyAzMi4wNTI4SDI5LjMzMjJIMjkuMzM5NUgzMC42ODk0TDMwLjU2MTYgMzMuNDgxNUwyOS4zMzIyIDMzLjgxMzJMMjguMTAzOCAzMy40ODI1TDI4LjAyNDkgMzIuNjAzN0gyNy40Mjg5SDI2LjkxODVMMjcuMDczIDM0LjMzMzVMMjkuMzMxMSAzNC45NjAxTDI5LjMzNTkgMzQuOTU4NUwzMS41OTE5IDM0LjMzMzVMMzEuNjA4MiAzNC4xNDc1TDMxLjg2NzMgMzEuMjQ3TDMxLjg5NDEgMzAuOTUxMUgzMS41OTcxSDI5LjMzOTVIMjkuMzMyMkgyNy44ODE0TDI3Ljc4MDUgMjkuODIyNkgyOS4zMzU5SDI5LjMzOTVIMzEuOTk0NUgzMS45OTgyTDMyLjAyMDMgMjkuNTc1TDMyLjA3MDcgMjkuMDE2M0wzMi4wOTcgMjguNzIwOUgyOS4zMzk1SDI5LjMzNTlIMjYuNTc2M0wyNi42MDI2IDI5LjAxNjNaIiBjbGlwLXJ1bGU9ImV2ZW5vZGQiIGZpbGwtcnVsZT0iZXZlbm9kZCIvPiYjeGE7PC9nPiYjeGE7PC9nPiYjeGE7PGRlZnM+JiN4YTs8bGluZWFyR3JhZGllbnQgZ3JhZGllbnRVbml0cz0idXNlclNwYWNlT25Vc2UiIHkyPSI0NC4yNzkyIiB4Mj0iNDEuNTY0NSIgeTE9IjYuODQ3NzUiIHgxPSI0Ljg1Mjg3IiBpZD0icGFpbnQwX2xpbmVhcl8yNjIyXzM2NTQiPiYjeGE7PHN0b3Agc3RvcC1jb2xvcj0id2hpdGUiLz4mI3hhOzxzdG9wIHN0b3AtY29sb3I9IiNFQUVDRUUiIG9mZnNldD0iMSIvPiYjeGE7PC9saW5lYXJHcmFkaWVudD4mI3hhOzxyYWRpYWxHcmFkaWVudCBncmFkaWVudFRyYW5zZm9ybT0idHJhbnNsYXRlKDE0LjMzNTYgMTQuMTQ2KSByb3RhdGUoMzYuNzkwNykgc2NhbGUoMjIuNzc3NSA0MS4yODQpIiBncmFkaWVudFVuaXRzPSJ1c2VyU3BhY2VPblVzZSIgcj0iMSIgY3k9IjAiIGN4PSIwIiBpZD0icGFpbnQxX3JhZGlhbF8yNjIyXzM2NTQiPiYjeGE7PHN0b3Agc3RvcC1jb2xvcj0iIzAxOTVGRiIvPiYjeGE7PHN0b3Agc3RvcC1jb2xvcj0iIzExNDdFOSIgb2Zmc2V0PSIxIi8+JiN4YTs8L3JhZGlhbEdyYWRpZW50PiYjeGE7PHJhZGlhbEdyYWRpZW50IGdyYWRpZW50VHJhbnNmb3JtPSJ0cmFuc2xhdGUoMjUuNDc5NiAyNS4wMDkpIHJvdGF0ZSg1NC40MzA5KSBzY2FsZSgxMy4zODIxIDExLjUzOTcpIiBncmFkaWVudFVuaXRzPSJ1c2VyU3BhY2VPblVzZSIgcj0iMSIgY3k9IjAiIGN4PSIwIiBpZD0icGFpbnQyX3JhZGlhbF8yNjIyXzM2NTQiPiYjeGE7PHN0b3Agc3RvcC1jb2xvcj0iIzEzNDhGRiIvPiYjeGE7PHN0b3Agc3RvcC1jb2xvcj0iIzA2MjM4RCIgb2Zmc2V0PSIxIi8+JiN4YTs8L3JhZGlhbEdyYWRpZW50PiYjeGE7PGNsaXBQYXRoIGlkPSJjbGlwMF8yNjIyXzM2NTQiPiYjeGE7PHJlY3QgdHJhbnNmb3JtPSJ0cmFuc2xhdGUoMC41IDAuMDM0OTEyMSkiIGZpbGw9IndoaXRlIiBoZWlnaHQ9IjQ4IiB3aWR0aD0iNDgiLz4mI3hhOzwvY2xpcFBhdGg+JiN4YTs8Y2xpcFBhdGggaWQ9ImNsaXAxXzI2MjJfMzY1NCI+JiN4YTs8cmVjdCB0cmFuc2Zvcm09InRyYW5zbGF0ZSgxMC4yNSAxMS4yODQ5KSIgZmlsbD0id2hpdGUiIGhlaWdodD0iMjciIHdpZHRoPSIyNyIvPiYjeGE7PC9jbGlwUGF0aD4mI3hhOzwvZGVmcz4mI3hhOzwvc3ZnPg==;points=[[0,0,0,0,0],[0,0.25,0,0,0],[0,0.5,0,0,0],[0,0.75,0,0,0],[0.25,0,0,0,0],[0.5,0,0,0,0],[0.75,0,0,0,0],[1,0,0,0,0],[1,0.25,0,0,0],[1,0.5,0,0,0],[1,0.75,0,0,0]];fontStyle=0;fontSize=12;fontColor=#1D2D3E;" vertex="1" parent="i0-r0BhkWRjA8PmNq9u2-2">
          <mxGeometry x="-73" y="100" width="54" height="54" as="geometry" />
        </mxCell>
        <mxCell id="lm74C0_KvX_3WtNFRdFN-11" style="edgeStyle=orthogonalEdgeStyle;rounded=0;orthogonalLoop=1;jettySize=auto;html=1;exitX=0;exitY=0.5;exitDx=0;exitDy=0;exitPerimeter=0;entryX=0.5;entryY=0;entryDx=0;entryDy=0;entryPerimeter=0;strokeColor=#A3A3A3;strokeWidth=2;endArrow=blockThin;endFill=1;" edge="1" parent="i0-r0BhkWRjA8PmNq9u2-2" source="wNo7IlQ1gwdrVZ6y7zte-5" target="lm74C0_KvX_3WtNFRdFN-6">
          <mxGeometry relative="1" as="geometry">
            <mxPoint x="-120" y="137" as="sourcePoint" />
            <mxPoint x="-63" y="137" as="targetPoint" />
          </mxGeometry>
        </mxCell>
        <mxCell id="lm74C0_KvX_3WtNFRdFN-12" style="edgeStyle=orthogonalEdgeStyle;rounded=0;orthogonalLoop=1;jettySize=auto;html=1;exitX=0;exitY=0.5;exitDx=0;exitDy=0;exitPerimeter=0;entryX=1;entryY=0.5;entryDx=0;entryDy=0;entryPerimeter=0;strokeColor=#A3A3A3;strokeWidth=2;endArrow=blockThin;endFill=1;" edge="1" parent="i0-r0BhkWRjA8PmNq9u2-2" source="wNo7IlQ1gwdrVZ6y7zte-6" target="lm74C0_KvX_3WtNFRdFN-6">
          <mxGeometry relative="1" as="geometry">
            <mxPoint x="49" y="84" as="sourcePoint" />
            <mxPoint x="-36" y="110" as="targetPoint" />
          </mxGeometry>
        </mxCell>
        <mxCell id="wNo7IlQ1gwdrVZ6y7zte-10" value="Cloud Transport &#xa;Management" style="shape=image;verticalLabelPosition=bottom;verticalAlign=top;imageAspect=0;aspect=fixed;image=data:image/svg+xml,PHN2ZyB4bWxucz0iaHR0cDovL3d3dy53My5vcmcvMjAwMC9zdmciIGZpbGw9Im5vbmUiIHZpZXdCb3g9IjAgMCA0OSA0OSIgaGVpZ2h0PSI0OSIgd2lkdGg9IjQ5Ij4mI3hhOzxjaXJjbGUgc3Ryb2tlLXdpZHRoPSIwLjg1NzE0MyIgc3Ryb2tlPSIjRDVEQUREIiBmaWxsPSJ1cmwoI3BhaW50MF9saW5lYXJfMjYyMl8zMDU4KSIgcj0iMjMuNTcxNCIgY3k9IjI0LjAzNDkiIGN4PSIyNC41Ii8+JiN4YTs8cGF0aCBmaWxsPSJ1cmwoI3BhaW50MV9yYWRpYWxfMjYyMl8zMDU4KSIgZD0iTTM4LjU5MiAyMy4yNzc5QzM4LjgyNjggMjMuODcxIDM4Ljk0NzMgMjQuNTAzMSAzOC45NDczIDI1LjE0MDlWMjcuMjY2MkMzOC45NDczIDI4LjE4MDMgMzguNjY2IDI5LjAwNjUgMzguMTAzNSAyOS43NDQ4QzM3LjU3NjIgMzAuNDgzIDM2Ljg1NTUgMzAuOTU3NiAzNS45NDE0IDMxLjE2ODZDMzYuMTE3MiAzMS42MjU2IDM2LjIwNTEgMzIuMTE3OCAzNi4yMDUxIDMyLjY0NTFDMzYuMjA1MSAzMy44MDUzIDM1LjgxODQgMzQuNzcyMSAzNS4wNDQ5IDM1LjU0NTVDMzQuMjcxNSAzNi4zMTkgMzMuMzIyMyAzNi43MDU3IDMyLjE5NzMgMzYuNzA1N0MzMS4wMzcxIDM2LjcwNTcgMzAuMDcwMyAzNi4zMTkgMjkuMjk2OSAzNS41NDU1QzI4LjUyMzUgMzQuNzcyMSAyOC4xMzY3IDMzLjgwNTMgMjguMTM2NyAzMi42NDUxQzI4LjEzNjcgMzIuMTg4MSAyOC4yMjQ2IDMxLjczMTEgMjguNDAwNCAzMS4yNzQxSDIyLjU5OTZDMjIuNjY5OSAzMS40ODUgMjIuNzIyNyAzMS42OTU5IDIyLjc1NzggMzEuOTA2OUMyMi44MjgxIDMyLjExNzggMjIuODYzMyAzMi4zNjM5IDIyLjg2MzMgMzIuNjQ1MUMyMi44NjMzIDMzLjgwNTMgMjIuNDU5IDM0Ljc3MjEgMjEuNjUwNCAzNS41NDU1QzIwLjg3NyAzNi4zMTkgMTkuOTI3OCAzNi43MDU3IDE4LjgwMjcgMzYuNzA1N0MxNy42NDI2IDM2LjcwNTcgMTYuNjc1OCAzNi4zMTkgMTUuOTAyNCAzNS41NDU1QzE1LjEyODkgMzQuNzcyMSAxNC43NDIyIDMzLjgwNTMgMTQuNzQyMiAzMi42NDUxQzE0Ljc0MjIgMzIuMzYzOSAxNC43NTk4IDMyLjEwMDIgMTQuNzk0OSAzMS44NTQxQzE0Ljg2NTIgMzEuNjA4IDE0LjkzNTYgMzEuMzc5NSAxNS4wMDU5IDMxLjE2ODZDMTQuMTI3IDMwLjk1NzYgMTMuNDA2MyAzMC40ODMgMTIuODQzOCAyOS43NDQ4QzEyLjMxNjQgMjkuMDA2NSAxMi4wNTI3IDI4LjE4MDMgMTIuMDUyNyAyNy4yNjYyTDEyLjA1MjcgMjUuMzU5OUMxMi4wNTI3IDI0LjYxNzIgMTIuNjU0OCAyNC4wMTUyIDEzLjM5NzUgMjQuMDE1MkwtbmFuIC1uYW5MLW5hbiAtbmFuTDEzLjM5NzUgMjQuMDE1MkMxNC4xNDAxIDI0LjAxNTIgMTQuNzQyMiAyNC42MTcyIDE0Ljc0MjIgMjUuMzU5OVYyNy4yNjYyQzE0Ljc0MjIgMjguMTQ1MSAxNS4xOTkyIDI4LjU4NDYgMTYuMTEzMyAyOC41ODQ2SDM0Ljk5MjJDMzUuOTA2MyAyOC41ODQ2IDM2LjM2MzMgMjguMTQ1MSAzNi4zNjMzIDI3LjI2NjJWMjUuODk1MUgyOS42MTMzQzI5LjIyNjYgMjUuODk1MSAyOC44OTI2IDI1Ljc3MjEgMjguNjExMyAyNS41MjZDMjguMzY1MyAyNS4yNzk5IDI4LjI0MjIgMjQuOTQ1OSAyOC4yNDIyIDI0LjUyNFYxNy43NzRDMjguMjQyMiAxNi42NjY2IDI5LjEyNDUgMTYuNDU1NyAzMC42NjggMTYuNDU1N0gzNC45OTIyQzM1LjI3MzUgMTYuNDU1NyAzNS41MTk2IDE2LjUyNiAzNS43MzA1IDE2LjY2NjZDMzUuOTc2NiAxNi43NzIxIDM2LjEzNDggMTYuOTY1NSAzNi4yMDUxIDE3LjI0NjdMMzguNTkyIDIzLjI3NzlaTTIwLjE3MzggMzIuNjQ1MUMyMC4xNzM4IDMyLjI1ODQgMjAuMDMzMiAzMS45NDIgMTkuNzUyIDMxLjY5NTlDMTkuNTA1OSAzMS40MTQ3IDE5LjE4OTUgMzEuMjc0MSAxOC44MDI3IDMxLjI3NDFDMTguNDE2IDMxLjI3NDEgMTguMDgyIDMxLjQxNDcgMTcuODAwOCAzMS42OTU5QzE3LjU1NDcgMzEuOTQyIDE3LjQzMTcgMzIuMjU4NCAxNy40MzE3IDMyLjY0NTFDMTcuNDMxNyAzMy4wMzE5IDE3LjU1NDcgMzMuMzY1OCAxNy44MDA4IDMzLjY0NzFDMTguMDgyIDMzLjg5MzIgMTguNDE2IDM0LjAxNjIgMTguODAyNyAzNC4wMTYyQzE5LjE4OTUgMzQuMDE2MiAxOS41MDU5IDMzLjg5MzIgMTkuNzUyIDMzLjY0NzFDMjAuMDMzMiAzMy4zNjU4IDIwLjE3MzggMzMuMDMxOSAyMC4xNzM4IDMyLjY0NTFaTTMyLjMwMjggMzQuMDE2MkMzMi43MjQ2IDM0LjAxNjIgMzMuMDU4NiAzMy44OTMyIDMzLjMwNDcgMzMuNjQ3MUMzMy41NTA4IDMzLjM2NTggMzMuNjczOCAzMy4wMzE5IDMzLjY3MzggMzIuNjQ1MUMzMy42NzM4IDMyLjI1ODQgMzMuNTUwOCAzMS45NDIgMzMuMzA0NyAzMS42OTU5QzMzLjA1ODYgMzEuNDE0NyAzMi43MjQ2IDMxLjI3NDEgMzIuMzAyOCAzMS4yNzQxQzMxLjkxNiAzMS4yNzQxIDMxLjU5OTYgMzEuNDE0NyAzMS4zNTM1IDMxLjY5NTlDMzEuMTA3NCAzMS45NDIgMzAuOTg0NCAzMi4yNTg0IDMwLjk4NDQgMzIuNjQ1MUMzMC45ODQ0IDMzLjAzMTkgMzEuMTA3NCAzMy4zNjU4IDMxLjM1MzUgMzMuNjQ3MUMzMS41OTk2IDMzLjg5MzIgMzEuOTE2IDM0LjAxNjIgMzIuMzAyOCAzNC4wMTYyWiIvPiYjeGE7PHBhdGggZmlsbD0idXJsKCNwYWludDJfcmFkaWFsXzI2MjJfMzA1OCkiIGQ9Ik0xNC43NDcgMTUuMTA4N0MxNS4wMDEyIDEzLjI4MzMgMTYuNTI3MyAxMS41MzQ5IDE4LjY3NTMgMTEuNTM0OUMyMC4zODQgMTEuNTM0OSAyMS42NjM0IDEyLjQ5MzUgMjIuMzUyNiAxMy45MTg2QzI0LjA3MTkgMTQuMDgxIDI1LjUgMTUuNjE2NyAyNS41IDE3LjYxNDlDMjUuNSAxOS45NzY4IDIzLjYxNyAyMS40MTU0IDIxLjYyMTMgMjEuMzA0MkgxNS4xODA2QzE0LjIxODYgMjEuMzA0MiAxMy40MDE3IDIxLjAwNTEgMTIuODI2MiAyMC40MTQ2QzEyLjI1NDYgMTkuODI4IDEyIDE5LjAzNDYgMTIgMTguMTk1M0MxMiAxNy4yOTIxIDEyLjMzMTEgMTYuNDM1NyAxMi45NzIxIDE1Ljg0NTdDMTMuNDQ1OSAxNS40MDk1IDE0LjA1NiAxNS4xNDk5IDE0Ljc0NyAxNS4xMDg3WiIgY2xpcC1ydWxlPSJldmVub2RkIiBmaWxsLXJ1bGU9ImV2ZW5vZGQiLz4mI3hhOzxkZWZzPiYjeGE7PGxpbmVhckdyYWRpZW50IGdyYWRpZW50VW5pdHM9InVzZXJTcGFjZU9uVXNlIiB5Mj0iNDQuMjc5MiIgeDI9IjQxLjU2NDUiIHkxPSI2Ljg0Nzc1IiB4MT0iNC44NTI4NyIgaWQ9InBhaW50MF9saW5lYXJfMjYyMl8zMDU4Ij4mI3hhOzxzdG9wIHN0b3AtY29sb3I9IndoaXRlIi8+JiN4YTs8c3RvcCBzdG9wLWNvbG9yPSIjRUFFQ0VFIiBvZmZzZXQ9IjEiLz4mI3hhOzwvbGluZWFyR3JhZGllbnQ+JiN4YTs8cmFkaWFsR3JhZGllbnQgZ3JhZGllbnRUcmFuc2Zvcm09InRyYW5zbGF0ZSgxNi4yMjM0IDE5LjQyOSkgcm90YXRlKDM3LjI4MzcpIHNjYWxlKDIzLjQwMjggNDIuNjI2MSkiIGdyYWRpZW50VW5pdHM9InVzZXJTcGFjZU9uVXNlIiByPSIxIiBjeT0iMCIgY3g9IjAiIGlkPSJwYWludDFfcmFkaWFsXzI2MjJfMzA1OCI+JiN4YTs8c3RvcCBzdG9wLWNvbG9yPSIjMDE5NUZGIi8+JiN4YTs8c3RvcCBzdG9wLWNvbG9yPSIjMTE0N0U5IiBvZmZzZXQ9IjEiLz4mI3hhOzwvcmFkaWFsR3JhZGllbnQ+JiN4YTs8cmFkaWFsR3JhZGllbnQgZ3JhZGllbnRUcmFuc2Zvcm09InRyYW5zbGF0ZSgxNC4xNDg1IDEzLjAwMikgcm90YXRlKDM1LjkwODIpIHNjYWxlKDExLjY3MjQgMTMuNDU4NikiIGdyYWRpZW50VW5pdHM9InVzZXJTcGFjZU9uVXNlIiByPSIxIiBjeT0iMCIgY3g9IjAiIGlkPSJwYWludDJfcmFkaWFsXzI2MjJfMzA1OCI+JiN4YTs8c3RvcCBzdG9wLWNvbG9yPSIjMDBCQkZGIi8+JiN4YTs8c3RvcCBzdG9wLWNvbG9yPSIjMDA4QkZGIiBvZmZzZXQ9IjEiLz4mI3hhOzwvcmFkaWFsR3JhZGllbnQ+JiN4YTs8L2RlZnM+JiN4YTs8L3N2Zz4=;points=[[0,0,0,0,0],[0,0.25,0,0,0],[0,0.5,0,0,0],[0,0.75,0,0,0],[0.25,0,0,0,0],[0.5,0,0,0,0],[0.75,0,0,0,0],[1,0,0,0,0],[1,0.25,0,0,0],[1,0.5,0,0,0],[1,0.75,0,0,0]];" parent="i0-r0BhkWRjA8PmNq9u2-2" vertex="1">
          <mxGeometry x="-73" y="198" width="53.16" height="53.16" as="geometry" />
        </mxCell>
        <mxCell id="lm74C0_KvX_3WtNFRdFN-10" style="edgeStyle=orthogonalEdgeStyle;rounded=0;orthogonalLoop=1;jettySize=auto;html=1;exitX=0.5;exitY=0;exitDx=0;exitDy=0;exitPerimeter=0;entryX=0.477;entryY=0.933;entryDx=0;entryDy=0;entryPerimeter=0;strokeColor=#A3A3A3;strokeWidth=2;endArrow=blockThin;endFill=1;" edge="1" parent="i0-r0BhkWRjA8PmNq9u2-2" source="wNo7IlQ1gwdrVZ6y7zte-10" target="lm74C0_KvX_3WtNFRdFN-6">
          <mxGeometry relative="1" as="geometry" />
        </mxCell>
        <mxCell id="i0-r0BhkWRjA8PmNq9u2-36" value="" style="shape=image;verticalLabelPosition=bottom;verticalAlign=top;imageAspect=0;aspect=fixed;image=data:image/svg+xml,PHN2ZyB4bWxucz0iaHR0cDovL3d3dy53My5vcmcvMjAwMC9zdmciIGZpbGw9Im5vbmUiIHZpZXdCb3g9IjAgMCAyOCAyOCIgaGVpZ2h0PSIyOCIgd2lkdGg9IjI4Ij4mI3hhOzxnIGNsaXAtcGF0aD0idXJsKCNjbGlwMF84NzBfMjE4KSI+JiN4YTs8cGF0aCBmaWxsPSJ1cmwoI3BhaW50MF9saW5lYXJfODcwXzIxOCkiIGQ9Ik0yMy43ODkyIDEuNzIzM0MyNC45OTE0IDEuNzIzMyAyNS45OTQxIDIuMTI1NzkgMjYuNzk3MyAyLjkyNzI2QzI3LjU5ODggMy43Mjg3MyAyNy45OTk1IDQuNzI5NyAyNy45OTk1IDUuOTMzNjVWMjIuMDY2M0MyOC4wMDggMjIuNjIyNSAyNy45MDYgMjMuMTc0OCAyNy42OTkzIDIzLjY5MTJDMjcuNDkyNiAyNC4yMDc2IDI3LjE4NTQgMjQuNjc3OCAyNi43OTU2IDI1LjA3NDVDMjUuOTk0MSAyNS44NzU5IDI0Ljk5MzEgMjYuMjc2NyAyMy43ODkyIDI2LjI3NjdINC4yMTA4N0MzLjAwODY2IDI2LjI3NjcgMi4wMDU5NSAyNS44NzU5IDEuMjAyNzMgMjUuMDc0NUMwLjgxMzE2NCAyNC42Nzc2IDAuNTA2MjkyIDI0LjIwNzQgMC4yOTk5MTggMjMuNjkxQzAuMDkzNTQzNCAyMy4xNzQ2IC0wLjAwODIyNDU4IDIyLjYyMjQgMC4wMDA1MTkyMzEgMjIuMDY2M1Y1LjkzMzY1QzAuMDAwNTE5MjMxIDQuNzMxNDUgMC40MDMwMDUgMy43Mjg3MyAxLjIwNDQ4IDIuOTI1NTFDMi4wMDQyIDIuMTI1NzkgMy4wMDY5MSAxLjcyMzMgNC4yMDkxMiAxLjcyMzNIMjMuNzg5MlpNMi43ODk5MiA3LjMwMjFIMjUuMjEwMVY1LjkzMzY1QzI1LjIxMDEgNC45ODY5NCAyNC43Mzc2IDQuNTEyNyAyMy43ODkyIDQuNTEyN0g0LjIxMDg3QzMuODI4NiA0LjUwNTcyIDMuNDU3NjUgNC42NDI0OSAzLjE3MTQgNC44OTU5NEMyLjkxNzY2IDUuMTQ5NjggMi43ODk5MiA1LjQ5NjE3IDIuNzg5OTIgNS45MzM2NVY3LjMwMDM1VjcuMzAyMVpNMjUuMjEwMSAxMC4xNDU4SDIuNzg5OTJWMjIuMDY2M0MyLjc4OTkyIDIyLjQ2ODggMi45MTc2NiAyMi43OTYgMy4xNzE0IDIzLjA1MTVDMy40NTc5MSAyMy4zMDQ0IDMuODI4ODQgMjMuNDQwNSA0LjIxMDg3IDIzLjQzM0gyMy43ODkyQzI0LjczNTkgMjMuNDMzIDI1LjIxMDEgMjIuOTc4IDI1LjIxMDEgMjIuMDY2M1YxMC4xNDRWMTAuMTQ1OFoiLz4mI3hhOzwvZz4mI3hhOzxkZWZzPiYjeGE7PGxpbmVhckdyYWRpZW50IGdyYWRpZW50VW5pdHM9InVzZXJTcGFjZU9uVXNlIiB5Mj0iMTkuMzgyNiIgeDI9IjI2LjU3ODMiIHkxPSI0LjAzMjk5IiB4MT0iMy42MTg3NCIgaWQ9InBhaW50MF9saW5lYXJfODcwXzIxOCI+JiN4YTs8c3RvcCBzdG9wLWNvbG9yPSIjMjM5NUZGIi8+JiN4YTs8c3RvcCBzdG9wLWNvbG9yPSIjMDA1N0QyIiBvZmZzZXQ9IjEiLz4mI3hhOzwvbGluZWFyR3JhZGllbnQ+JiN4YTs8Y2xpcFBhdGggaWQ9ImNsaXAwXzg3MF8yMTgiPiYjeGE7PHJlY3QgZmlsbD0id2hpdGUiIGhlaWdodD0iMjgiIHdpZHRoPSIyOCIvPiYjeGE7PC9jbGlwUGF0aD4mI3hhOzwvZGVmcz4mI3hhOzwvc3ZnPg==" parent="1" vertex="1">
          <mxGeometry x="547.5" y="470" width="100" height="100" as="geometry" />
        </mxCell>
        <mxCell id="i0-r0BhkWRjA8PmNq9u2-44" value="PRD" style="rounded=1;whiteSpace=wrap;html=1;fillColor=#f8cecc;strokeColor=#b85450;" parent="1" vertex="1">
          <mxGeometry x="561" y="519" width="73" height="20" as="geometry" />
        </mxCell>
        <mxCell id="i0-r0BhkWRjA8PmNq9u2-47" style="edgeStyle=none;rounded=0;orthogonalLoop=1;jettySize=auto;html=1;fontColor=#BFBFBF;fontSize=13;strokeColor=#A3A3A3;endSize=5;strokeWidth=2;endArrow=blockThin;endFill=1;entryX=0.5;entryY=1;entryDx=0;entryDy=0;exitX=1;exitY=0.5;exitDx=0;exitDy=0;" parent="1" source="i0-r0BhkWRjA8PmNq9u2-54" target="i0-r0BhkWRjA8PmNq9u2-22" edge="1">
          <mxGeometry relative="1" as="geometry">
            <mxPoint x="538" y="351" as="sourcePoint" />
            <mxPoint x="547" y="264" as="targetPoint" />
          </mxGeometry>
        </mxCell>
        <mxCell id="i0-r0BhkWRjA8PmNq9u2-48" style="edgeStyle=none;rounded=0;orthogonalLoop=1;jettySize=auto;html=1;fontColor=#BFBFBF;fontSize=13;strokeColor=#A3A3A3;endSize=5;strokeWidth=2;endArrow=blockThin;endFill=1;entryX=0.443;entryY=0.028;entryDx=0;entryDy=0;exitX=1;exitY=0.5;exitDx=0;exitDy=0;entryPerimeter=0;" parent="1" source="i0-r0BhkWRjA8PmNq9u2-54" target="i0-r0BhkWRjA8PmNq9u2-36" edge="1">
          <mxGeometry relative="1" as="geometry">
            <mxPoint x="540.9119999999998" y="406.6080000000002" as="sourcePoint" />
            <mxPoint x="437" y="288" as="targetPoint" />
          </mxGeometry>
        </mxCell>
        <mxCell id="i0-r0BhkWRjA8PmNq9u2-53" value="Firewall" style="text;strokeColor=none;align=center;fillColor=none;html=1;verticalAlign=middle;whiteSpace=wrap;rounded=0;fontStyle=1" parent="1" vertex="1">
          <mxGeometry x="274" y="-10" width="60" height="30" as="geometry" />
        </mxCell>
        <mxCell id="i0-r0BhkWRjA8PmNq9u2-54" value="Cloud&#xa; Connector" style="shape=image;verticalLabelPosition=bottom;verticalAlign=top;aspect=fixed;imageAspect=0;image=data:image/svg+xml,PHN2ZyB4bWxucz0iaHR0cDovL3d3dy53My5vcmcvMjAwMC9zdmciIGZpbGw9Im5vbmUiIHZpZXdCb3g9IjAgMCAxNiAxNiIgaGVpZ2h0PSIxNiIgd2lkdGg9IjE2Ij4mI3hhOzxjaXJjbGUgc3Ryb2tlLXdpZHRoPSIwLjI4NTcwOCIgc3Ryb2tlPSIjRDVEQUREIiBmaWxsPSJ1cmwoI3BhaW50MF9saW5lYXJfMzg5MF8yMTUzNSkiIHI9IjcuODU2OTYiIGN5PSI3Ljk5NzM4IiBjeD0iNy45OTczOCIvPiYjeGE7PGcgY2xpcC1wYXRoPSJ1cmwoI2NsaXAwXzM4OTBfMjE1MzUpIj4mI3hhOzxwYXRoIGZpbGw9InVybCgjcGFpbnQxX2xpbmVhcl8zODkwXzIxNTM1KSIgZD0iTTcuODc5MTggOC42NDM4MUM3Ljk2MzM1IDguNjIxNDkgOC4wNDEzMyA4LjU3NDQ0IDguMTEzMTIgOC41MDI2NUM4LjIxNzI5IDguMzk4NDggOC4yNjkzNyA4LjI4MTI5IDguMjY5MzcgOC4xNTEwOEM4LjI2OTM3IDguMDIwODggOC4yMTcyOSA3LjkwMzY5IDguMTEzMTIgNy43OTk1Mkw3LjIxNDY5IDYuOTIwNjJMNy41MjcxOSA2LjYwODEyTDguNDA2MDkgNy41MDY1NkM4LjUxMDI2IDcuNjEwNzIgOC42Mjc0NSA3LjY2MjgxIDguNzU3NjYgNy42NjI4MUM4Ljg4Nzg2IDcuNjYyODEgOS4wMDUwNSA3LjYxMDcyIDkuMTA5MjIgNy41MDY1NkM5LjIxMzM5IDcuNDAyMzkgOS4yNjU0NyA3LjI4NTIgOS4yNjU0NyA3LjE1NDk5QzkuMjY1NDcgNy4wMjQ3OSA5LjIxMzM5IDYuOTA3NiA5LjEwOTIyIDYuODAzNDNMOC4yMTA3OCA1LjkyNDUzTDguNjIwOTQgNS41MTQzOEM4LjcxMjA4IDUuNDIzMjMgOC43NTc2NiA1LjMxMjU1IDguNzU3NjYgNS4xODIzNUM4Ljc1NzY2IDUuMDM5MTIgOC43MTIwOCA0LjkyMTkzIDguNjIwOTQgNC44MzA3OUw4LjE3MTcyIDQuMzgxNTdDNy43OTQxMSA0LjAwMzk3IDcuMzUxNCAzLjgwMjE0IDYuODQzNTkgMy43NzYxQzYuMzM1NzggMy43NTAwNiA1Ljg4MDA1IDMuODk5OCA1LjQ3NjQgNC4yMjUzMkw0LjIzNzMxIDIuOTUzODZDNC4xMzMxNCAyLjg0OTY5IDQuMDE1OTUgMi43OTc2MSAzLjg4NTc0IDIuNzk3NjFDMy43Njg1NSAyLjc5NzYxIDMuNjU3ODggMi44NDk2OSAzLjU1MzcxIDIuOTUzODZDMy40NDk1NCAzLjA1ODAyIDMuMzk3NDYgMy4xNzUyMSAzLjM5NzQ2IDMuMzA1NDJDMy4zOTc0NiAzLjQzNTYzIDMuNDQ5NTQgMy41NTI4MSAzLjU1MzcxIDMuNjU2OThMNC43OTI4MSA0LjkyODQ0QzQuNDkzMzMgNS4zMzIwOSA0LjM1NjYxIDUuNzgxMyA0LjM4MjY1IDYuMjc2MDlDNC40MDg2OSA2Ljc1Nzg2IDQuNjEwNTIgNy4xODc1NSA0Ljk4ODEyIDcuNTY1MTVMNS4zNTkyMSA3LjkyMDFDNS41ODIzNyA3Ljg1Mzg1IDUuODEzMjMgNy44MjAxOSA2LjA0ODk4IDcuODIwMTlDNi41NjI2OCA3LjgyMDE5IDcuMDM3OSA3Ljk3OTkzIDcuNDUyNTQgOC4yNzEzQzcuNjA5ODYgOC4zODE4NSA3Ljc1MjAzIDguNTA2NTQgNy44NzkxOCA4LjY0MzgxWiIvPiYjeGE7PHBhdGggZmlsbD0idXJsKCNwYWludDJfbGluZWFyXzM4OTBfMjE1MzUpIiBkPSJNMTMuMzY2MiAxMi4yNTA3QzEzLjM2NjIgMTIuMTMzNSAxMy4zMTQyIDEyLjAyMjggMTMuMjEgMTEuOTE4N0wxMS44MjMzIDEwLjUxMjRDMTIuMTQ4OCAxMC4xMjE4IDEyLjI5ODUgOS42ODU2MiAxMi4yNzI1IDkuMjAzODVDMTIuMjU5NSA4LjcwOTA2IDEyLjA2NDIgOC4yNzI4NiAxMS42ODY2IDcuODk1MjZMMTEuMjM3MyA3LjQ0NjA0QzExLjEzMzIgNy4zNDE4OCAxMS4wMTYgNy4yODk3OSAxMC44ODU4IDcuMjg5NzlDMTAuNzU1NiA3LjI4OTc5IDEwLjYzODQgNy4zNDE4OCAxMC41MzQyIDcuNDQ2MDRMOC43MTYzMSA5LjI2Mzk2QzguODY2NjcgOS4zNzc0NSA5LjAwMTk4IDkuNTA4OTIgOS4xMjEzMiA5LjY1NjVDOS4zMDkyIDkuODgyMDIgOS40NTAxMSAxMC4xMzU3IDkuNTQ4MTUgMTAuNDA4QzkuNjUyODMgMTAuNjk4OCA5LjcwMDQ4IDExLjAwMDkgOS43MDA0OCAxMS4zMDZDOS43MDA0OCAxMS40NDM4IDkuNjkwNTMgMTEuNTgwNiA5LjY3MDMgMTEuNzE1N0M5LjcwNDA3IDExLjcxOSA5LjczODE0IDExLjcyMTYgOS43NzI1MSAxMS43MjM0QzEwLjI4MDMgMTEuNzM2NCAxMC43MzYgMTEuNTY3MSAxMS4xMzk3IDExLjIxNTZMMTIuNTI2NCAxMi42MDIzQzEyLjYzMDYgMTIuNzA2NCAxMi43NDEyIDEyLjc1ODUgMTIuODU4NCAxMi43NTg1QzEyLjk4ODYgMTIuNzU4NSAxMy4xMDU4IDEyLjcwNjQgMTMuMjEgMTIuNjAyM0MxMy4zMTQyIDEyLjQ5ODEgMTMuMzY2MiAxMi4zODA5IDEzLjM2NjIgMTIuMjUwN1oiLz4mI3hhOzxwYXRoIGZpbGw9InVybCgjcGFpbnQzX2xpbmVhcl8zODkwXzIxNTM1KSIgZD0iTTQuNTI2NDUgMTIuNzk3N0g3LjM1NDExQzcuNTQwNTUgMTIuNzk3NyA3LjcxNjYzIDEyLjc1OTcgNy44ODIzNSAxMi42ODM3QzguMDQ4MDggMTIuNjA3OCA4LjE4OTYzIDEyLjUwNDIgOC4zMDcwMiAxMi4zNzNDOC40MzEzMSAxMi4yMzQ5IDguNTI3OTkgMTIuMDc2MSA4LjU5NzA0IDExLjg5NjZDOC42NjYwOSAxMS43MTAxIDguNzAwNjEgMTEuNTEzMyA4LjcwMDYxIDExLjMwNjJDOC43MDA2MSAxMS4xMDU5IDguNjY5NTQgMTAuOTE5NSA4LjYwNzQgMTAuNzQ2OEM4LjU0NTI1IDEwLjU3NDIgOC40NTg5MyAxMC40MjIzIDguMzQ4NDUgMTAuMjkxMUM4LjIzNzk3IDEwLjE1MyA4LjEwNjc3IDEwLjA0MjUgNy45NTQ4NiA5Ljk1OTY2QzcuODAyOTUgOS44NzY4IDcuNjQwNjcgOS44Mjg0NiA3LjQ2ODA1IDkuODE0NjVDNy4zMjk5NCA5LjUxMDgzIDcuMTMzMTUgOS4yNjkxNSA2Ljg3NzY2IDkuMDg5NjFDNi42MjIxNyA4LjkxMDA4IDYuMzQ1OTYgOC44MjAzMSA2LjA0OTA0IDguODIwMzFDNS44NTU2OSA4LjgyMDMxIDUuNjY5MjUgOC44NTgyOSA1LjQ4OTcyIDguOTM0MjVDNS4zMTcwOSA5LjAxMDIgNS4xNjE3MyA5LjExMzc4IDUuMDIzNjIgOS4yNDQ5OEM0Ljg4NTUyIDkuMzc2MTggNC43NzE1OSA5LjUzNSA0LjY4MTgyIDkuNzIxNDNDNC41OTIwNSA5LjkwMDk3IDQuNTI5OTEgMTAuMDk0MyA0LjQ5NTM4IDEwLjMwMTVDNC4zNDM0NyAxMC4zMDE1IDQuMTk4NDYgMTAuMzM2IDQuMDYwMzYgMTAuNDA1QzMuOTI5MTYgMTAuNDY3MiAzLjgxNTIyIDEwLjU1NyAzLjcxODU1IDEwLjY3NDNDMy42MjE4OCAxMC43ODQ4IDMuNTQyNDcgMTAuOTE2IDMuNDgwMzIgMTEuMDY3OUMzLjQyNTA4IDExLjIxOTkgMy4zOTc0NiAxMS4zNzg3IDMuMzk3NDYgMTEuNTQ0NEMzLjM5NzQ2IDExLjcxNyAzLjQyNTA4IDExLjg3OTMgMy40ODAzMiAxMi4wMzEyQzMuNTQyNDcgMTIuMTgzMSAzLjYyNTMzIDEyLjMxNzggMy43Mjg5MSAxMi40MzUyQzMuODMyNDkgMTIuNTQ1NiAzLjk1MzMzIDEyLjYzNTQgNC4wOTE0MyAxMi43MDQ1QzQuMjI5NTMgMTIuNzY2NiA0LjM3NDU0IDEyLjc5NzcgNC41MjY0NSAxMi43OTc3WiIvPiYjeGE7PC9nPiYjeGE7PGRlZnM+JiN4YTs8bGluZWFyR3JhZGllbnQgZ3JhZGllbnRVbml0cz0idXNlclNwYWNlT25Vc2UiIHkyPSIxNC43NDUzIiB4Mj0iMTMuNjg1NCIgeTE9IjIuMjY4NDUiIHgxPSIxLjQ0ODQ4IiBpZD0icGFpbnQwX2xpbmVhcl8zODkwXzIxNTM1Ij4mI3hhOzxzdG9wIHN0b3AtY29sb3I9IndoaXRlIi8+JiN4YTs8c3RvcCBzdG9wLWNvbG9yPSIjRUFFQ0VFIiBvZmZzZXQ9IjEiLz4mI3hhOzwvbGluZWFyR3JhZGllbnQ+JiN4YTs8bGluZWFyR3JhZGllbnQgZ3JhZGllbnRVbml0cz0idXNlclNwYWNlT25Vc2UiIHkyPSI3Ljc4MjAyIiB4Mj0iOC4zNzA1NSIgeTE9IjMuNjcxODciIHgxPSI0LjI3NzEiIGlkPSJwYWludDFfbGluZWFyXzM4OTBfMjE1MzUiPiYjeGE7PHN0b3Agc3RvcC1jb2xvcj0iIzAxOTVGRiIvPiYjeGE7PHN0b3Agc3RvcC1jb2xvcj0iIzExNDdFOSIgb2Zmc2V0PSIwLjk5MTAyOCIvPiYjeGE7PC9saW5lYXJHcmFkaWVudD4mI3hhOzxsaW5lYXJHcmFkaWVudCBncmFkaWVudFVuaXRzPSJ1c2VyU3BhY2VPblVzZSIgeTI9IjExLjMyMjQiIHgyPSIxMy4xOTI5IiB5MT0iOC4xMDc2MSIgeDE9IjkuNDEzMzUiIGlkPSJwYWludDJfbGluZWFyXzM4OTBfMjE1MzUiPiYjeGE7PHN0b3Agc3RvcC1jb2xvcj0iIzAxOTVGRiIvPiYjeGE7PHN0b3Agc3RvcC1jb2xvcj0iIzExNDdFOSIgb2Zmc2V0PSIwLjk5MTAyOCIvPiYjeGE7PC9saW5lYXJHcmFkaWVudD4mI3hhOzxsaW5lYXJHcmFkaWVudCBncmFkaWVudFVuaXRzPSJ1c2VyU3BhY2VPblVzZSIgeTI9IjEyLjk3OTQiIHgyPSI2Ljg1MDQ4IiB5MT0iOS40MDU0NyIgeDE9IjQuMTgxNSIgaWQ9InBhaW50M19saW5lYXJfMzg5MF8yMTUzNSI+JiN4YTs8c3RvcCBzdG9wLWNvbG9yPSIjMTM0OEZGIi8+JiN4YTs8c3RvcCBzdG9wLWNvbG9yPSIjMDYyMzhEIiBvZmZzZXQ9IjEiLz4mI3hhOzwvbGluZWFyR3JhZGllbnQ+JiN4YTs8Y2xpcFBhdGggaWQ9ImNsaXAwXzM4OTBfMjE1MzUiPiYjeGE7PHJlY3QgdHJhbnNmb3JtPSJ0cmFuc2xhdGUoMy4zOTc0NiAyLjc5NzYxKSIgZmlsbD0id2hpdGUiIGhlaWdodD0iMTAiIHdpZHRoPSIxMCIvPiYjeGE7PC9jbGlwUGF0aD4mI3hhOzwvZGVmcz4mI3hhOzwvc3ZnPg==;fontStyle=0;fontSize=12;fontColor=#1D2D3E" parent="1" vertex="1">
          <mxGeometry x="401.71000000000004" y="346.84999999999997" width="54.29" height="54.29" as="geometry" />
        </mxCell>
        <mxCell id="i0-r0BhkWRjA8PmNq9u2-57" value="" style="endArrow=blockThin;html=1;rounded=0;strokeColor=#A3A3A3;strokeWidth=2;exitX=1.015;exitY=0.505;exitDx=0;exitDy=0;exitPerimeter=0;endFill=1;endSize=4;startSize=4;entryX=0;entryY=0.5;entryDx=0;entryDy=0;" parent="1" source="i0-r0BhkWRjA8PmNq9u2-55" target="i0-r0BhkWRjA8PmNq9u2-54" edge="1">
          <mxGeometry width="50" height="50" relative="1" as="geometry">
            <mxPoint x="332.14" y="379.95000000000005" as="sourcePoint" />
            <mxPoint x="464.0000000000001" y="360.855" as="targetPoint" />
          </mxGeometry>
        </mxCell>
        <mxCell id="i0-r0BhkWRjA8PmNq9u2-35" value="DEV" style="rounded=1;whiteSpace=wrap;html=1;fillColor=#dae8fc;strokeColor=#6c8ebf;" parent="1" vertex="1">
          <mxGeometry x="560" y="220" width="73" height="20" as="geometry" />
        </mxCell>
        <mxCell id="wNo7IlQ1gwdrVZ6y7zte-2" value="" style="shape=image;verticalLabelPosition=bottom;verticalAlign=top;imageAspect=0;aspect=fixed;image=data:image/svg+xml,PHN2ZyB4bWxucz0iaHR0cDovL3d3dy53My5vcmcvMjAwMC9zdmciIGZpbGw9Im5vbmUiIHZpZXdCb3g9IjAgMCAyOCAyOCIgaGVpZ2h0PSIyOCIgd2lkdGg9IjI4Ij4mI3hhOzxnIGNsaXAtcGF0aD0idXJsKCNjbGlwMF84NzBfMTk0KSI+JiN4YTs8cGF0aCBmaWxsPSJ1cmwoI3BhaW50MF9saW5lYXJfODcwXzE5NCkiIGQ9Ik0yMi4yNDcxIDEzLjY5OTVDMjMuOTUwMiAxNC42MzYyIDI1LjM4NDEgMTUuOTk0NiAyNi40MTE0IDE3LjY0NDZDMjcuNDcwNSAxOS4zMjQ0IDI4IDIxLjIyMzMgMjggMjMuMzQzMlYyNi40NjZDMjggMjcuNDg4MiAyNy40NzA1IDI4LjAwMDIgMjYuNDExNCAyOC4wMDAySDcuNzgxNThDNy4zMDY0MSAyOC4wMDAyIDYuOTIyNDEgMjcuODU0NyA2LjYyOTYgMjcuNTYxOEM2LjMzODUzIDI3LjMwNTggNi4xOTEyNSAyNi45NDExIDYuMTkxMjUgMjYuNDY2VjI0Ljg3NzRIMS41MzQyMkMwLjUxMTk5MiAyNC44Nzc0IDAgMjQuMzY1NCAwIDIzLjM0MzJWMjAuMjIwNEMwIDE4LjY4NDQgMC40MjA4MTUgMTcuMjk3NSAxLjI2MDY5IDE2LjA1NDNDMi4wNjMyMyAxNC44NDU1IDMuMTgxNDEgMTMuODc5NSA0LjQ5Mzk2IDEzLjI2MTFDNC4wMzAzMyAxMi43MzI5IDMuNjc2MyAxMi4xMTc4IDMuNDUyNDQgMTEuNDUxNkMzLjIzNjM0IDEwLjc3ODkgMy4xMjUxNiAxMC4wNzY5IDMuMTIyOCA5LjM3MDM0QzMuMTIyOCA4LjQ5MzY0IDMuMjg3NjIgNy42OTA1OSAzLjYxNzI2IDYuOTU5NDJDMy45NDUxNCA2LjE5MTQzIDQuMzgzNDkgNS41MzM5MSA0LjkzMjMxIDQuOTg2ODVDNS41MDA2NiA0LjQxMzcyIDYuMTY5MjIgMy45NDk1OSA2LjkwNDg4IDMuNjE3NDVDNy42NjYzNSAzLjI5IDguNDg2OTEgMy4xMjIzMSA5LjMxNTggMy4xMjQ3NEM5LjU3MTc5IDMuMTI0NzQgOS44MDg1IDMuMTQyMjggMTAuMDI3NyAzLjE3NzM0QzEwLjI0NjkgMy4xNzczNCAxMC40ODM2IDMuMjE1OTIgMTAuNzM5NiAzLjI4NzgxQzExLjQyMjYgMi4yNzUwOCAxMi4zNDU0IDEuNDQ2ODkgMTMuNDI1OCAwLjg3Njg4N0MxNC41NjAxIDAuMjkyMDMxIDE1LjgxOTQgLTAuMDA4ODEwMjcgMTcuMDk1NiAwLjAwMDE4ODQ2M0MxOC4xOTE1IDAuMDAwMTg4NDYzIDE5LjIxNTUgMC4yMDE4MjkgMjAuMTY0MSAwLjYwMzM1N0MyMS4xMTQ0IDEuMDA2NjQgMjEuOTM1IDEuNTcxMjMgMjIuNjI5MyAyLjMwMjRDMjMuMzIzNyAyLjk5Njc0IDIzLjg3MjUgMy44MTczMyAyNC4yNzQgNC43Njc2OEMyNC42NzczIDUuNjc5NDQgMjQuODc3MiA2LjY4NTg5IDI0Ljg3NzIgNy43ODE3N0MyNC44ODA4IDguOTMzNzYgMjQuNjM4IDEwLjA3MzIgMjQuMTY1MyAxMS4xMjM3QzIzLjc0MzMgMTIuMTI0NyAyMy4wODUyIDEzLjAwODQgMjIuMjQ3MSAxMy42OTk1Wk0xNy4wOTM5IDMuMTIyOTlDMTUuNzc4OCAzLjEyMjk5IDE0LjY2NTQgMy41Nzg4NyAxMy43NTE5IDQuNDk0MTVDMTIuODc1MiA1LjM3MDg0IDEyLjQzNjggNi40NjY3MiAxMi40MzY4IDcuNzgxNzdDMTIuNDM2OCA5LjA5NjgxIDEyLjg3NTIgMTAuMjEwMiAxMy43NTE5IDExLjEyMzdDMTQuNjYzNyAxMi4wMDA0IDE1Ljc3ODggMTIuNDM4OCAxNy4wOTM5IDEyLjQzODhDMTguNDA4OSAxMi40Mzg4IDE5LjUwNDggMTIuMDAwNCAyMC4zODE1IDExLjEyMzdDMjEuMjk1IDEwLjIxMiAyMS43NTA5IDkuMDk2ODEgMjEuNzUwOSA3Ljc4MTc3QzIxLjc1MDkgNi40NjY3MiAyMS4yOTUgNS4zNzA4NCAyMC4zODMyIDQuNDk0MTVDMTkuNTA2NSAzLjU4MDYzIDE4LjQwODkgMy4xMjI5OSAxNy4wOTM5IDMuMTIyOTlaTTkuMTUwOTggNi4yNDkzQzguMzA5MzUgNi4yNDkzIDcuNTc5OTQgNi41NTk2NSA2Ljk1OTIzIDcuMTgwMzVDNi4zNzUzNSA3Ljc2NDIzIDYuMDgyNTQgOC40OTU0IDYuMDgyNTQgOS4zNzIxQzYuMDgyNTQgMTAuMjEzNyA2LjM3NTM1IDEwLjk0MzEgNi45NTkyMyAxMS41NjM4QzcuNTc5OTQgMTIuMTQ3NyA4LjMwOTM1IDEyLjQ0MDUgOS4xNTA5OCAxMi40NDA1SDEwLjkwNDRDMTAuNDE0MiAxMS43OTA5IDEwLjAyNjMgMTEuMDcwMSA5Ljc1NDE1IDEwLjMwMzJDOS40NjczMyA5LjQ5MzkxIDkuMzE5MTMgOC42NDIwOCA5LjMxNTggNy43ODM1MlY3LjAxMjAyQzkuMzQ1MDUgNi43NTE5MSA5LjM5OTY2IDYuNDk1MjggOS40Nzg4NiA2LjI0NTc5SDkuMTUwOThWNi4yNDkzWk0zLjEyMjggMjEuODEwN0g2LjM1NjA2QzYuNjg1NyAxOS4yODkzIDcuNzI1NDcgMTcuMjA4IDkuNDc4ODYgMTUuNTYzM0g3Ljc4MzMzQzYuNDY4MjggMTUuNTYzMyA1LjM1MzEyIDE2LjAxOTIgNC40Mzk2IDE2LjkzMjdDMy41NjI5IDE3LjgwOTQgMy4xMjQ1NSAxOC45MDcxIDMuMTI0NTUgMjAuMjIyMUwzLjEyMjggMjEuODEwN1pNMjQuODc3MiAyMy4zNDQ5QzI0Ljg4OTMgMjIuMzA5MSAyNC42ODM5IDIxLjI4MjIgMjQuMjc0IDIwLjMzMDhDMjMuODkxMiAxOS40MSAyMy4zMzI1IDE4LjU3MjcgMjIuNjI5MyAxNy44NjU2QzIxLjkzNDUgMTcuMTM0MSAyMS4wOTQ5IDE2LjU1NTUgMjAuMTY0MSAxNi4xNjY1QzE5LjE5MjUgMTUuNzYwMiAxOC4xNDg3IDE1LjU1NSAxNy4wOTU2IDE1LjU2MzNDMTUuOTk5NyAxNS41NjMzIDE0Ljk3NzUgMTUuNzY1IDE0LjAyNzIgMTYuMTY2NUMxMy4xMTU0IDE2LjU2OTggMTIuMjkxMyAxNy4xMzQ0IDExLjU2MTkgMTcuODY1NkMxMC44NTg3IDE4LjU3MjYgMTAuMyAxOS40MSA5LjkxNzIxIDIwLjMzMDhDOS41MDgwNCAyMS4yODI0IDkuMzAzMTUgMjIuMzA5MiA5LjMxNTggMjMuMzQ0OVYyNC44NzkxSDI0Ljg3NzJWMjMuMzQ0OVoiLz4mI3hhOzwvZz4mI3hhOzxkZWZzPiYjeGE7PGxpbmVhckdyYWRpZW50IGdyYWRpZW50VW5pdHM9InVzZXJTcGFjZU9uVXNlIiB5Mj0iMTcuMTI4NSIgeDI9IjI4LjM0MjkiIHkxPSIyLjYzMzkxIiB4MT0iMy42MTg3NCIgaWQ9InBhaW50MF9saW5lYXJfODcwXzE5NCI+JiN4YTs8c3RvcCBzdG9wLWNvbG9yPSIjMjM5NUZGIi8+JiN4YTs8c3RvcCBzdG9wLWNvbG9yPSIjMDA1N0QyIiBvZmZzZXQ9IjEiLz4mI3hhOzwvbGluZWFyR3JhZGllbnQ+JiN4YTs8Y2xpcFBhdGggaWQ9ImNsaXAwXzg3MF8xOTQiPiYjeGE7PHJlY3QgZmlsbD0id2hpdGUiIGhlaWdodD0iMjgiIHdpZHRoPSIyOCIvPiYjeGE7PC9jbGlwUGF0aD4mI3hhOzwvZGVmcz4mI3hhOzwvc3ZnPg==" parent="1" vertex="1">
          <mxGeometry x="-387" y="330" width="28" height="28" as="geometry" />
        </mxCell>
        <mxCell id="wNo7IlQ1gwdrVZ6y7zte-3" value="" style="shape=image;verticalLabelPosition=bottom;verticalAlign=top;imageAspect=0;aspect=fixed;image=data:image/svg+xml,PHN2ZyB4bWxucz0iaHR0cDovL3d3dy53My5vcmcvMjAwMC9zdmciIGZpbGw9Im5vbmUiIHZpZXdCb3g9IjAgMCAyOSAyOCIgaGVpZ2h0PSIyOCIgd2lkdGg9IjI5Ij4mI3hhOzxnIGNsaXAtcGF0aD0idXJsKCNjbGlwMF84NzBfMTg0KSI+JiN4YTs8cGF0aCBmaWxsPSJ1cmwoI3BhaW50MF9saW5lYXJfODcwXzE4NCkiIGQ9Ik0xNC40NzYxIDIxLjAxNDJWMjMuMzE0NkgxNS42MjYyQzE2LjM5NDIgMjMuMzE0NiAxNi43NzY0IDIzLjcxNzkgMTYuNzc2NCAyNC41MjA5QzE2Ljc4MDggMjQuNjczMSAxNi43NTQgMjQuODI0NSAxNi42OTc2IDI0Ljk2NkMxNi42NDEyIDI1LjEwNzQgMTYuNTU2NCAyNS4yMzU4IDE2LjQ0ODYgMjUuMzQzMkMxNi4yNjYyIDI1LjU2MDYgMTUuOTkyNyAyNS42NzExIDE1LjYyNjIgMjUuNjcxMUg4LjYxMjk0QzguNDYwOTIgMjUuNjc1IDguMzA5NzEgMjUuNjQ3NyA4LjE2ODU5IDI1LjU5MTFDOC4wMjc0OCAyNS41MzQ0IDcuODk5NDYgMjUuNDQ5NCA3Ljc5MjM5IDI1LjM0MTRDNy42ODQ0IDI1LjIzNDQgNy41OTk0NSAyNS4xMDYzIDcuNTQyNzYgMjQuOTY1MkM3LjQ4NjA3IDI0LjgyNDEgNy40NTg4NSAyNC42NzI5IDcuNDYyNzYgMjQuNTIwOUM3LjQ2Mjc2IDI0LjE1NDQgNy41NzMyMiAyMy44NjM0IDcuNzkyMzkgMjMuNjQ0MkM3Ljg5OTQ2IDIzLjUzNjIgOC4wMjc0OCAyMy40NTEzIDguMTY4NTkgMjMuMzk0NkM4LjMwOTcxIDIzLjMzNzkgOC40NjA5MiAyMy4zMTA3IDguNjEyOTQgMjMuMzE0NkgxMi4xMTk2VjIxLjAxNDJIMy45NTYxMUMzLjQ5MTU4IDIxLjAyMzcgMy4wMjk3NSAyMC45NDEzIDIuNTk3MSAyMC43NzE5QzIuMTY0NDUgMjAuNjAyNSAxLjc2OTQ4IDIwLjM0OTQgMS40MzQ4MyAyMC4wMjcxQzEuMTEzMDMgMTkuNjkyNSAwLjg2MDM3IDE5LjI5NzggMC42OTEyOSAxOC44NjU0QzAuNTIyMjA5IDE4LjQzMzEgMC40NDAwMzIgMTcuOTcxNyAwLjQ0OTQ1OSAxNy41MDc2VjUuODM3NDRDMC40NDk0NTkgNC44NTAzMiAwLjc3OTA4NCA0LjAyODAxIDEuNDM2NTggMy4zNzA1MUMxLjc2MzE2IDMuMDM0MDUgMi4xNTUyIDIuNzY4MDYgMi41ODg1MyAyLjU4ODk0QzMuMDIxODYgMi40MDk4MiAzLjQ4NzI4IDIuMzIxMzcgMy45NTYxMSAyLjMyOTAzSDIyLjYzOTVDMjMuNjI2NyAyLjMyOTAzIDI0LjQ0NzIgMi42NzYxOSAyNS4xMDQ3IDMuMzcwNTFDMjUuNzk5IDQuMDI4MDEgMjYuMTQ2MiA0Ljg1MDMyIDI2LjE0NjIgNS44MzU2OVY4LjE5MjE2QzI2LjE1MDYgOC4zNDQzNCAyNi4xMjM4IDguNDk1ODIgMjYuMDY3NCA4LjYzNzI0QzI2LjAxMSA4Ljc3ODY2IDI1LjkyNjIgOC45MDcwNCAyNS44MTgzIDkuMDE0NDZDMjUuNzAyMyA5LjEyNjA4IDI1LjU2NDcgOS4yMTI4NyAyNS40MTM5IDkuMjY5NTRDMjUuMjYzMiA5LjMyNjIyIDI1LjEwMjUgOS4zNTE1OCAyNC45NDE3IDkuMzQ0MDlDMjQuNzg5NCA5LjM0ODI0IDI0LjYzNzggOS4zMjExNCAyNC40OTY0IDkuMjY0NDRDMjQuMzU0OSA5LjIwNzc1IDI0LjIyNjYgOS4xMjI2NyAyNC4xMTk0IDkuMDE0NDZDMjQuMDExMSA4LjkwNzE5IDIzLjkyNjEgOC43Nzg4OCAyMy44Njk0IDguNjM3NDVDMjMuODEyNyA4LjQ5NjAyIDIzLjc4NTYgOC4zNDQ0NyAyMy43ODk3IDguMTkyMTZWNS44Mzc0NEMyMy43ODk3IDUuMDY5NDggMjMuNDA3NSA0LjY4NTUgMjIuNjM5NSA0LjY4NTVIMy45NTYxMUMzLjE4ODE1IDQuNjg1NSAyLjgwNTkzIDUuMDY5NDggMi44MDU5MyA1LjgzNTY5VjE3LjUwNzZDMi44MDU5MyAxOC4yNzM4IDMuMTg4MTUgMTguNjU3OCAzLjk1NjExIDE4LjY1NzhIMTUuNjI2MkMxNi4zOTQyIDE4LjY1NzggMTYuNzc2NCAxOS4wNjEgMTYuNzc2NCAxOS44NjRDMTYuNzgwNiAyMC4wMTU5IDE2Ljc1MzYgMjAuMTY3MSAxNi42OTcyIDIwLjMwODJDMTYuNjQwOSAyMC40NDkzIDE2LjU1NjIgMjAuNTc3NCAxNi40NDg2IDIwLjY4NDZDMTYuMjY2MiAyMC45MDM4IDE1Ljk5MjcgMjEuMDE0MiAxNS42MjYyIDIxLjAxNDJIMTQuNDc2MVpNMjcuMjk4MSAxMS42NDQ1QzI4LjA2NDMgMTEuNjQ0NSAyOC40NDgzIDEyLjA0NzcgMjguNDQ4MyAxMi44NTA3VjI0LjUyMDlDMjguNDUyNSAyNC42NzMyIDI4LjQyNTQgMjQuODI0NyAyOC4zNjg3IDI0Ljk2NjJDMjguMzEyIDI1LjEwNzYgMjguMjI2OSAyNS4yMzU5IDI4LjExODcgMjUuMzQzMkMyNy45MzYzIDI1LjU2MDYgMjcuNjYyOCAyNS42NzExIDI3LjI5NjQgMjUuNjcxMUgyMC4yODMxQzIwLjEzMTEgMjUuNjc1IDE5Ljk3OTggMjUuNjQ3NyAxOS44Mzg3IDI1LjU5MTFDMTkuNjk3NiAyNS41MzQ0IDE5LjU2OTYgMjUuNDQ5NCAxOS40NjI1IDI1LjM0MTRDMTkuMzU0NSAyNS4yMzQ0IDE5LjI2OTYgMjUuMTA2MyAxOS4yMTI5IDI0Ljk2NTJDMTkuMTU2MiAyNC44MjQxIDE5LjEyOSAyNC42NzI5IDE5LjEzMjkgMjQuNTIwOVYxMi44NTA3QzE5LjEzMjkgMTIuNDg0MyAxOS4yNDM0IDEyLjE5MzIgMTkuNDYyNSAxMS45NzQxQzE5LjU2OTggMTEuODY1OSAxOS42OTgxIDExLjc4MDggMTkuODM5NSAxMS43MjQxQzE5Ljk4MSAxMS42Njc0IDIwLjEzMjUgMTEuNjQwMyAyMC4yODQ4IDExLjY0NDVIMjcuMjk4MVpNMjEuNDg5NCAxNC4wMDA5VjIyLjE2NDRIMjYuMTQ2MlYxNC4wMDA5SDIxLjQ4OTRaIi8+JiN4YTs8L2c+JiN4YTs8ZGVmcz4mI3hhOzxsaW5lYXJHcmFkaWVudCBncmFkaWVudFVuaXRzPSJ1c2VyU3BhY2VPblVzZSIgeTI9IjIwLjE1NjIiIHgyPSIyNi4yOTY0IiB5MT0iNC41MjQzOSIgeDE9IjQuMDY3NDciIGlkPSJwYWludDBfbGluZWFyXzg3MF8xODQiPiYjeGE7PHN0b3Agc3RvcC1jb2xvcj0iIzIzOTVGRiIvPiYjeGE7PHN0b3Agc3RvcC1jb2xvcj0iIzAwNTdEMiIgb2Zmc2V0PSIxIi8+JiN4YTs8L2xpbmVhckdyYWRpZW50PiYjeGE7PGNsaXBQYXRoIGlkPSJjbGlwMF84NzBfMTg0Ij4mI3hhOzxyZWN0IHRyYW5zZm9ybT0idHJhbnNsYXRlKDAuNDQ4NzMpIiBmaWxsPSJ3aGl0ZSIgaGVpZ2h0PSIyOCIgd2lkdGg9IjI4Ii8+JiN4YTs8L2NsaXBQYXRoPiYjeGE7PC9kZWZzPiYjeGE7PC9zdmc+" parent="1" vertex="1">
          <mxGeometry x="-398.9" y="250" width="51.79" height="50" as="geometry" />
        </mxCell>
        <mxCell id="wNo7IlQ1gwdrVZ6y7zte-4" style="edgeStyle=none;rounded=0;orthogonalLoop=1;jettySize=auto;html=1;fontColor=#BFBFBF;fontSize=13;strokeColor=#A3A3A3;endSize=5;strokeWidth=2;endArrow=blockThin;endFill=1;entryX=0;entryY=0.5;entryDx=0;entryDy=0;exitX=1;exitY=0.5;exitDx=0;exitDy=0;" parent="1" source="i0-r0BhkWRjA8PmNq9u2-54" target="i0-r0BhkWRjA8PmNq9u2-30" edge="1">
          <mxGeometry relative="1" as="geometry">
            <mxPoint x="439" y="417" as="sourcePoint" />
            <mxPoint x="600" y="483" as="targetPoint" />
          </mxGeometry>
        </mxCell>
        <mxCell id="lm74C0_KvX_3WtNFRdFN-2" value="SubAccount PRD" style="rounded=1;whiteSpace=wrap;html=1;strokeColor=#0070F2;strokeWidth=1.5;arcSize=24;fillColor=#FFFFFF;perimeterSpacing=0;absoluteArcSize=1;fontSize=16;align=left;verticalAlign=top;fontStyle=1" vertex="1" parent="1">
          <mxGeometry x="-300" y="484.71" width="360" height="147.29" as="geometry" />
        </mxCell>
        <mxCell id="lm74C0_KvX_3WtNFRdFN-3" value="SAP Build Work Zone -&#xa;Standard Edition" style="shape=image;verticalLabelPosition=bottom;verticalAlign=top;aspect=fixed;imageAspect=0;image=data:image/svg+xml,PHN2ZyB4bWxucz0iaHR0cDovL3d3dy53My5vcmcvMjAwMC9zdmciIGZpbGw9Im5vbmUiIHZpZXdCb3g9IjAgMCAxNiAxNiIgaGVpZ2h0PSIxNiIgd2lkdGg9IjE2Ij4mI3hhOzxnIGNsaXAtcGF0aD0idXJsKCNjbGlwMF8zMTA2XzI3MTAxKSI+JiN4YTs8Y2lyY2xlIHN0cm9rZS13aWR0aD0iMC4yNzM4MDkiIHN0cm9rZT0iI0Q1REFERCIgZmlsbD0idXJsKCNwYWludDBfbGluZWFyXzMxMDZfMjcxMDEpIiByPSI3LjUyOTc0IiBjeT0iNy45OTk4OSIgY3g9IjcuOTk4OTIiLz4mI3hhOzxnIGNsaXAtcGF0aD0idXJsKCNjbGlwMV8zMTA2XzI3MTAxKSI+JiN4YTs8bWFzayBoZWlnaHQ9IjEzIiB3aWR0aD0iMTIiIHk9IjIiIHg9IjIiIG1hc2tVbml0cz0idXNlclNwYWNlT25Vc2UiIHN0eWxlPSJtYXNrLXR5cGU6YWxwaGEiIGlkPSJtYXNrMF8zMTA2XzI3MTAxIj4mI3hhOzxwYXRoIGZpbGw9ImJsYWNrIiBkPSJNOC40MjExOCAxMC43MzMzQzguNjQxMDYgMTEuMzUyNCA5LjI4Njc1IDExLjcwNDcgMTAuMDEwNSAxMS43MDQ3QzEwLjczNDIgMTEuNzA0NyAxMS4zNDY4IDExLjE3OTEgMTEuNTE5NyAxMC43MDdMMTIuODg3NyA2LjkzODQ5QzEzLjE2MDEgNi4xODgwNCAxMi43NzQyIDUuMzU4MjQgMTIuMDI1OCA1LjA4NTFDMTEuMzM3NCA0LjgzMzg5IDEwLjU4MjIgNS4xNDEgMTAuMjUzNCA1Ljc3NTcyQzEwLjIwMTEgNS44OTQwOSAxMC4xNDc1IDYuMDcyMTYgMTAuMjExNiA2LjI2MTc3TDEwLjg5OTYgOC4xNjUzMUMxMC45MzQxIDguMjYwNzUgMTAuODg5NSA4LjM2NjczIDEwLjc5NzIgOC40MDg0NUMxMC42ODMzIDguNDU5OTMgMTAuNTQ2OCA4LjM5MjYzIDEwLjUxNjggOC4yNzEwNkMxMC4yOTc0IDcuMzgyODcgOS41NjI3OCA2LjgxNjE3IDguNjU0NiA3LjE1MDYzQzcuNzQ2NDIgNy40ODUxIDcuNTU1MjEgOC4zNDc3MiA3LjgyNzYzIDkuMDk4MThMOC40MjExOCAxMC43MzMzWiIvPiYjeGE7PHBhdGggZmlsbD0iYmxhY2siIGQ9Ik0zLjQ3MjEzIDYuOTMyNDVDMy4xOTk3MiA2LjE4MTk5IDMuNTg1NjIgNS4zNTIyIDQuMzM0MDYgNS4wNzkwNkM1LjA4MjUxIDQuODA1OTEgNS45MTAwOCA1LjE5Mjg1IDYuMTgyNSA1Ljk0MzMxTDcuNTQ5NzQgOS43MDk4MkM3LjgyMjE1IDEwLjQ2MDMgNy40MzYyNiAxMS4yOTAxIDYuNjg3ODEgMTEuNTYzMkM1LjkzOTM2IDExLjgzNjQgNS4xMTE3OSAxMS40NDk0IDQuODM5MzcgMTAuNjk5TDMuNDcyMTMgNi45MzI0NVoiLz4mI3hhOzwvbWFzaz4mI3hhOzxnIG1hc2s9InVybCgjbWFzazBfMzEwNl8yNzEwMSkiPiYjeGE7PGcgZmlsdGVyPSJ1cmwoI2ZpbHRlcjBfZF8zMTA2XzI3MTAxKSI+JiN4YTs8cGF0aCBmaWxsPSJ1cmwoI3BhaW50MV9yYWRpYWxfMzEwNl8yNzEwMSkiIGQ9Ik02LjYzNDM0IDAuODcxOTU0QzguNjcyNDkgMC4yOTI4MzUgMTEuMDgyMyAxLjI5MTgzIDEyLjU1MTQgMy45Mzg4NEMxNi4zMzM1IDkuMDE5NDkgMTkuNzUzNyAxNC45MTk2IDExLjk2MDkgMTcuNjc2OEM0LjE2ODEzIDIwLjQzNCA0LjM1MDY3IDE0Ljc3ODIgMS43NTIyNSAxMC4wOTY0Qy0wLjg0NjE2NyA1LjQxNDU1IDQuNTk2MTkgMS40NTEwNyA2LjYzNDM0IDAuODcxOTU0WiIvPiYjeGE7PC9nPiYjeGE7PGcgZmlsdGVyPSJ1cmwoI2ZpbHRlcjFfZF8zMTA2XzI3MTAxKSI+JiN4YTs8cGF0aCBmaWxsPSJ1cmwoI3BhaW50Ml9yYWRpYWxfMzEwNl8yNzEwMSkiIGQ9Ik0xMi42NTQyIDEwLjI3OThDMTEuODQ2MiAxMi4wMTA3IDkuNTMyOTggMTQuMDk2MSA3Ljk2MzgxIDE0LjIzNTdDNC43NDYwMyAxNC45MzE0IC0wLjI2MjI1NSAxMS43NDczIDAuMTY2MTEgOS41ODQ4MUMwLjU5NDQ3NSA3LjQyMjM3IDQuNjY1NjUgNi4zNjU5OSA3LjQ1MjY5IDYuMzg5OTNDMTAuMjM5NyA2LjQxMzg4IDEzLjQ2MjEgOC41NDg5NSAxMi42NTQyIDEwLjI3OThaIi8+JiN4YTs8L2c+JiN4YTs8ZyBmaWx0ZXI9InVybCgjZmlsdGVyMl9kXzMxMDZfMjcxMDEpIj4mI3hhOzxwYXRoIGZpbGw9InVybCgjcGFpbnQzX3JhZGlhbF8zMTA2XzI3MTAxKSIgZD0iTTMuMzUzNjEgOC4zOTkzNkM2Ljk2MjAxIDcuNDQ1NTcgMTAuMTEwOSA3LjMwNjg2IDEwLjQ4NjcgMTAuNjg5NkMxMC43OTE3IDEzLjQzNDkgNi45NTY4IDE1LjY1NzggNC4yMTE0NyAxNS45NjI4QzEuNDY2MTQgMTYuMjY3OCAtMC4xMDIyOTYgOS4zMTI4NCAzLjM1MzYxIDguMzk5MzZaIi8+JiN4YTs8L2c+JiN4YTs8L2c+JiN4YTs8L2c+JiN4YTs8L2c+JiN4YTs8ZGVmcz4mI3hhOzxmaWx0ZXIgY29sb3ItaW50ZXJwb2xhdGlvbi1maWx0ZXJzPSJzUkdCIiBmaWx0ZXJVbml0cz0idXNlclNwYWNlT25Vc2UiIGhlaWdodD0iMTkuMDM1MiIgd2lkdGg9IjE2Ljk0MTQiIHk9IjAuMDg1MTI1NCIgeD0iMC42MTQ4MjkiIGlkPSJmaWx0ZXIwX2RfMzEwNl8yNzEwMSI+JiN4YTs8ZmVGbG9vZCByZXN1bHQ9IkJhY2tncm91bmRJbWFnZUZpeCIgZmxvb2Qtb3BhY2l0eT0iMCIvPiYjeGE7PGZlQ29sb3JNYXRyaXggcmVzdWx0PSJoYXJkQWxwaGEiIHZhbHVlcz0iMCAwIDAgMCAwIDAgMCAwIDAgMCAwIDAgMCAwIDAgMCAwIDAgMTI3IDAiIHR5cGU9Im1hdHJpeCIgaW49IlNvdXJjZUFscGhhIi8+JiN4YTs8ZmVPZmZzZXQgZHk9IjAuMDQ0ODQwNCIgZHg9IjAuMjI0MjAyIi8+JiN4YTs8ZmVHYXVzc2lhbkJsdXIgc3RkRGV2aWF0aW9uPSIwLjMzNjMwMyIvPiYjeGE7PGZlQ29tcG9zaXRlIG9wZXJhdG9yPSJvdXQiIGluMj0iaGFyZEFscGhhIi8+JiN4YTs8ZmVDb2xvck1hdHJpeCB2YWx1ZXM9IjAgMCAwIDAgMCAwIDAgMCAwIDAgMCAwIDAgMCAwIDAgMCAwIDAuNCAwIiB0eXBlPSJtYXRyaXgiLz4mI3hhOzxmZUJsZW5kIHJlc3VsdD0iZWZmZWN0MV9kcm9wU2hhZG93XzMxMDZfMjcxMDEiIGluMj0iQmFja2dyb3VuZEltYWdlRml4IiBtb2RlPSJub3JtYWwiLz4mI3hhOzxmZUJsZW5kIHJlc3VsdD0ic2hhcGUiIGluMj0iZWZmZWN0MV9kcm9wU2hhZG93XzMxMDZfMjcxMDEiIGluPSJTb3VyY2VHcmFwaGljIiBtb2RlPSJub3JtYWwiLz4mI3hhOzwvZmlsdGVyPiYjeGE7PGZpbHRlciBjb2xvci1pbnRlcnBvbGF0aW9uLWZpbHRlcnM9InNSR0IiIGZpbHRlclVuaXRzPSJ1c2VyU3BhY2VPblVzZSIgaGVpZ2h0PSI5LjI4ODU3IiB3aWR0aD0iMTMuOTg1MyIgeT0iNS43NjE4OCIgeD0iLTAuMzA4MDIzIiBpZD0iZmlsdGVyMV9kXzMxMDZfMjcxMDEiPiYjeGE7PGZlRmxvb2QgcmVzdWx0PSJCYWNrZ3JvdW5kSW1hZ2VGaXgiIGZsb29kLW9wYWNpdHk9IjAiLz4mI3hhOzxmZUNvbG9yTWF0cml4IHJlc3VsdD0iaGFyZEFscGhhIiB2YWx1ZXM9IjAgMCAwIDAgMCAwIDAgMCAwIDAgMCAwIDAgMCAwIDAgMCAwIDEyNyAwIiB0eXBlPSJtYXRyaXgiIGluPSJTb3VyY2VBbHBoYSIvPiYjeGE7PGZlT2Zmc2V0IGR5PSIwLjA0NDg0MDQiIGR4PSIwLjIyNDIwMiIvPiYjeGE7PGZlR2F1c3NpYW5CbHVyIHN0ZERldmlhdGlvbj0iMC4zMzYzMDMiLz4mI3hhOzxmZUNvbXBvc2l0ZSBvcGVyYXRvcj0ib3V0IiBpbjI9ImhhcmRBbHBoYSIvPiYjeGE7PGZlQ29sb3JNYXRyaXggdmFsdWVzPSIwIDAgMCAwIDAgMCAwIDAgMCAwIDAgMCAwIDAgMCAwIDAgMCAwLjQgMCIgdHlwZT0ibWF0cml4Ii8+JiN4YTs8ZmVCbGVuZCByZXN1bHQ9ImVmZmVjdDFfZHJvcFNoYWRvd18zMTA2XzI3MTAxIiBpbjI9IkJhY2tncm91bmRJbWFnZUZpeCIgbW9kZT0ibm9ybWFsIi8+JiN4YTs8ZmVCbGVuZCByZXN1bHQ9InNoYXBlIiBpbjI9ImVmZmVjdDFfZHJvcFNoYWRvd18zMTA2XzI3MTAxIiBpbj0iU291cmNlR3JhcGhpYyIgbW9kZT0ibm9ybWFsIi8+JiN4YTs8L2ZpbHRlcj4mI3hhOzxmaWx0ZXIgY29sb3ItaW50ZXJwb2xhdGlvbi1maWx0ZXJzPSJzUkdCIiBmaWx0ZXJVbml0cz0idXNlclNwYWNlT25Vc2UiIGhlaWdodD0iOS41MDUzNyIgd2lkdGg9IjEwLjQ3NzgiIHk9IjcuMTg0NDkiIHg9IjAuOTIyOTM0IiBpZD0iZmlsdGVyMl9kXzMxMDZfMjcxMDEiPiYjeGE7PGZlRmxvb2QgcmVzdWx0PSJCYWNrZ3JvdW5kSW1hZ2VGaXgiIGZsb29kLW9wYWNpdHk9IjAiLz4mI3hhOzxmZUNvbG9yTWF0cml4IHJlc3VsdD0iaGFyZEFscGhhIiB2YWx1ZXM9IjAgMCAwIDAgMCAwIDAgMCAwIDAgMCAwIDAgMCAwIDAgMCAwIDEyNyAwIiB0eXBlPSJtYXRyaXgiIGluPSJTb3VyY2VBbHBoYSIvPiYjeGE7PGZlT2Zmc2V0IGR5PSIwLjA0NDg0MDQiIGR4PSIwLjIyNDIwMiIvPiYjeGE7PGZlR2F1c3NpYW5CbHVyIHN0ZERldmlhdGlvbj0iMC4zMzYzMDMiLz4mI3hhOzxmZUNvbXBvc2l0ZSBvcGVyYXRvcj0ib3V0IiBpbjI9ImhhcmRBbHBoYSIvPiYjeGE7PGZlQ29sb3JNYXRyaXggdmFsdWVzPSIwIDAgMCAwIDAgMCAwIDAgMCAwIDAgMCAwIDAgMCAwIDAgMCAwLjQgMCIgdHlwZT0ibWF0cml4Ii8+JiN4YTs8ZmVCbGVuZCByZXN1bHQ9ImVmZmVjdDFfZHJvcFNoYWRvd18zMTA2XzI3MTAxIiBpbjI9IkJhY2tncm91bmRJbWFnZUZpeCIgbW9kZT0ibm9ybWFsIi8+JiN4YTs8ZmVCbGVuZCByZXN1bHQ9InNoYXBlIiBpbjI9ImVmZmVjdDFfZHJvcFNoYWRvd18zMTA2XzI3MTAxIiBpbj0iU291cmNlR3JhcGhpYyIgbW9kZT0ibm9ybWFsIi8+JiN4YTs8L2ZpbHRlcj4mI3hhOzxsaW5lYXJHcmFkaWVudCBncmFkaWVudFVuaXRzPSJ1c2VyU3BhY2VPblVzZSIgeTI9IjE0LjQ2NjgiIHgyPSIxMy40NTAxIiB5MT0iMi41MDk1NyIgeDE9IjEuNzIyNzciIGlkPSJwYWludDBfbGluZWFyXzMxMDZfMjcxMDEiPiYjeGE7PHN0b3Agc3RvcC1jb2xvcj0id2hpdGUiLz4mI3hhOzxzdG9wIHN0b3AtY29sb3I9IiNFQUVDRUUiIG9mZnNldD0iMSIvPiYjeGE7PC9saW5lYXJHcmFkaWVudD4mI3hhOzxyYWRpYWxHcmFkaWVudCBncmFkaWVudFRyYW5zZm9ybT0idHJhbnNsYXRlKDcuMTQyMiAxMC41MTEzKSByb3RhdGUoLTc1LjY1MTMpIHNjYWxlKDE1Ljk3MDUgMTUuNzQ5OCkiIGdyYWRpZW50VW5pdHM9InVzZXJTcGFjZU9uVXNlIiByPSIxIiBjeT0iMCIgY3g9IjAiIGlkPSJwYWludDFfcmFkaWFsXzMxMDZfMjcxMDEiPiYjeGE7PHN0b3Agc3RvcC1jb2xvcj0iIzEzNDhGRiIvPiYjeGE7PHN0b3Agc3RvcC1jb2xvcj0iIzA2MjM4RCIgb2Zmc2V0PSIxIi8+JiN4YTs8L3JhZGlhbEdyYWRpZW50PiYjeGE7PHJhZGlhbEdyYWRpZW50IGdyYWRpZW50VHJhbnNmb3JtPSJ0cmFuc2xhdGUoMy4xOTI5OSA3LjMwMjE1KSByb3RhdGUoMzEuOTgpIHNjYWxlKDE1LjI2ODUgMjcuNTc2KSIgZ3JhZGllbnRVbml0cz0idXNlclNwYWNlT25Vc2UiIHI9IjEiIGN5PSIwIiBjeD0iMCIgaWQ9InBhaW50Ml9yYWRpYWxfMzEwNl8yNzEwMSI+JiN4YTs8c3RvcCBzdG9wLWNvbG9yPSIjMDE5NUZGIi8+JiN4YTs8c3RvcCBzdG9wLWNvbG9yPSIjMTE0N0U5IiBvZmZzZXQ9IjEiLz4mI3hhOzwvcmFkaWFsR3JhZGllbnQ+JiN4YTs8cmFkaWFsR3JhZGllbnQgZ3JhZGllbnRUcmFuc2Zvcm09InRyYW5zbGF0ZSgzLjg2NDM3IDE1LjI1NDIpIHJvdGF0ZSgtNDYuOTU3OSkgc2NhbGUoMTEuNzY0NCAxNi4xODIpIiBncmFkaWVudFVuaXRzPSJ1c2VyU3BhY2VPblVzZSIgcj0iMSIgY3k9IjAiIGN4PSIwIiBpZD0icGFpbnQzX3JhZGlhbF8zMTA2XzI3MTAxIj4mI3hhOzxzdG9wIHN0b3AtY29sb3I9IiMwMEJCRkYiLz4mI3hhOzxzdG9wIHN0b3AtY29sb3I9IiMwMDhCRkYiIG9mZnNldD0iMSIvPiYjeGE7PC9yYWRpYWxHcmFkaWVudD4mI3hhOzxjbGlwUGF0aCBpZD0iY2xpcDBfMzEwNl8yNzEwMSI+JiN4YTs8cmVjdCB0cmFuc2Zvcm09InRyYW5zbGF0ZSgtMC4wMDA5NzY1NjIpIiBmaWxsPSJ3aGl0ZSIgaGVpZ2h0PSIxNS45OTk5IiB3aWR0aD0iMTUuOTk5OSIvPiYjeGE7PC9jbGlwUGF0aD4mI3hhOzxjbGlwUGF0aCBpZD0iY2xpcDFfMzEwNl8yNzEwMSI+JiN4YTs8cmVjdCB0cmFuc2Zvcm09InRyYW5zbGF0ZSgzLjMzMjI4IDMuNSkiIGZpbGw9IndoaXRlIiBoZWlnaHQ9IjkuNjY2NjQiIHdpZHRoPSI5LjY2NjY0Ii8+JiN4YTs8L2NsaXBQYXRoPiYjeGE7PC9kZWZzPiYjeGE7PC9zdmc+;points=[[0,0,0,0,0],[0,0.25,0,0,0],[0,0.5,0,0,0],[0,0.75,0,0,0],[0.25,0,0,0,0],[0.5,0,0,0,0],[0.75,0,0,0,0],[1,0,0,0,0],[1,0.25,0,0,0],[1,0.5,0,0,0],[1,0.75,0,0,0]];container=0;fontStyle=0;fontSize=12;fontColor=#1D2D3E;" vertex="1" parent="1">
          <mxGeometry x="-44" y="532" width="50" height="50" as="geometry" />
        </mxCell>
        <mxCell id="lm74C0_KvX_3WtNFRdFN-5" style="edgeStyle=orthogonalEdgeStyle;rounded=0;orthogonalLoop=1;jettySize=auto;html=1;exitX=1;exitY=0.5;exitDx=0;exitDy=0;exitPerimeter=0;entryX=0;entryY=0.5;entryDx=0;entryDy=0;entryPerimeter=0;strokeColor=#A3A3A3;strokeWidth=2;endArrow=none;endFill=0;" edge="1" parent="1" source="lm74C0_KvX_3WtNFRdFN-3" target="i0-r0BhkWRjA8PmNq9u2-51">
          <mxGeometry relative="1" as="geometry">
            <mxPoint x="-1" y="408" as="sourcePoint" />
            <mxPoint x="184" y="384" as="targetPoint" />
            <Array as="points">
              <mxPoint x="150" y="557" />
              <mxPoint x="150" y="374" />
            </Array>
          </mxGeometry>
        </mxCell>
        <mxCell id="lm74C0_KvX_3WtNFRdFN-9" value="HTML5 App &#xa;Repository" style="shape=image;verticalLabelPosition=bottom;verticalAlign=top;imageAspect=0;aspect=fixed;image=data:image/svg+xml,PHN2ZyB4bWxucz0iaHR0cDovL3d3dy53My5vcmcvMjAwMC9zdmciIGZpbGw9Im5vbmUiIHZpZXdCb3g9IjAgMCA0OSA0OSIgaGVpZ2h0PSI0OSIgd2lkdGg9IjQ5Ij4mI3hhOzxnIGNsaXAtcGF0aD0idXJsKCNjbGlwMF8yNjIyXzM2NTQpIj4mI3hhOzxjaXJjbGUgc3Ryb2tlLXdpZHRoPSIwLjg1NzE0MyIgc3Ryb2tlPSIjRDVEQUREIiBmaWxsPSJ1cmwoI3BhaW50MF9saW5lYXJfMjYyMl8zNjU0KSIgcj0iMjMuNTcxNCIgY3k9IjI0LjAzNDkiIGN4PSIyNC41Ii8+JiN4YTs8ZyBjbGlwLXBhdGg9InVybCgjY2xpcDFfMjYyMl8zNjU0KSI+JiN4YTs8cGF0aCBmaWxsPSJ1cmwoI3BhaW50MV9yYWRpYWxfMjYyMl8zNjU0KSIgZD0iTTIzLjU5OTUgMTMuOTg0OUMyMC41MTU1IDEzLjk4NDkgMTguMjA3MSAxNi45NzU4IDE4LjQyMDQgMTkuODA4OUMxOC40NTE2IDIwLjIyNCAxOC4yODk2IDIwLjYzMDMgMTcuOTgxMyAyMC45MUMxNy42NzMgMjEuMTg5NyAxNy4yNTMgMjEuMzExNiAxNi44NDI4IDIxLjI0MDJDMTUuNTU2NyAyMS4wMTY2IDE0LjYyMjQgMjEuMzYxMyAxNC4wMDU2IDIxLjkyOUMxMy4zNjc3IDIyLjUxNjEgMTIuOTUgMjMuNDU0MSAxMi45NSAyNC42MDQ0QzEyLjk1IDI1Ljc0MDUgMTMuMjg4MSAyNi41NzY3IDEzLjgyMDYgMjcuMTIzMUMxNC4zNDU4IDI3LjY2MjEgMTUuMjA3NCAyOC4wNzA0IDE2LjU2MDQgMjguMDcwNEgxOS43NTg0QzIwLjUwNCAyOC4wNzA0IDIxLjEwODQgMjguNjc0OCAyMS4xMDg0IDI5LjQyMDRDMjEuMTA4NCAzMC4xNjYgMjAuNTA0IDMwLjc3MDQgMTkuNzU4NCAzMC43NzA0SDE2LjU2MDRDMTQuNjQyOSAzMC43NzA0IDEzLjAyNDIgMzAuMTc0NSAxMS44ODY5IDI5LjAwNzRDMTAuNzU2OCAyNy44NDc4IDEwLjI1IDI2LjI3NiAxMC4yNSAyNC42MDQ0QzEwLjI1IDIyLjgwODIgMTAuOTA4MyAyMS4xMTAyIDEyLjE3NyAxOS45NDI0QzEzLjEzMTkgMTkuMDYzNiAxNC4zNjc5IDE4LjU0NTMgMTUuNzcxNSAxOC40NzkxQzE2LjI0NDIgMTQuODE1MiAxOS4yOTc4IDExLjI4NDkgMjMuNTk5NSAxMS4yODQ5QzI2Ljk4OSAxMS4yODQ5IDI5LjUzMSAxMy4xNzg2IDMwLjkwODIgMTYuMDA3OEMzMy40MTY0IDE2LjAyODMgMzUuNzU0OSAxNy40OTUgMzYuNTQ2NCAyMC4zMzE0QzM2Ljc0NjggMjEuMDQ5NiAzNi4zMjcxIDIxLjc5NDIgMzUuNjA5IDIxLjk5NDZDMzQuODkwOSAyMi4xOTUxIDM0LjE0NjIgMjEuNzc1NCAzMy45NDU4IDIxLjA1NzJDMzMuNDU1OSAxOS4zMDE3IDMxLjk2MTcgMTguNDkxIDMwLjI1MDggMTguNzU0M0MyOS42MTc5IDE4Ljg1MTcgMjkuMDAzNyAxOC40OTEgMjguNzgwMyAxNy44OTA5QzI3Ljg1OCAxNS40MTM0IDI2LjAzMjYgMTMuOTg0OSAyMy41OTk1IDEzLjk4NDlaIiBjbGlwLXJ1bGU9ImV2ZW5vZGQiIGZpbGwtcnVsZT0iZXZlbm9kZCIvPiYjeGE7PHBhdGggZmlsbD0idXJsKCNwYWludDJfcmFkaWFsXzI2MjJfMzY1NCkiIGQ9Ik0yNS40OTk1IDI0LjA3MjdIMjYuMTUwMlYyNC43ODQ5SDI2Ljg2MDlWMjIuNjU4MkgyNi4xNTAyVjIzLjM2MDVIMjUuNDk5NVYyMi42NTgySDI0Ljc4ODlWMjQuNzg0OUgyNS40OTk1VjI0LjA3MjdaTTI3Ljc5NiAyNC43ODQ5SDI4LjUwNzJWMjMuMzYzNkgyOS4xMzMyVjIyLjY1ODJIMjcuMTdWMjMuMzYzNkgyNy43OTZWMjQuNzg0OVpNMzAuNjI5NiAyNC40ODY5TDMwLjE0MDIgMjMuNzMwNVYyNC43ODQ5SDI5LjQ0NDhWMjIuNjU4MkgzMC4xODZMMzAuNjQyMiAyMy40MDUxTDMxLjA5NzQgMjIuNjU4MkgzMS44MzkxVjI0Ljc4NDlIMzEuMTMxMVYyMy43MzA1TDMwLjY0MjIgMjQuNDg2OUgzMC42Mjk2Wk0zMy44NTg5IDI0LjA4MTZIMzIuODU5MVYyMi42NTgySDMyLjE0NzlWMjQuNzg0OUgzMy44NTg5VjI0LjA4MTZaTTI0Ljc2NTcgMzcuMDE4MUwyMy43NDkxIDI1LjYxNzJIMzQuOTI0TDMzLjkwNTkgMzcuMDE2NkwyOS4zMjk4IDM4LjI4NDlMMjQuNzY1NyAzNy4wMTgxWk0yNi42MDI2IDI5LjAxNjNMMjYuODczMyAzMi4wNTI4SDI5LjMzMjJIMjkuMzM5NUgzMC42ODk0TDMwLjU2MTYgMzMuNDgxNUwyOS4zMzIyIDMzLjgxMzJMMjguMTAzOCAzMy40ODI1TDI4LjAyNDkgMzIuNjAzN0gyNy40Mjg5SDI2LjkxODVMMjcuMDczIDM0LjMzMzVMMjkuMzMxMSAzNC45NjAxTDI5LjMzNTkgMzQuOTU4NUwzMS41OTE5IDM0LjMzMzVMMzEuNjA4MiAzNC4xNDc1TDMxLjg2NzMgMzEuMjQ3TDMxLjg5NDEgMzAuOTUxMUgzMS41OTcxSDI5LjMzOTVIMjkuMzMyMkgyNy44ODE0TDI3Ljc4MDUgMjkuODIyNkgyOS4zMzU5SDI5LjMzOTVIMzEuOTk0NUgzMS45OTgyTDMyLjAyMDMgMjkuNTc1TDMyLjA3MDcgMjkuMDE2M0wzMi4wOTcgMjguNzIwOUgyOS4zMzk1SDI5LjMzNTlIMjYuNTc2M0wyNi42MDI2IDI5LjAxNjNaIiBjbGlwLXJ1bGU9ImV2ZW5vZGQiIGZpbGwtcnVsZT0iZXZlbm9kZCIvPiYjeGE7PC9nPiYjeGE7PC9nPiYjeGE7PGRlZnM+JiN4YTs8bGluZWFyR3JhZGllbnQgZ3JhZGllbnRVbml0cz0idXNlclNwYWNlT25Vc2UiIHkyPSI0NC4yNzkyIiB4Mj0iNDEuNTY0NSIgeTE9IjYuODQ3NzUiIHgxPSI0Ljg1Mjg3IiBpZD0icGFpbnQwX2xpbmVhcl8yNjIyXzM2NTQiPiYjeGE7PHN0b3Agc3RvcC1jb2xvcj0id2hpdGUiLz4mI3hhOzxzdG9wIHN0b3AtY29sb3I9IiNFQUVDRUUiIG9mZnNldD0iMSIvPiYjeGE7PC9saW5lYXJHcmFkaWVudD4mI3hhOzxyYWRpYWxHcmFkaWVudCBncmFkaWVudFRyYW5zZm9ybT0idHJhbnNsYXRlKDE0LjMzNTYgMTQuMTQ2KSByb3RhdGUoMzYuNzkwNykgc2NhbGUoMjIuNzc3NSA0MS4yODQpIiBncmFkaWVudFVuaXRzPSJ1c2VyU3BhY2VPblVzZSIgcj0iMSIgY3k9IjAiIGN4PSIwIiBpZD0icGFpbnQxX3JhZGlhbF8yNjIyXzM2NTQiPiYjeGE7PHN0b3Agc3RvcC1jb2xvcj0iIzAxOTVGRiIvPiYjeGE7PHN0b3Agc3RvcC1jb2xvcj0iIzExNDdFOSIgb2Zmc2V0PSIxIi8+JiN4YTs8L3JhZGlhbEdyYWRpZW50PiYjeGE7PHJhZGlhbEdyYWRpZW50IGdyYWRpZW50VHJhbnNmb3JtPSJ0cmFuc2xhdGUoMjUuNDc5NiAyNS4wMDkpIHJvdGF0ZSg1NC40MzA5KSBzY2FsZSgxMy4zODIxIDExLjUzOTcpIiBncmFkaWVudFVuaXRzPSJ1c2VyU3BhY2VPblVzZSIgcj0iMSIgY3k9IjAiIGN4PSIwIiBpZD0icGFpbnQyX3JhZGlhbF8yNjIyXzM2NTQiPiYjeGE7PHN0b3Agc3RvcC1jb2xvcj0iIzEzNDhGRiIvPiYjeGE7PHN0b3Agc3RvcC1jb2xvcj0iIzA2MjM4RCIgb2Zmc2V0PSIxIi8+JiN4YTs8L3JhZGlhbEdyYWRpZW50PiYjeGE7PGNsaXBQYXRoIGlkPSJjbGlwMF8yNjIyXzM2NTQiPiYjeGE7PHJlY3QgdHJhbnNmb3JtPSJ0cmFuc2xhdGUoMC41IDAuMDM0OTEyMSkiIGZpbGw9IndoaXRlIiBoZWlnaHQ9IjQ4IiB3aWR0aD0iNDgiLz4mI3hhOzwvY2xpcFBhdGg+JiN4YTs8Y2xpcFBhdGggaWQ9ImNsaXAxXzI2MjJfMzY1NCI+JiN4YTs8cmVjdCB0cmFuc2Zvcm09InRyYW5zbGF0ZSgxMC4yNSAxMS4yODQ5KSIgZmlsbD0id2hpdGUiIGhlaWdodD0iMjciIHdpZHRoPSIyNyIvPiYjeGE7PC9jbGlwUGF0aD4mI3hhOzwvZGVmcz4mI3hhOzwvc3ZnPg==;points=[[0,0,0,0,0],[0,0.25,0,0,0],[0,0.5,0,0,0],[0,0.75,0,0,0],[0.25,0,0,0,0],[0.5,0,0,0,0],[0.75,0,0,0,0],[1,0,0,0,0],[1,0.25,0,0,0],[1,0.5,0,0,0],[1,0.75,0,0,0]];fontStyle=0;fontSize=12;fontColor=#1D2D3E;" vertex="1" parent="1">
          <mxGeometry x="-160" y="530" width="54" height="54" as="geometry" />
        </mxCell>
        <mxCell id="lm74C0_KvX_3WtNFRdFN-8" value="HTML5 App &#xa;Repository" style="shape=image;verticalLabelPosition=bottom;verticalAlign=top;imageAspect=0;aspect=fixed;image=data:image/svg+xml,PHN2ZyB4bWxucz0iaHR0cDovL3d3dy53My5vcmcvMjAwMC9zdmciIGZpbGw9Im5vbmUiIHZpZXdCb3g9IjAgMCA0OSA0OSIgaGVpZ2h0PSI0OSIgd2lkdGg9IjQ5Ij4mI3hhOzxnIGNsaXAtcGF0aD0idXJsKCNjbGlwMF8yNjIyXzM2NTQpIj4mI3hhOzxjaXJjbGUgc3Ryb2tlLXdpZHRoPSIwLjg1NzE0MyIgc3Ryb2tlPSIjRDVEQUREIiBmaWxsPSJ1cmwoI3BhaW50MF9saW5lYXJfMjYyMl8zNjU0KSIgcj0iMjMuNTcxNCIgY3k9IjI0LjAzNDkiIGN4PSIyNC41Ii8+JiN4YTs8ZyBjbGlwLXBhdGg9InVybCgjY2xpcDFfMjYyMl8zNjU0KSI+JiN4YTs8cGF0aCBmaWxsPSJ1cmwoI3BhaW50MV9yYWRpYWxfMjYyMl8zNjU0KSIgZD0iTTIzLjU5OTUgMTMuOTg0OUMyMC41MTU1IDEzLjk4NDkgMTguMjA3MSAxNi45NzU4IDE4LjQyMDQgMTkuODA4OUMxOC40NTE2IDIwLjIyNCAxOC4yODk2IDIwLjYzMDMgMTcuOTgxMyAyMC45MUMxNy42NzMgMjEuMTg5NyAxNy4yNTMgMjEuMzExNiAxNi44NDI4IDIxLjI0MDJDMTUuNTU2NyAyMS4wMTY2IDE0LjYyMjQgMjEuMzYxMyAxNC4wMDU2IDIxLjkyOUMxMy4zNjc3IDIyLjUxNjEgMTIuOTUgMjMuNDU0MSAxMi45NSAyNC42MDQ0QzEyLjk1IDI1Ljc0MDUgMTMuMjg4MSAyNi41NzY3IDEzLjgyMDYgMjcuMTIzMUMxNC4zNDU4IDI3LjY2MjEgMTUuMjA3NCAyOC4wNzA0IDE2LjU2MDQgMjguMDcwNEgxOS43NTg0QzIwLjUwNCAyOC4wNzA0IDIxLjEwODQgMjguNjc0OCAyMS4xMDg0IDI5LjQyMDRDMjEuMTA4NCAzMC4xNjYgMjAuNTA0IDMwLjc3MDQgMTkuNzU4NCAzMC43NzA0SDE2LjU2MDRDMTQuNjQyOSAzMC43NzA0IDEzLjAyNDIgMzAuMTc0NSAxMS44ODY5IDI5LjAwNzRDMTAuNzU2OCAyNy44NDc4IDEwLjI1IDI2LjI3NiAxMC4yNSAyNC42MDQ0QzEwLjI1IDIyLjgwODIgMTAuOTA4MyAyMS4xMTAyIDEyLjE3NyAxOS45NDI0QzEzLjEzMTkgMTkuMDYzNiAxNC4zNjc5IDE4LjU0NTMgMTUuNzcxNSAxOC40NzkxQzE2LjI0NDIgMTQuODE1MiAxOS4yOTc4IDExLjI4NDkgMjMuNTk5NSAxMS4yODQ5QzI2Ljk4OSAxMS4yODQ5IDI5LjUzMSAxMy4xNzg2IDMwLjkwODIgMTYuMDA3OEMzMy40MTY0IDE2LjAyODMgMzUuNzU0OSAxNy40OTUgMzYuNTQ2NCAyMC4zMzE0QzM2Ljc0NjggMjEuMDQ5NiAzNi4zMjcxIDIxLjc5NDIgMzUuNjA5IDIxLjk5NDZDMzQuODkwOSAyMi4xOTUxIDM0LjE0NjIgMjEuNzc1NCAzMy45NDU4IDIxLjA1NzJDMzMuNDU1OSAxOS4zMDE3IDMxLjk2MTcgMTguNDkxIDMwLjI1MDggMTguNzU0M0MyOS42MTc5IDE4Ljg1MTcgMjkuMDAzNyAxOC40OTEgMjguNzgwMyAxNy44OTA5QzI3Ljg1OCAxNS40MTM0IDI2LjAzMjYgMTMuOTg0OSAyMy41OTk1IDEzLjk4NDlaIiBjbGlwLXJ1bGU9ImV2ZW5vZGQiIGZpbGwtcnVsZT0iZXZlbm9kZCIvPiYjeGE7PHBhdGggZmlsbD0idXJsKCNwYWludDJfcmFkaWFsXzI2MjJfMzY1NCkiIGQ9Ik0yNS40OTk1IDI0LjA3MjdIMjYuMTUwMlYyNC43ODQ5SDI2Ljg2MDlWMjIuNjU4MkgyNi4xNTAyVjIzLjM2MDVIMjUuNDk5NVYyMi42NTgySDI0Ljc4ODlWMjQuNzg0OUgyNS40OTk1VjI0LjA3MjdaTTI3Ljc5NiAyNC43ODQ5SDI4LjUwNzJWMjMuMzYzNkgyOS4xMzMyVjIyLjY1ODJIMjcuMTdWMjMuMzYzNkgyNy43OTZWMjQuNzg0OVpNMzAuNjI5NiAyNC40ODY5TDMwLjE0MDIgMjMuNzMwNVYyNC43ODQ5SDI5LjQ0NDhWMjIuNjU4MkgzMC4xODZMMzAuNjQyMiAyMy40MDUxTDMxLjA5NzQgMjIuNjU4MkgzMS44MzkxVjI0Ljc4NDlIMzEuMTMxMVYyMy43MzA1TDMwLjY0MjIgMjQuNDg2OUgzMC42Mjk2Wk0zMy44NTg5IDI0LjA4MTZIMzIuODU5MVYyMi42NTgySDMyLjE0NzlWMjQuNzg0OUgzMy44NTg5VjI0LjA4MTZaTTI0Ljc2NTcgMzcuMDE4MUwyMy43NDkxIDI1LjYxNzJIMzQuOTI0TDMzLjkwNTkgMzcuMDE2NkwyOS4zMjk4IDM4LjI4NDlMMjQuNzY1NyAzNy4wMTgxWk0yNi42MDI2IDI5LjAxNjNMMjYuODczMyAzMi4wNTI4SDI5LjMzMjJIMjkuMzM5NUgzMC42ODk0TDMwLjU2MTYgMzMuNDgxNUwyOS4zMzIyIDMzLjgxMzJMMjguMTAzOCAzMy40ODI1TDI4LjAyNDkgMzIuNjAzN0gyNy40Mjg5SDI2LjkxODVMMjcuMDczIDM0LjMzMzVMMjkuMzMxMSAzNC45NjAxTDI5LjMzNTkgMzQuOTU4NUwzMS41OTE5IDM0LjMzMzVMMzEuNjA4MiAzNC4xNDc1TDMxLjg2NzMgMzEuMjQ3TDMxLjg5NDEgMzAuOTUxMUgzMS41OTcxSDI5LjMzOTVIMjkuMzMyMkgyNy44ODE0TDI3Ljc4MDUgMjkuODIyNkgyOS4zMzU5SDI5LjMzOTVIMzEuOTk0NUgzMS45OTgyTDMyLjAyMDMgMjkuNTc1TDMyLjA3MDcgMjkuMDE2M0wzMi4wOTcgMjguNzIwOUgyOS4zMzk1SDI5LjMzNTlIMjYuNTc2M0wyNi42MDI2IDI5LjAxNjNaIiBjbGlwLXJ1bGU9ImV2ZW5vZGQiIGZpbGwtcnVsZT0iZXZlbm9kZCIvPiYjeGE7PC9nPiYjeGE7PC9nPiYjeGE7PGRlZnM+JiN4YTs8bGluZWFyR3JhZGllbnQgZ3JhZGllbnRVbml0cz0idXNlclNwYWNlT25Vc2UiIHkyPSI0NC4yNzkyIiB4Mj0iNDEuNTY0NSIgeTE9IjYuODQ3NzUiIHgxPSI0Ljg1Mjg3IiBpZD0icGFpbnQwX2xpbmVhcl8yNjIyXzM2NTQiPiYjeGE7PHN0b3Agc3RvcC1jb2xvcj0id2hpdGUiLz4mI3hhOzxzdG9wIHN0b3AtY29sb3I9IiNFQUVDRUUiIG9mZnNldD0iMSIvPiYjeGE7PC9saW5lYXJHcmFkaWVudD4mI3hhOzxyYWRpYWxHcmFkaWVudCBncmFkaWVudFRyYW5zZm9ybT0idHJhbnNsYXRlKDE0LjMzNTYgMTQuMTQ2KSByb3RhdGUoMzYuNzkwNykgc2NhbGUoMjIuNzc3NSA0MS4yODQpIiBncmFkaWVudFVuaXRzPSJ1c2VyU3BhY2VPblVzZSIgcj0iMSIgY3k9IjAiIGN4PSIwIiBpZD0icGFpbnQxX3JhZGlhbF8yNjIyXzM2NTQiPiYjeGE7PHN0b3Agc3RvcC1jb2xvcj0iIzAxOTVGRiIvPiYjeGE7PHN0b3Agc3RvcC1jb2xvcj0iIzExNDdFOSIgb2Zmc2V0PSIxIi8+JiN4YTs8L3JhZGlhbEdyYWRpZW50PiYjeGE7PHJhZGlhbEdyYWRpZW50IGdyYWRpZW50VHJhbnNmb3JtPSJ0cmFuc2xhdGUoMjUuNDc5NiAyNS4wMDkpIHJvdGF0ZSg1NC40MzA5KSBzY2FsZSgxMy4zODIxIDExLjUzOTcpIiBncmFkaWVudFVuaXRzPSJ1c2VyU3BhY2VPblVzZSIgcj0iMSIgY3k9IjAiIGN4PSIwIiBpZD0icGFpbnQyX3JhZGlhbF8yNjIyXzM2NTQiPiYjeGE7PHN0b3Agc3RvcC1jb2xvcj0iIzEzNDhGRiIvPiYjeGE7PHN0b3Agc3RvcC1jb2xvcj0iIzA2MjM4RCIgb2Zmc2V0PSIxIi8+JiN4YTs8L3JhZGlhbEdyYWRpZW50PiYjeGE7PGNsaXBQYXRoIGlkPSJjbGlwMF8yNjIyXzM2NTQiPiYjeGE7PHJlY3QgdHJhbnNmb3JtPSJ0cmFuc2xhdGUoMC41IDAuMDM0OTEyMSkiIGZpbGw9IndoaXRlIiBoZWlnaHQ9IjQ4IiB3aWR0aD0iNDgiLz4mI3hhOzwvY2xpcFBhdGg+JiN4YTs8Y2xpcFBhdGggaWQ9ImNsaXAxXzI2MjJfMzY1NCI+JiN4YTs8cmVjdCB0cmFuc2Zvcm09InRyYW5zbGF0ZSgxMC4yNSAxMS4yODQ5KSIgZmlsbD0id2hpdGUiIGhlaWdodD0iMjciIHdpZHRoPSIyNyIvPiYjeGE7PC9jbGlwUGF0aD4mI3hhOzwvZGVmcz4mI3hhOzwvc3ZnPg==;points=[[0,0,0,0,0],[0,0.25,0,0,0],[0,0.5,0,0,0],[0,0.75,0,0,0],[0.25,0,0,0,0],[0.5,0,0,0,0],[0.75,0,0,0,0],[1,0,0,0,0],[1,0.25,0,0,0],[1,0.5,0,0,0],[1,0.75,0,0,0]];fontStyle=0;fontSize=12;fontColor=#1D2D3E;" vertex="1" parent="1">
          <mxGeometry x="-160" y="371.3" width="54" height="54" as="geometry" />
        </mxCell>
        <mxCell id="lm74C0_KvX_3WtNFRdFN-13" style="edgeStyle=orthogonalEdgeStyle;rounded=0;orthogonalLoop=1;jettySize=auto;html=1;exitX=1;exitY=0.5;exitDx=0;exitDy=0;exitPerimeter=0;entryX=1;entryY=0.5;entryDx=0;entryDy=0;entryPerimeter=0;strokeColor=#A3A3A3;strokeWidth=2;endArrow=blockThin;endFill=1;" edge="1" parent="1" source="wNo7IlQ1gwdrVZ6y7zte-10" target="lm74C0_KvX_3WtNFRdFN-8">
          <mxGeometry relative="1" as="geometry">
            <mxPoint x="-207" y="194" as="sourcePoint" />
            <mxPoint x="-150" y="194" as="targetPoint" />
          </mxGeometry>
        </mxCell>
        <mxCell id="lm74C0_KvX_3WtNFRdFN-14" style="edgeStyle=orthogonalEdgeStyle;rounded=0;orthogonalLoop=1;jettySize=auto;html=1;exitX=1;exitY=0.5;exitDx=0;exitDy=0;exitPerimeter=0;entryX=1;entryY=0.5;entryDx=0;entryDy=0;entryPerimeter=0;strokeColor=#A3A3A3;strokeWidth=2;endArrow=blockThin;endFill=1;" edge="1" parent="1" source="wNo7IlQ1gwdrVZ6y7zte-10" target="lm74C0_KvX_3WtNFRdFN-9">
          <mxGeometry relative="1" as="geometry">
            <mxPoint x="-97" y="259" as="sourcePoint" />
            <mxPoint x="-96" y="410" as="targetPoint" />
          </mxGeometry>
        </mxCell>
        <mxCell id="lm74C0_KvX_3WtNFRdFN-15" style="edgeStyle=orthogonalEdgeStyle;rounded=0;orthogonalLoop=1;jettySize=auto;html=1;exitX=0;exitY=0.5;exitDx=0;exitDy=0;exitPerimeter=0;strokeColor=#A3A3A3;strokeWidth=2;endArrow=blockThin;endFill=1;entryX=1;entryY=0.5;entryDx=0;entryDy=0;entryPerimeter=0;" edge="1" parent="1" source="wNo7IlQ1gwdrVZ6y7zte-14" target="lm74C0_KvX_3WtNFRdFN-8">
          <mxGeometry relative="1" as="geometry">
            <mxPoint x="-123" y="232" as="sourcePoint" />
            <mxPoint x="-110" y="400" as="targetPoint" />
          </mxGeometry>
        </mxCell>
        <mxCell id="lm74C0_KvX_3WtNFRdFN-16" style="edgeStyle=orthogonalEdgeStyle;rounded=0;orthogonalLoop=1;jettySize=auto;html=1;exitX=0;exitY=0.5;exitDx=0;exitDy=0;exitPerimeter=0;strokeColor=#A3A3A3;strokeWidth=2;endArrow=blockThin;endFill=1;entryX=1;entryY=0.5;entryDx=0;entryDy=0;entryPerimeter=0;" edge="1" parent="1" source="lm74C0_KvX_3WtNFRdFN-3" target="lm74C0_KvX_3WtNFRdFN-9">
          <mxGeometry relative="1" as="geometry">
            <mxPoint x="-37" y="408" as="sourcePoint" />
            <mxPoint x="-96" y="408" as="targetPoint" />
          </mxGeometry>
        </mxCell>
      </root>
    </mxGraphModel>
  </diagram>
</mxfile>
